<svg width="153" height="153" viewBox="0 0 153 153" fill="none" xmlns="http://www.w3.org/2000/svg">
<g clip-path="url(#clip0_1_163)">
<path d="M71.8375 0.81706C31.4174 7.26458 -1.84691 40.0501 2.99667 82.5632C6.43164 112.716 34.0321 156.827 68.4215 152.201C107.695 159.089 147.699 120.199 150.292 82.0423C153.301 37.7704 118.358 -6.60235 71.8375 0.81706ZM83.6415 136.121C83.1571 135.901 82.6212 135.773 82.0455 135.855C39.1377 141.975 9.47119 96.4444 21.8978 57.9396C30.9648 29.842 61.438 11.6047 90.1589 15.9973C117.193 20.131 133.139 44.2306 135.393 69.923C138.175 101.622 112.922 128.953 83.6415 136.121Z" fill="#210404"/>
<path d="M77.6585 70.2367C78.6177 65.031 79.0234 59.7364 79.561 54.476C80.0239 49.9437 81.7573 44.3966 80.9696 39.8817C80.4344 36.8112 76.5881 37.1971 75.1232 39.1179C72.8832 42.0526 73.6645 48.1762 73.4962 51.6262C73.1984 57.7212 72.8816 63.8146 72.5926 69.9088C71.9296 70.058 71.3039 70.2534 70.8044 70.5519C69.873 71.1077 69.3855 71.9288 69.1965 72.8054C53.7487 73.6645 38.2548 74.0218 22.8212 75.016C22.8212 75.0176 22.822 75.0191 22.822 75.0207C20.0818 74.8151 19.2314 79.7976 22.8212 80.0533C36.9518 81.0609 53.2889 82.5267 67.7315 79.9771C67.8443 80.301 67.9888 80.6163 68.2032 80.9124C70.3685 83.8948 74.0187 83.2913 76.712 81.4246C79.3307 79.6102 81.4246 77.1432 80.9521 73.7797C80.702 71.9875 79.3418 70.8537 77.6585 70.2367Z" fill="#210404"/>
<path d="M46.82 53.5343C45.2121 51.5643 42.1511 51.2078 39.9246 50.2549C37.8006 49.3466 35.9156 52.2797 38.0618 53.443C40.2883 54.6499 43.0634 56.3237 45.6519 56.3555C47.209 56.3737 47.6831 54.5919 46.82 53.5343Z" fill="#210404"/>
<path d="M59.2767 39.4498C57.7156 38.0864 56.0648 36.8906 54.264 35.8647C52.3607 34.7809 50.0596 37.5282 51.8573 38.9845C53.3008 40.1549 54.6435 41.4555 55.9815 42.7442C57.248 43.9646 58.5915 45.5932 60.3955 45.968C61.7755 46.253 62.8879 45.143 62.6005 43.7622C62.2257 41.9629 60.5964 40.6027 59.2767 39.4498Z" fill="#210404"/>
<path d="M78.2286 21.3848C76.8978 23.7177 77.1694 26.4348 77.4004 29.0178C77.5783 31.0116 80.3129 31.0092 80.494 29.0178C80.6853 26.9041 81.0784 24.8873 81.7628 22.8736C82.4775 20.7671 79.2982 19.5069 78.2286 21.3848Z" fill="#210404"/>
<path d="M106.126 38.0078C103.264 39.1512 102.311 42.1114 101.271 44.7873C100.627 46.4412 103.161 47.3496 104.033 45.9521C105.303 43.9202 107.206 42.1519 108.008 39.8873C108.373 38.8559 107.191 37.5822 106.126 38.0078Z" fill="#210404"/>
<path d="M117.686 50.3415C116.673 51.5095 116 52.0852 114.455 52.3806C113.414 52.5799 112.687 53.6955 112.687 54.7023C112.687 56.1252 113.791 56.9637 115.095 57.1106C117.751 57.4076 120.693 56.0418 121.972 53.6486C123.381 51.0101 119.789 47.9133 117.686 50.3415Z" fill="#210404"/>
<path d="M128.977 77.3853C125.853 76.6096 122.622 77.132 119.483 76.3666C116.69 75.6861 115.696 79.6285 118.315 80.6035C121.606 81.8279 125.557 82.3329 128.977 81.4865C131.013 80.9831 131.011 77.8896 128.977 77.3853Z" fill="#210404"/>
<path d="M111.668 96.1371C110.15 95.7497 109.071 98.0285 110.571 98.7392C111.891 99.3657 112.998 100.161 114.043 101.178C115.171 102.277 115.945 103.34 117.556 103.689C118.684 103.935 119.62 103.002 119.372 101.874C118.685 98.7368 114.504 96.8605 111.668 96.1371Z" fill="#210404"/>
<path d="M108.278 115.668C107.658 113.458 105.21 111.944 103.896 110.145C103.059 108.999 100.849 109.64 101.422 111.187C102.192 113.267 103.523 115.326 104.8 117.135C106 118.834 108.892 117.851 108.278 115.668Z" fill="#210404"/>
<path d="M77.0836 122.031C76.5508 120.107 73.732 120.107 73.1992 122.031C72.772 123.571 73.1397 125.354 73.2492 126.926C73.3691 128.652 73.3525 130.456 73.7002 132.154C73.994 133.584 76.288 133.584 76.581 132.154C76.9296 130.455 76.9121 128.652 77.0328 126.926C77.1424 125.353 77.51 123.571 77.0836 122.031Z" fill="#210404"/>
<path d="M56.3793 112.723C54.6364 115.386 53.5192 118.364 54.0631 121.595C54.2513 122.714 56.0394 122.666 56.2665 121.595C56.716 119.48 57.0931 116.73 58.9766 115.321C61.5047 113.429 58.0245 110.208 56.3793 112.723Z" fill="#210404"/>
<path d="M40.0326 99.5007C38.3 101.551 36.9938 103.888 35.3756 106.02C33.9106 107.951 36.8906 109.741 38.4946 108.427C40.4177 106.853 41.8271 104.8 43.6613 103.13C46.1339 100.878 42.1582 96.9852 40.0326 99.5007Z" fill="#210404"/>
</g>
<defs>
<clipPath id="clip0_1_163">
<rect width="153" height="153" fill="white"/>
</clipPath>
</defs>
</svg>
