<svg width="190" height="190" viewBox="0 0 190 190" fill="none" xmlns="http://www.w3.org/2000/svg">
<g clip-path="url(#clip0_1_148)">
<path d="M189.314 63.5933C188.438 60.8231 184.819 61.5803 184.516 64.2425C184.096 67.9345 184.051 71.4055 182.946 75.0192C181.79 78.7924 178.739 82.5875 174.024 81.7609C171.382 81.298 168.914 77.7379 167.293 75.825C162.405 70.0585 157.234 65.753 149.53 64.8253C136.334 63.2365 132.922 76.9608 135.691 87.0585C127.973 87.222 117.694 88.4243 112.819 94.4722C112.257 94.6031 111.777 94.9807 111.66 95.6804C111.619 95.9183 111.584 96.1591 111.546 96.398C111.458 96.5625 111.352 96.7082 111.272 96.8787C110.937 97.5913 110.941 98.2742 111.157 98.856C108.604 115.965 108.59 134.081 112.859 150.849C114.859 158.7 118.583 166.683 125.699 171.059C133.545 175.884 144.263 172.999 151.105 167.859C161.038 160.396 165.344 146.777 167.375 135.072C169.336 123.777 170.877 110.834 166.09 100.077C161.567 89.916 149.848 87.3103 139.782 87.0635C138.121 78.17 140.513 67.7561 152.179 70.5937C160.964 72.7306 163.27 83.1762 171.114 86.3964C183.67 91.5553 192.604 73.9993 189.314 63.5933ZM151.973 159.786C152.019 159.602 152.066 159.421 152.112 159.236C153.617 157.501 154.983 155.675 156.208 153.767C154.968 155.962 153.554 157.978 151.973 159.786ZM143.538 92.483C142.874 92.6604 142.273 93.2164 142.166 94.0381C141.495 99.2921 141.044 104.578 140.29 109.823C140.117 111.025 140.568 112.647 142.016 112.865C147.928 113.758 153.788 110.016 157.921 106.122C158.995 105.11 160.234 103.728 160.785 102.215C161.853 104.029 162.664 106.091 163.181 108.41C162.78 108.462 162.387 108.646 162.053 109.018C157.97 113.555 155.47 116.51 149.326 118.492C144.482 120.054 136.836 121.415 132.016 119.124C127.482 116.968 123.529 113.101 119.835 109.766C118.812 108.843 117.826 107.703 116.676 106.934C114.988 105.802 115.443 106.058 115.044 106.789C115.112 106.664 115.133 106.479 115.044 106.355C115.027 106.333 115.012 106.311 114.996 106.29C114.92 106.186 114.821 106.118 114.717 106.071C114.806 103.803 114.903 101.731 114.986 99.9304C115.161 99.7649 115.328 99.5766 115.471 99.3328C115.873 98.6548 116.368 98.0631 116.905 97.5071C116.819 100.033 118.895 102.999 120.327 104.668C123.272 108.095 127.997 110.298 132.312 111.335C133.724 111.675 135.143 110.667 135.148 109.177C135.161 103.509 135.421 97.9353 134.966 92.2828C137.427 92.2412 139.742 92.3155 141.67 92.37C142.304 92.3888 142.923 92.4315 143.538 92.483Z" fill="#210404"/>
<path d="M162.931 29.1969C154.14 17.0951 134.793 19.5968 121.818 19.9228C100.451 20.4591 79.6795 20.1389 58.3423 18.7176C47.5964 18.002 36.8515 17.2864 26.1066 16.5698C20.6573 16.2071 13.976 16.7314 9.69134 20.5711C1.62349 27.8014 2.8525 40.7645 2.53236 50.5658C2.22213 60.055 0.7384 69.5253 0.245805 79.0154C-0.146685 86.5699 -1.50355 119.178 10.9927 121.931C11.2038 122.263 11.524 122.517 11.962 122.599C28.0512 125.578 44.8985 124.979 61.3405 125.004C60.5416 125.363 59.9479 126.123 59.9866 127.314C60.1472 132.252 57.9885 136.156 53.7989 138.789C53.7038 138.849 53.6215 138.917 53.5422 138.986C51.4281 139.038 49.313 139.085 47.1999 139.165C43.8856 139.289 43.8856 144.182 47.1999 144.307C58.4642 144.731 69.8018 144.55 81.0562 144.034C87.6463 143.732 95.8182 145.096 102.314 143.598C102.88 143.614 103.365 143.415 103.743 143.082C104.403 142.603 104.682 141.848 104.653 141.083C104.665 140.747 104.607 140.417 104.496 140.108C105.585 133.934 105.024 127.824 104.868 121.547C104.848 120.814 104.581 120.263 104.192 119.857C106.13 118.816 105.667 115.336 102.949 115.122C93.9499 114.415 84.9167 114.895 75.8993 114.86C66.6124 114.825 57.481 113.521 48.1772 113.811C38.8308 114.103 29.5607 114.961 20.3183 113.056C13.1524 111.578 10.4545 104.71 9.61205 98.2346C8.27897 87.9951 10.9739 77.7844 11.3644 67.5896C11.8153 55.804 10.7459 42.6566 15.4984 31.5816C19.906 21.3094 38.9547 26.056 47.5211 27.0184C63.4318 28.8064 79.5962 28.3594 95.5843 29.4506C104.561 30.0632 113.448 31.0216 122.449 30.5627C131.344 30.1088 140.259 28.7757 149.109 30.414C163.218 33.0267 158.959 52.2557 158.817 62.286C158.776 65.088 162.197 65.6599 163.655 64.0294C165.019 64.5339 166.825 64.1286 167.463 62.3643C171.376 51.5381 169.716 38.5384 162.931 29.1969ZM61.1898 119.493C56.4681 119.465 51.7502 119.496 47.0305 119.435C51.7453 119.251 56.4601 119.151 61.1898 119.493Z" fill="#210404"/>
<path d="M77.5743 68.4896C74.6525 66.6123 71.459 65.3526 68.2933 64.0007C69.0803 62.7707 69.8514 61.5338 70.6215 60.3097C71.6632 58.6535 70.2994 56.5216 68.4351 56.4998C62.2969 56.4294 56.2361 56.0141 50.1714 57.2154C48.6678 57.5137 47.6747 59.6982 48.642 60.9748C49.0068 61.4565 49.3448 61.953 49.6708 62.4545C49.9573 63.6261 50.439 64.7797 50.8206 65.8967C51.9029 69.0605 52.9902 72.3005 54.6027 75.2422C55.1925 76.3186 56.8933 76.8964 57.9459 76.1183C59.8924 74.6812 61.5863 72.9933 63.1325 71.1696C63.3921 71.4223 63.6578 71.6741 63.9214 71.9278C66.1425 74.0647 68.4658 76.1332 70.5115 78.4426C71.4372 79.4882 73.2331 79.4089 74.1718 78.4426C76.1461 76.4097 77.7359 74.0855 78.7786 71.4491C79.2186 70.341 78.4862 69.0763 77.5743 68.4896Z" fill="#210404"/>
</g>
<defs>
<clipPath id="clip0_1_148">
<rect width="190" height="190.001" fill="white"/>
</clipPath>
</defs>
</svg>
