<svg width="1512" height="391" viewBox="0 0 1512 391" fill="none" xmlns="http://www.w3.org/2000/svg">
<path d="M801.423 4.31683C800.994 3.85733 800.477 3.48737 799.904 3.22821C799.331 2.96906 798.712 2.82584 798.083 2.80682C796.963 2.80682 796.533 3.46683 797.083 4.18683C799.403 6.98682 747.713 6.26685 681.153 2.57684C667.693 1.82684 636.983 1.62683 612.913 2.12683C523.413 4.00684 517.413 3.96686 442.813 1.07684C429.353 0.556854 414.213 0.0768433 409.173 0.00683594C404.173 -0.0631714 389.933 0.41684 377.633 1.07684C365.333 1.73685 308.113 4.07684 250.483 6.21686C161.233 9.58685 76.5833 14.2969 99.8232 14.6069C111.733 14.7569 105.723 16.2768 79.5831 19.6868C62.7983 21.9539 45.8688 22.9733 28.9332 22.7368C14.9332 22.5968 -6.15686 22.5768 -17.9169 22.6768C-29.6769 22.7768 -53.9167 22.7968 -71.9167 22.6768C-103.997 22.5368 -110.637 23.0668 -166.407 30.3268C-198.917 34.5569 -221.117 40.5369 -220.997 45.0269C-220.907 48.1368 -214.717 47.9668 -202.067 44.5068C-196.762 43.05 -191.331 42.0959 -185.847 41.6569C-182.267 41.5369 -170.667 40.1568 -160.067 38.5668C-143.067 36.0268 -141.997 35.6869 -150.987 35.6669H-161.167L-146.627 33.1168C-114.707 27.5068 -38.2769 23.3468 -41.2368 27.3768C-41.9468 28.3768 -55.1869 29.4969 -73.3569 30.1669C-104.557 31.3069 -146.017 34.6168 -134.707 35.0568C-129.257 35.2668 -129.587 35.4969 -137.707 37.1569C-142.707 38.1569 -147.707 39.7168 -148.707 40.5568C-149.707 41.3968 -152.467 42.1568 -154.767 42.2468C-157.437 42.3468 -158.057 42.8168 -156.477 43.5468C-153.477 44.9268 -129.827 44.0668 -76.4768 40.6268L-36.8269 38.0768L-40.4268 41.4868C-43.3368 44.2468 -47.0468 45.0969 -59.9468 45.9669C-71.1268 46.7169 -76.9469 47.8769 -79.5769 49.8369C-81.5769 51.3669 -88.6769 53.5868 -95.2769 54.7568C-102.427 56.0268 -108.777 58.2368 -110.987 60.2368C-112.987 62.0768 -115.527 63.6068 -116.557 63.6368C-118.497 63.6968 -131.477 70.6368 -136.557 74.3369C-138.167 75.5069 -147.287 77.1968 -156.817 78.0869C-182.907 80.5369 -191.697 82.0869 -199.437 85.5768C-205.357 88.2469 -212.437 89.0269 -244.107 90.4568C-277.267 91.9568 -309.867 95.5468 -312.797 98.0168C-314.357 99.3369 -306.797 98.7869 -294.717 96.7269C-279.897 94.1769 -225.537 91.2968 -226.877 93.1268C-227.457 93.9168 -229.487 94.6268 -231.377 94.6868C-233.267 94.7468 -237.377 95.9669 -240.577 97.3969C-243.777 98.8268 -247.377 100.037 -248.647 100.097C-253.437 100.317 -260.647 106.447 -259.217 109.097C-257.937 111.557 -257.497 111.547 -252.727 108.877C-249.917 107.307 -247.097 106.417 -246.447 106.877C-244.047 108.677 -247.927 114.537 -251.597 114.647C-253.687 114.717 -256.007 115.597 -256.747 116.647C-258.067 118.427 -257.057 118.337 -235.747 114.767C-232.677 114.247 -227.887 113.617 -225.097 113.367C-222.307 113.117 -219.397 112.097 -218.637 111.117C-217.877 110.137 -212.457 109.427 -205.697 109.537C-199.337 109.637 -192.977 108.917 -191.577 107.927C-190.177 106.937 -181.387 105.627 -172.057 105.007C-162.727 104.387 -150.987 103.347 -145.957 102.707C-138.837 101.797 -138.167 101.877 -142.897 103.087C-146.407 103.997 -147.397 104.677 -145.247 104.717C-141.047 104.807 -134.487 109.077 -136.247 110.577C-136.887 111.117 -143.437 111.957 -150.807 112.447C-158.177 112.937 -165.287 114.037 -166.597 114.897C-167.907 115.757 -173.597 116.647 -179.157 116.897C-200.897 117.767 -216.717 121.327 -216.607 125.317C-216.607 125.997 -218.607 126.707 -221.147 126.897C-229.247 127.527 -201.737 129.487 -184.917 129.477C-154.747 129.477 -153.917 129.477 -158.397 131.187C-161.769 132.232 -165.26 132.847 -168.787 133.017C-172.287 133.187 -176.367 134.557 -177.847 136.017C-180.277 138.477 -185.487 138.797 -229.607 139.157C-266.377 139.457 -280.007 140.097 -284.037 141.687C-289.907 144.017 -290.227 144.617 -287.387 147.977C-286.177 149.407 -280.027 150.447 -270.537 150.847C-262.317 151.187 -258.787 151.687 -262.707 151.947C-268.067 152.317 -269.057 152.787 -266.707 153.877C-264.087 155.097 -264.427 156.017 -268.927 159.817C-273.797 163.927 -275.667 164.367 -291.017 164.997C-303.327 165.497 -308.017 166.277 -308.667 167.937C-309.367 169.767 -307.087 169.937 -296.587 168.787C-289.467 168.017 -274.037 166.637 -262.297 165.727C-238.987 163.907 -232.907 162.547 -250.297 163.057C-256.357 163.227 -262.647 162.757 -264.297 162.007C-269.427 159.627 -254.387 158.007 -237.147 159.007C-228.417 159.537 -217.047 159.287 -211.867 158.447C-198.757 156.317 -181.107 155.777 -181.057 157.447C-181.057 158.237 -183.057 159.377 -185.567 159.987C-188.077 160.597 -193.977 163.697 -198.677 166.887L-207.237 172.697L-183.237 171.357C-170.067 170.627 -152.397 169.357 -143.977 168.517C-130.697 167.217 -128.677 166.607 -128.757 163.927C-128.837 161.247 -130.437 160.857 -139.097 160.927C-144.571 161.009 -150.045 160.748 -155.487 160.147L-161.617 159.237L-154.527 157.977C-144.137 156.137 -122.207 155.597 -113.887 156.977C-109.887 157.637 -94.7367 158.317 -80.1667 158.477C-65.5968 158.637 -50.0168 158.847 -45.5269 158.937C-41.0369 159.027 -23.1667 159.227 -5.80676 159.377C11.5532 159.527 26.1031 159.847 26.5032 160.097C26.9032 160.347 26.6132 161.407 25.8531 162.427C24.8531 163.727 13.1332 164.587 -12.4568 165.217C-49.2668 166.127 -99.1567 169.697 -131.377 173.717C-157.877 177.037 -199.427 184.187 -201.437 185.787C-202.437 186.597 -200.007 186.707 -195.827 186.037C-185.347 184.357 -186.567 186.037 -198.297 189.577C-203.767 191.197 -209.297 193.577 -210.617 194.927C-213.677 198.037 -210.617 197.927 -202.997 194.607C-193.767 190.607 -179.327 189.137 -168.937 191.107C-158.937 193.007 -158.307 195.637 -167.847 195.927C-174.847 196.147 -175.367 198.127 -169.577 202.447C-167.287 204.147 -165.407 205.947 -165.387 206.447C-165.367 206.947 -172.467 207.347 -181.147 207.357C-210.257 207.357 -250.847 209.777 -250.797 211.447C-250.797 212.337 -248.537 212.997 -245.797 212.907C-243.057 212.817 -240.547 213.457 -240.147 214.327C-239.747 215.197 -234.827 215.137 -226.247 213.727C-213.137 211.567 -169.247 211.127 -147.857 212.937C-138.197 213.757 -137.977 213.877 -143.717 215.237C-147.057 216.017 -152.777 217.487 -156.437 218.487C-161.647 219.917 -164.167 219.787 -168.097 217.897C-174.637 214.747 -175.097 214.827 -177.217 219.687C-178.437 222.417 -181.137 224.217 -185.217 224.987C-191.867 226.257 -194.217 228.147 -192.217 230.587C-191.397 231.587 -189.687 231.457 -187.457 230.257C-184.887 228.897 -176.947 228.927 -157.457 230.377C-142.907 231.477 -126.187 232.547 -120.297 232.777C-114.407 233.007 -109.577 233.777 -109.557 234.427C-109.537 235.077 -98.7468 235.807 -85.5569 235.967C-72.3669 236.127 -56.5568 236.507 -50.4468 236.807C-44.3368 237.107 -40.0267 236.807 -40.9568 236.087C-42.7968 234.717 -43.8269 234.567 -51.5969 234.507C-54.4669 234.507 -56.3469 233.837 -55.7869 233.067C-55.2268 232.297 -50.3568 232.137 -44.9768 232.717C-39.5968 233.297 -27.1068 234.187 -17.2168 234.717C-3.98682 235.417 4.33313 236.907 14.2231 240.337C29.9431 245.797 50.4932 249.817 63.5432 249.977C65.5432 249.977 65.5432 250.707 63.8732 252.977C59.3131 259.117 40.5732 261.257 1.17322 260.137C-18.4468 259.577 -42.9867 259.137 -53.3667 259.137C-63.7467 259.137 -78.8768 258.797 -86.9868 258.397C-104.987 257.497 -135.367 259.717 -135.227 261.927C-135.177 262.817 -141.317 264.097 -148.877 264.777C-164.637 266.197 -163.447 267.907 -146.007 268.907C-127.647 269.907 -125.617 271.987 -142.057 272.837L-156.487 273.687L-139.697 274.177C-130.467 274.457 -121.777 275.517 -120.387 276.557C-118.387 278.037 -119.157 278.557 -123.857 278.827C-127.157 279.047 -122.047 279.917 -112.497 280.757C-102.947 281.597 -86.8668 283.177 -76.7568 284.257C-66.6469 285.337 -50.1068 286.727 -40.0068 287.337C-14.2668 288.897 1.61316 290.417 -3.63684 290.827C-6.08679 291.007 -8.56689 291.827 -9.13684 292.587C-10.2869 294.147 3.38318 295.037 36.6031 295.587C48.3632 295.787 58.4633 296.297 59.0332 296.727C60.4932 297.827 -24.8168 298.267 -51.9668 297.297C-80.9668 296.297 -137.967 298.017 -139.377 299.987C-139.987 300.817 -137.017 302.347 -132.777 303.387L-125.077 305.267L-134.197 306.547L-143.327 307.827L-132.127 307.757C-125.644 307.74 -119.168 308.181 -112.747 309.077C-104.007 310.557 -99.2968 310.737 -45.4568 311.697C10.5432 312.697 5.74304 314.427 -56.0769 315.587C-95.7369 316.317 -113.537 317.187 -113.507 318.357C-113.507 319.297 -108.167 320.737 -101.707 321.557C-95.2468 322.377 -83.9567 324.187 -76.6367 325.557C-69.3168 326.927 -53.7068 328.237 -41.9368 328.417C-30.1667 328.597 -12.7368 329.207 -3.19678 329.757C6.34326 330.307 25.1532 331.247 38.6132 331.837C52.0731 332.427 66.3032 333.447 70.2432 334.117C74.1831 334.787 91.6132 335.287 108.973 335.247C145.773 335.147 165.193 336.437 173.423 339.537C178.182 341.07 183.095 342.076 188.073 342.537C204.943 344.017 198.763 345.887 177.073 345.877C103.253 345.877 97.2133 345.687 94.8132 343.527C93.5127 342.331 91.8529 341.6 90.0931 341.447C88.8331 341.497 89.1932 342.207 90.9032 343.007C95.8333 345.347 73.3232 345.537 54.9032 343.307C44.8132 342.087 34.5631 341.887 27.2131 342.767C20.0931 343.617 15.5232 343.547 15.4932 342.587C15.4631 341.627 3.75317 340.467 -10.5068 339.797L-53.8469 337.797C-63.377 337.367 -84.4568 337.477 -100.687 338.057L-130.187 339.117L-104.547 339.457C-90.4469 339.637 -74.387 340.457 -68.8569 341.247C-63.3269 342.037 -50.5367 343.247 -40.4368 343.917C-30.3368 344.587 -21.1868 345.787 -20.0968 346.587C-17.5168 348.477 -22.3569 348.587 -53.0969 346.937C-69.9869 346.057 -82.4968 346.247 -91.7769 347.517C-99.3269 348.517 -107.777 349.367 -110.597 349.347C-125.307 349.237 -149.597 350.527 -151.517 351.517C-155.727 353.737 -142.057 358.177 -128.797 358.897C-119.197 359.417 -116.547 360.017 -119.437 361.007C-122.327 361.997 -121.317 362.317 -115.327 362.107C-109.871 362.002 -104.415 362.316 -99.0068 363.047C-93.3568 363.897 -100.917 364.367 -123.407 364.557C-141.327 364.717 -155.407 365.277 -154.787 365.807C-154.167 366.337 -132.317 366.317 -106.307 365.807C-71.4269 365.057 -58.5967 365.307 -57.4067 366.747C-55.8467 368.627 -26.0469 371.747 21.4932 375.037C33.8431 375.887 63.1432 376.817 86.6232 377.087C110.103 377.357 129.863 377.847 130.563 378.167C131.263 378.487 146.423 378.707 164.283 378.687C182.143 378.667 200.443 379.207 204.943 379.897C209.334 380.584 213.769 380.958 218.213 381.017C222.363 380.897 222.723 380.567 220.213 379.247C217.213 377.687 238.613 377.467 266.573 378.767C273.753 379.107 274.913 378.897 271.103 377.967C262.443 375.837 559.233 365.907 739.103 362.307C833.333 360.417 936.893 357.677 957.483 356.527C970.483 355.797 963.643 352.977 949.953 353.397C942.953 353.617 936.153 352.977 934.803 351.977C933.183 350.767 920.563 350.337 897.193 350.707C877.853 351.007 856.063 351.147 848.773 351.007C810.323 350.277 726.413 350.587 671.593 351.677C562.863 353.827 451.123 354.567 437.413 353.217C430.113 352.497 410.843 351.637 394.583 351.307C378.323 350.977 361.823 350.547 357.903 350.357C353.983 350.167 398.833 348.217 457.583 346.027C722.583 336.137 987.523 330.337 1079.43 332.407C1102.96 332.937 1135.06 333.407 1150.74 333.407C1166.42 333.407 1184.74 333.937 1191.51 334.547C1198.28 335.157 1211.51 335.767 1221.08 335.937C1230.65 336.107 1246.2 336.687 1255.74 337.247C1265.28 337.807 1279.05 338.517 1286.34 338.827C1306.62 339.697 1314.99 340.297 1326.13 341.677C1341.13 343.547 1412.38 345.427 1438.24 344.677C1450.55 344.307 1473.47 344.677 1489.18 345.507C1523.06 347.307 1520.8 347.317 1520.74 345.377C1520.64 341.647 1483.43 339.177 1428.92 339.297C1399.52 339.357 1350.2 337.447 1324.92 335.297C1295.69 332.777 1216.41 329.717 1162.83 329.037C1141.53 328.777 1110.83 328.267 1094.56 327.917C1067.08 327.327 969.823 328.167 849.193 330.017C788.103 330.957 553.603 336.577 431.943 340.017C367.173 341.847 343.353 342.017 340.303 340.647C336.303 338.877 336.373 338.787 341.303 338.387C348.973 337.747 327.683 336.067 313.743 336.207C298.063 336.367 289.123 334.057 302.453 333.287C350.853 330.497 415.873 327.607 456.043 326.467C503.653 325.117 517.503 324.667 540.493 323.717C546.643 323.467 554.433 323.317 557.793 323.377C561.153 323.437 582.223 323.007 604.613 322.377C674.403 320.517 827.243 318.377 831.613 319.177C833.303 319.487 871.323 319.037 916.113 318.177C1039.34 315.817 1225.69 318.287 1229.03 322.327C1230.03 323.517 1234.19 323.617 1241.69 322.637C1247.97 321.817 1253.41 321.807 1254.08 322.637C1254.75 323.467 1259.19 324.017 1263.98 323.927C1268.77 323.837 1290.14 324.747 1311.45 325.927C1347.71 327.977 1392.64 329.637 1418.45 329.927C1424.62 329.987 1440.67 330.487 1454.13 331.027C1494.64 332.677 1504.46 333.027 1519.36 333.167C1527.21 333.257 1536.84 333.697 1540.78 334.167L1547.93 334.997L1542.77 332.527C1539.93 331.167 1539.22 330.397 1541.19 330.807C1543.16 331.217 1544.76 330.957 1544.74 330.207C1544.72 329.457 1539.66 328.667 1533.49 328.457C1521.11 328.027 1519.16 327.297 1520.78 323.697C1521.62 321.827 1525.55 321.147 1537.59 320.767C1546.23 320.497 1554.76 320.767 1556.59 321.427C1558.42 322.087 1568.53 321.827 1579.15 320.897C1589.77 319.967 1595.01 319.207 1590.81 319.197C1584.64 319.197 1583.15 318.547 1583.08 315.947C1583.02 313.597 1581.63 312.757 1578.02 312.867C1575.29 312.957 1572.47 312.317 1571.75 311.447C1571.03 310.577 1568.44 309.947 1565.99 310.017C1563.54 310.087 1555.08 308.957 1547.2 307.487C1527.49 303.797 1490.66 298.657 1461.32 295.487C1424.68 291.547 1419.66 290.487 1438.79 290.817C1455.72 291.087 1475.64 292.227 1499.79 294.317C1507.55 294.987 1523.6 295.557 1535.47 295.567C1558.7 295.567 1585.47 296.837 1607.59 298.907C1621.81 300.237 1624.96 299.587 1633.96 293.447C1636.54 291.687 1637.15 289.767 1636.15 286.517C1634.8 282.127 1634.98 282.017 1643.58 281.727C1650.01 281.507 1651.58 281.027 1649.29 279.957C1647.59 279.147 1641.54 278.627 1635.85 278.787C1630.16 278.947 1624.85 278.607 1624.08 278.017C1621.39 276.017 1607.35 273.237 1600.85 273.417C1597.28 273.517 1593.85 272.957 1593.19 272.187C1592.53 271.417 1583.54 270.537 1573.19 270.237C1562.84 269.937 1550.65 269.557 1546.19 269.387C1532.5 268.857 1503.87 266.537 1494.13 265.177C1479.18 263.077 1465.18 261.677 1454.3 261.177C1448.7 260.927 1434.47 260.227 1422.69 259.627C1403.69 258.627 1343.14 257.847 1294.33 257.917C1284.81 257.917 1266.92 257.457 1254.58 256.917C1242.24 256.377 1213.82 255.917 1191.42 256.067C1169.02 256.217 1150.14 255.687 1149.42 254.927C1148.1 253.417 1135.86 253.167 1078.25 253.427C1052.01 253.557 1041.52 254.087 1043.68 255.177C1045.99 256.357 1044.18 256.797 1036.6 256.907C1027.74 257.037 1027.21 256.907 1032.49 255.637C1037.77 254.367 1037.14 254.247 1028.38 254.457C1020.97 254.627 1019.32 255.037 1022.31 255.957C1026.31 257.187 1026.31 257.217 1022.1 257.467C1019.62 257.569 1017.18 256.829 1015.17 255.367C1013.74 254.087 1010.17 253.177 1007.22 253.367L1001.88 253.697L1007.01 254.827C1010.92 255.697 1009.36 256.087 1000.43 256.487C994.003 256.777 988.723 256.327 988.693 255.487C988.663 254.647 983.573 254.417 976.973 255.017C968.973 255.737 966.243 255.547 968.303 254.417C970.363 253.287 966.163 252.997 955.033 253.497C940.033 254.177 939.563 254.297 948.963 255.027L959.173 255.817L947.363 256.437C939.103 256.867 935.953 256.497 936.903 255.207C937.853 253.917 935.693 253.637 929.903 254.207C925.293 254.707 921.503 254.727 921.483 254.257C921.483 252.867 890.143 254.257 887.393 255.797C884.643 257.337 846.243 258.117 846.193 256.597C846.193 256.057 855.103 255.477 866.013 255.307L885.863 254.997L868.863 254.477C856.093 254.097 851.203 253.287 849.193 251.227C845.843 247.787 843.613 247.727 845.373 251.117C846.583 253.437 842.053 253.707 794.983 254.057C766.533 254.277 736.563 254.617 728.373 254.837C715.173 255.177 713.583 254.887 714.373 252.337C715.163 249.787 713.183 249.467 695.593 249.547C684.783 249.597 709.823 248.547 751.233 247.247C792.643 245.947 821.733 245.247 815.863 245.787C809.993 246.327 805.213 247.367 805.233 248.157C805.253 248.947 811.233 248.967 818.983 248.157C838.253 246.107 907.273 243.947 950.743 244.027C970.913 244.027 1001.16 244.107 1017.96 244.117C1034.76 244.127 1051.72 244.237 1055.65 244.377C1059.58 244.517 1077.78 244.687 1096.12 244.757C1116.24 244.837 1128.37 245.477 1126.72 246.377C1124.72 247.477 1125.08 247.827 1128.3 247.747C1130.68 247.687 1135.73 247.917 1139.52 248.257C1144.87 248.747 1145.52 248.577 1142.3 247.477C1139.08 246.377 1139.87 246.007 1146.96 245.687C1151.79 245.477 1157.76 246.087 1160.22 247.037C1162.68 247.987 1172.7 248.497 1182.55 248.157C1192.4 247.817 1200.94 248.157 1201.55 248.957C1202.16 249.757 1207.14 249.767 1212.55 249.027C1220.12 248.284 1227.74 248.284 1235.31 249.027C1251.31 250.687 1316.46 253.807 1370.6 255.507C1393.02 256.217 1422.11 257.207 1435.23 257.707C1448.35 258.207 1462.33 258.037 1466.23 257.317C1470.13 256.597 1473.43 256.647 1473.45 257.407C1473.47 258.167 1482.74 258.277 1494.05 257.647C1511.75 256.647 1514.74 256.087 1515.49 253.587C1516.24 251.087 1517.6 250.827 1524.88 251.717C1533.36 252.717 1553.59 252.577 1549.67 251.507C1546.89 250.747 1484.02 246.777 1465 246.167C1456.59 245.887 1446.72 245.397 1443.07 245.067C1439.42 244.737 1436.45 245.177 1436.48 246.067C1436.51 246.957 1439.05 247.877 1442.14 248.147C1445.23 248.417 1442.72 248.827 1436.56 249.047C1430.4 249.267 1426.96 249.047 1428.91 248.607C1432.67 247.697 1433.53 245.477 1430.62 244.157C1429.62 243.727 1411.99 242.767 1391.35 242.047C1370.71 241.327 1352.23 240.477 1350.26 240.187C1348.29 239.897 1346.71 240.607 1346.75 241.967C1346.79 243.5 1345.28 244.06 1342.21 243.647C1339.68 243.307 1326.37 242.507 1312.63 241.877C1298.89 241.247 1287.63 240.007 1287.63 239.117C1287.63 238.227 1282.12 238.047 1272.86 238.947C1264.76 239.747 1259.32 239.767 1260.76 239.007C1262.2 238.247 1253.67 237.447 1240.76 237.227C1228.3 237.017 1217.11 237.367 1215.9 238.007C1214.69 238.647 1214.27 238.407 1215.04 237.357C1215.81 236.307 1213.28 235.357 1207.65 235.077C1202.86 234.827 1218.18 234.367 1241.65 234.077C1265.12 233.787 1287.16 233.667 1290.53 233.857C1293.9 234.047 1315.91 234.787 1339.46 235.487C1363.01 236.187 1393.74 237.487 1407.77 238.337C1421.8 239.187 1447.95 240.537 1465.9 241.337C1483.85 242.137 1508.17 243.587 1519.96 244.587C1531.75 245.587 1543.19 246.327 1545.38 246.267C1547.58 246.187 1549.76 246.644 1551.73 247.597C1553.04 248.397 1558.6 249.257 1564.1 249.507C1569.6 249.757 1572.47 249.607 1570.5 249.187C1568.53 248.767 1566.89 247.657 1566.87 246.727C1566.85 245.797 1564.4 245.497 1560.64 246.207C1556.88 246.917 1554.92 246.767 1555.64 245.757C1556.36 244.747 1554.94 244.097 1552.64 244.057C1533.16 243.727 1511.88 241.787 1512.87 240.437C1513.45 239.647 1511.8 239.077 1509.22 239.157C1504.81 239.287 1469.68 237.897 1451.5 236.867C1447.01 236.617 1438.29 236.167 1432.12 235.867C1425.95 235.567 1408.97 234.657 1394.38 233.867C1339.02 230.737 1294.57 229.777 1242.47 230.587C1182.05 231.517 1145.87 231.707 1087.78 231.387C1065.93 231.267 1025.61 231.277 998.163 231.387C964.683 231.557 952.953 231.207 962.493 230.317C974.983 229.157 973.493 229.007 950.243 229.087C935.673 229.087 921.663 229.777 919.103 230.527C916.543 231.277 914.843 231.317 915.343 230.637C915.843 229.957 901.913 229.787 884.393 230.237C866.873 230.687 836.123 231.007 816.073 230.937C789.003 230.827 780.003 231.257 781.073 232.587C782.143 233.917 781.073 233.977 776.833 232.837C773.193 231.837 763.763 231.947 750.963 233.067C734.053 234.547 731.093 234.467 732.463 232.537C733.833 230.607 733.593 230.597 730.753 232.537C729.755 233.259 728.596 233.728 727.377 233.902C726.157 234.076 724.913 233.951 723.753 233.537C718.973 231.877 633.633 234.537 633.683 236.367C633.683 237.147 632.293 236.897 630.543 235.827C628.143 234.347 626.193 234.347 622.473 235.827C619.773 236.897 617.133 237.257 616.613 236.617C616.093 235.977 607.613 235.547 597.733 235.617C585.053 235.747 578.913 235.127 576.733 233.487C573.973 231.427 574.183 231.127 578.633 230.857C595.903 229.857 646.323 228.997 647.933 229.727C651.033 231.127 657.933 228.537 657.863 226.007C657.863 224.737 658.483 223.577 659.313 223.427C660.143 223.277 694.253 221.877 735.093 220.307C800.333 217.797 830.433 217.387 924.443 217.747C936.203 217.747 964.163 217.747 986.563 217.607C1008.96 217.467 1027.83 217.607 1028.49 217.897C1029.66 218.387 1073.32 218.847 1103.7 218.697C1125.5 218.577 1180.31 219.857 1206.63 221.097C1218.96 221.687 1238.69 222.507 1250.47 222.937C1290.86 224.407 1299.76 225.107 1297.04 226.567C1295.52 227.387 1298.93 227.567 1305.1 227.077C1310.98 226.577 1316.24 226.687 1316.77 227.337C1317.3 227.987 1326.23 228.237 1336.61 227.937C1346.99 227.637 1356.87 227.767 1358.61 228.267C1360.35 228.767 1375.9 228.987 1393.25 228.787C1410.6 228.587 1426.58 228.937 1428.74 229.577C1431.37 230.357 1432.21 230.184 1431.27 229.057C1429.67 227.117 1454.91 226.987 1476.76 228.817C1505.32 231.207 1547.29 232.647 1550.09 231.337C1551.83 230.527 1555.57 230.897 1559.15 232.237C1562.92 233.657 1574.63 234.717 1589.84 235.017C1611.44 235.457 1619.48 236.427 1636.98 240.717C1641.08 241.717 1641.08 241.717 1636.98 239.137C1631.4 235.667 1618.12 231.617 1608.73 230.527C1602.97 229.867 1601.05 228.857 1600.98 226.527C1600.91 223.887 1602.45 223.277 1610.55 222.787L1620.21 222.187L1610.15 221.887C1604.61 221.727 1599.08 220.587 1597.86 219.357C1596.64 218.127 1587.81 216.247 1578.26 215.167C1558.74 212.967 1536.94 209.627 1530.02 207.777C1527.49 207.097 1512.73 206.497 1497.23 206.447C1445.23 206.277 1397.88 205.447 1379.37 204.447C1343.59 202.507 1313.96 201.197 1302.57 201.047C1296.22 200.967 1283.83 200.357 1275.03 199.687C1266.23 199.017 1245.74 198.167 1229.49 197.767C1213.24 197.367 1195.8 196.867 1190.76 196.627C1185.72 196.387 1172.41 196.047 1161.2 195.877C1105.78 195.017 1073.58 192.957 1101.81 192.077C1109.93 191.827 1113.02 191.177 1112 189.947C1110.98 188.717 1112.88 188.357 1118.46 188.817C1122.83 189.177 1140.14 189.377 1156.94 189.277C1196.1 189.047 1239.33 190.277 1284.34 192.797C1303.98 193.907 1343.88 195.267 1373.02 195.797C1402.16 196.327 1435.65 197.517 1447.44 198.407C1459.23 199.297 1470.25 200.067 1471.93 200.127C1473.61 200.187 1492.93 201.427 1514.78 202.887L1560.69 205.937C1564.06 206.147 1577.97 206.807 1591.6 207.387C1605.23 207.967 1619.48 209.047 1623.24 209.777C1633.83 211.857 1731.88 208.317 1743.54 205.437C1753.46 202.987 1765.1 195.837 1765 192.257C1765 190.847 1763.89 191.047 1761.45 192.887C1759.53 194.347 1754.03 196.887 1749.23 198.597C1740.68 201.597 1740.4 201.597 1736.06 198.347C1732.59 195.767 1732.15 194.607 1734.06 193.017C1737.78 189.887 1736.94 188.737 1730.25 187.787C1726.87 187.307 1723.12 185.547 1721.93 183.887C1720.15 181.417 1717.5 180.887 1707.62 181.227C1699.58 181.3 1691.56 180.505 1683.69 178.857C1669.74 175.607 1640.64 173.987 1598.52 174.107C1581.72 174.157 1565.67 174.037 1562.87 173.847L1555.21 173.317C1551.42 173.057 1552.05 170.317 1556.12 169.317C1558.35 168.787 1557.63 168.457 1554.18 168.447C1544.41 168.447 1545.49 165.307 1555.37 164.997C1560.47 164.837 1564.63 164.077 1564.61 163.307C1564.59 162.537 1568.43 162.387 1573.26 162.967C1585.4 164.447 1600.8 163.887 1602.26 161.917C1602.93 161.007 1608.71 160.107 1615.11 159.917C1622.22 159.687 1628.44 158.547 1631.11 156.967C1634.64 154.857 1637.11 154.647 1644.26 155.837C1652.4 157.187 1680.88 161.087 1682.32 161.047C1682.66 161.047 1682.27 160.207 1681.44 159.207C1680.33 157.867 1682.58 157.607 1689.95 158.207C1695.46 158.677 1701.8 159.207 1704.05 159.367C1706.86 159.672 1709.62 160.344 1712.25 161.367C1717.04 163.367 1740.38 167.417 1741.54 166.447C1741.97 166.077 1738.54 165.097 1733.87 164.257C1726.48 162.917 1725.78 162.417 1728.32 160.257C1731.19 157.827 1743.88 156.497 1746.32 158.357C1747.04 158.887 1755.68 159.407 1765.53 159.507C1775.38 159.607 1786.22 160.627 1789.61 161.767C1793.55 163.163 1797.81 163.344 1801.85 162.287L1807.87 160.687L1800.42 158.417C1796.32 157.177 1792.31 155.417 1791.51 154.417C1789.09 151.497 1777.36 148.707 1763.51 147.767C1756.32 147.277 1749.51 147.107 1748.41 147.377C1744.18 148.377 1714.74 144.897 1714.69 143.377C1714.61 140.377 1728.45 130.727 1734.64 129.447C1738 128.757 1740.73 127.657 1740.72 127.007C1740.71 126.357 1742.5 124.177 1744.72 122.167C1747.65 119.517 1751.15 118.427 1757.34 118.237C1768.68 117.887 1792.67 120.957 1812.96 125.357C1832.96 129.697 1844.79 129.487 1861.3 124.487C1881.02 118.487 1883.17 115.317 1863.94 120.587C1852.68 123.667 1829.05 124.857 1821.17 122.747C1811.37 120.117 1815.41 118.037 1831.28 117.547C1846.01 117.087 1860.49 113.397 1860.4 110.137C1860.4 109.427 1855.56 109.037 1849.69 109.267C1820.76 110.417 1755.13 111.527 1751.97 110.917C1749.97 110.537 1748.35 108.917 1748.3 107.307C1748.17 102.457 1753.16 100.307 1762.77 101.027C1775.93 102.027 1821.97 101.557 1820.44 100.417C1819.71 99.8669 1812.44 99.1968 1804.31 98.9268C1789.68 98.4368 1777.85 94.6668 1779.14 90.9268C1780.31 87.5368 1787.91 87.6268 1821.14 91.4268C1825.97 91.9768 1825.91 91.8569 1820.03 89.1669C1816.14 87.4879 1811.97 86.5388 1807.73 86.3668C1803.61 86.2802 1799.51 85.7165 1795.51 84.6868L1789.36 82.9868L1794.36 81.1469C1797.13 80.1469 1807.64 78.9468 1817.7 78.4968C1830.03 77.9468 1839.31 76.5869 1846.1 74.3369C1852.1 72.3369 1862.77 70.5969 1872.46 70.0369C1881.46 69.5169 1889.18 69.0369 1889.74 68.9069C1890.3 68.7769 1887.67 67.7669 1883.9 66.5969C1874.18 63.5969 1876.48 60.3468 1888.36 60.3168C1893.66 60.3168 1897.62 60.0069 1897.17 59.6669C1896.72 59.3269 1889.1 57.9769 1880.26 56.6669C1871.06 55.2969 1863.75 53.3268 1863.18 52.0668C1862.61 50.8068 1863.25 50.1369 1865.02 50.6069C1873.23 52.7869 1877.08 53.2068 1877.02 51.9268C1876.96 49.7268 1857.16 45.9269 1835.88 44.0369C1825.31 43.0969 1813.43 41.3669 1809.48 40.1968C1803.45 38.6894 1797.28 37.7288 1791.07 37.3268C1784.89 36.9268 1773.4 35.7868 1765.54 34.7968C1757.68 33.8068 1737 32.2868 1719.61 31.4268C1702.22 30.5668 1681.11 29.4268 1672.7 28.8268C1664.29 28.2268 1650.05 27.5969 1641.08 27.3569C1616.51 26.6969 1591.41 24.8868 1578.84 22.8668C1570.38 21.6585 1561.86 20.8908 1553.31 20.5668C1545.47 20.2968 1535.39 19.5068 1530.93 18.8068C1525.72 17.9968 1521.93 18.1268 1520.46 19.1968C1518.28 20.7268 1479.19 18.4268 1474.98 16.5168C1470.77 14.6068 1362.91 7.51688 1322.77 6.60687C1312.68 6.37686 1294.33 5.48688 1281.98 4.60687C1248.49 2.30688 1197.34 1.43683 1115.91 1.81683C1109.75 1.81683 1093.7 1.81686 1080.26 1.65686C1060.59 1.48685 1059 1.65683 1072.13 2.30682C1081.13 2.77682 1115.04 3.46686 1147.53 3.82684C1210.19 4.53683 1248.63 5.60681 1276.97 7.42682C1286.51 8.04681 1308.97 9.09683 1326.97 9.76685C1374.62 11.5468 1420.5 14.1168 1421.77 15.0668C1423.38 16.2768 1371.36 15.5168 1361.56 14.1868C1356.97 13.5568 1336.87 12.7868 1316.91 12.4568C1296.95 12.1269 1279.91 11.5869 1279.18 11.2269C1278.45 10.8669 1268.18 10.8069 1256.57 11.0869C1244.96 11.3669 1225.74 11.2169 1213.96 10.7769C1202.18 10.3369 1184.3 9.85684 1174.21 9.77686C1164.12 9.69687 1150.83 9.32684 1144.66 9.08685C1121.58 8.20685 1089.56 7.99686 1054.49 8.52686C1034.6 8.82684 1017.64 8.76685 1016.81 8.38684C1015.98 8.00684 991.473 7.96686 962.353 8.27686C911.273 8.82684 881.033 8.13684 857.353 5.88684C851.173 5.30685 836.353 5.07684 824.353 5.38684C812.343 5.68683 802.143 5.19684 801.423 4.31683ZM-175.487 123.807C-179.207 125.027 -199.957 126.557 -209.487 126.327C-213.227 126.227 -213.187 126.087 -208.947 124.597C-206.407 123.697 -196.947 122.857 -187.947 122.727C-178.157 122.587 -173.117 123.027 -175.487 123.807ZM-153.757 115.127C-150.957 115.037 -149.807 115.367 -151.197 115.857C-152.846 116.359 -154.599 116.415 -156.277 116.017C-157.707 115.617 -156.577 115.217 -153.777 115.127H-153.757ZM-143.187 165.557L-159.047 166.817C-176.137 168.187 -197.367 167.707 -194.047 166.037C-189.447 163.687 -184.937 163.447 -164.557 164.477L-143.187 165.557ZM-115.487 136.777C-120.827 138.347 -151.397 138.937 -159.797 137.627C-165.797 136.687 -165.407 136.537 -156.027 136.097C-150.317 135.827 -140.257 135.097 -133.667 134.497C-127.077 133.897 -119.387 133.877 -116.567 134.497C-111.807 135.507 -111.737 135.687 -115.487 136.777ZM-101.857 136.967C-103.317 137.477 -105.067 137.477 -105.757 136.967C-106.457 136.457 -105.257 136.037 -103.117 136.037C-100.747 136.027 -100.257 136.397 -101.867 136.967H-101.857ZM-86.4668 136.497C-88.8109 136.97 -91.218 137.044 -93.5869 136.717C-95.5869 136.367 -93.9669 135.987 -90.0469 135.867C-86.1268 135.747 -84.4868 136.027 -86.4868 136.497H-86.4668ZM-41.3069 130.997C-38.5068 130.907 -37.3068 131.237 -38.7368 131.727C-40.3904 132.224 -42.1454 132.279 -43.8269 131.887C-45.2469 131.487 -44.1069 131.087 -41.3169 130.997H-41.3069ZM-52.3069 131.207C-49.9369 131.207 -49.4469 131.587 -51.0569 132.147C-52.5068 132.657 -54.2668 132.657 -54.9568 132.147C-55.6768 131.627 -54.4869 131.207 -52.3369 131.207H-52.3069ZM-64.5669 129.977C-62.1969 129.977 -61.6969 130.347 -63.3069 130.917C-64.7668 131.427 -66.5168 131.427 -67.2168 130.917C-67.9368 130.397 -66.7469 129.977 -64.5969 129.977H-64.5669ZM-48.7268 138.297C-61.3368 138.527 -71.8867 138.047 -72.1768 137.237C-72.4668 136.427 -65.6268 135.327 -56.9668 134.797C-47.6068 134.227 -41.1868 134.477 -41.1567 135.417C-41.1267 136.357 -37.6768 137.197 -33.4668 137.417C-29.2568 137.637 -36.1569 138.067 -48.7568 138.297H-48.7268ZM-9.56677 26.8768C-3.41675 26.6868 -0.886841 26.8768 -3.95679 27.3768C-7.66602 27.8633 -11.4144 27.9806 -15.1469 27.7269C-18.2668 27.4569 -15.7568 27.0768 -9.5968 26.8768H-9.56677ZM-1.08679 134.167C-5.77673 134.417 -8.35681 133.917 -7.62683 132.917C-6.25684 131.057 -5.62683 131.047 1.5332 132.637C6.04321 133.637 5.75317 133.817 -1.11682 134.167H-1.08679ZM-146.607 188.487C-149.977 188.177 -154.947 187.897 -157.607 187.867C-169.447 187.737 -157.797 185.447 -130.997 182.637C-95.8468 178.957 -98.5569 179.097 -94.9968 180.747C-93.3969 181.487 -89.2268 181.637 -85.7268 181.077C-81.5968 180.417 -78.4967 180.857 -76.8667 182.327C-74.7167 184.257 -76.9366 184.867 -92.1167 186.527C-110.707 188.547 -136.097 189.467 -146.637 188.487H-146.607ZM-99.6069 214.407C-101.607 214.067 -99.5068 213.687 -95.0269 213.567C-90.5469 213.447 -88.9468 213.727 -91.4668 214.187C-94.151 214.662 -96.891 214.736 -99.5969 214.407H-99.6069ZM-86.9268 230.127C-88.5803 230.624 -90.3353 230.679 -92.0168 230.287C-93.4269 229.877 -92.2969 229.477 -89.4968 229.387C-86.6968 229.297 -85.4867 229.637 -86.9167 230.127H-86.9268ZM-94.0669 205.517C-116.837 207.267 -123.067 207.207 -120.547 205.257C-118.827 203.897 -82.8268 201.807 -75.9868 202.667C-70.8568 203.317 -76.0068 204.117 -94.0569 205.517H-94.0669ZM-73.6567 231.367C-75.9996 231.85 -78.4086 231.924 -80.7769 231.587C-82.7769 231.247 -81.1569 230.867 -77.2368 230.737C-73.3168 230.607 -71.6968 230.897 -73.6467 231.367H-73.6567ZM-60.3867 232.527C-62.0431 233.028 -63.8024 233.083 -65.4868 232.687C-66.8969 232.277 -65.7668 231.877 -62.9668 231.787C-60.1667 231.697 -58.9867 232.037 -60.3767 232.527H-60.3867ZM9.80322 265.867C8.14966 266.364 6.39465 266.419 4.71313 266.027C3.3031 265.617 4.43311 265.217 7.23315 265.127C10.0332 265.037 11.1932 265.377 9.81323 265.867H9.80322ZM40.2432 266.567C38.7832 267.077 37.0331 267.067 36.3331 266.567C35.6332 266.067 36.8431 265.637 38.9832 265.637C41.3732 265.627 41.8632 265.997 40.2532 266.567H40.2432ZM58.5532 265.987C57.1033 266.507 55.3431 266.497 54.6532 265.987C53.9633 265.477 55.1532 265.047 57.3032 265.057C59.6832 265.057 60.1732 265.427 58.5132 265.987H58.5532ZM379.143 356.687C389.063 357.067 397.793 357.887 398.543 358.497C400.543 360.157 362.473 358.997 358.453 357.287C354.513 355.687 352.773 355.687 379.143 356.687ZM1178.04 283.337C1180.41 283.337 1180.9 283.707 1179.29 284.277C1177.84 284.787 1176.08 284.787 1175.39 284.277C1174.7 283.797 1175.89 283.377 1178.04 283.377V283.337ZM1137.38 255.687C1140.17 255.597 1141.38 255.927 1139.94 256.417C1138.29 256.914 1136.54 256.969 1134.86 256.577C1133.44 256.197 1134.58 255.787 1137.38 255.687ZM1083.75 254.177C1084.66 254.317 1093.66 254.627 1103.75 254.867L1122.09 255.297L1103.4 256.187C1092.69 256.697 1084.14 256.397 1083.4 255.497C1082.68 254.687 1082.84 254.057 1083.75 254.197V254.177ZM1071.15 254.577C1074.51 254.507 1075.65 254.837 1073.68 255.307C1071.68 255.781 1069.6 255.825 1067.57 255.437C1066.18 255.057 1067.79 254.687 1071.15 254.597V254.577ZM1053.86 255.177C1057.77 255.057 1059.38 255.337 1057.44 255.807C1055.1 256.289 1052.69 256.364 1050.32 256.027C1048.35 255.687 1049.94 255.317 1053.86 255.197V255.177ZM1011.93 285.617C1070.62 284.127 1084.27 284.197 1120.93 286.167C1127.66 286.537 1154.69 286.407 1181 285.897C1220.64 285.117 1280.46 284.397 1293 284.557C1294.68 284.557 1302.49 285.177 1310.35 285.907C1318.21 286.637 1325.79 287.187 1327.19 287.167C1328.59 287.147 1329.74 287.547 1329.76 288.077C1329.78 288.607 1334.14 288.987 1339.46 288.917C1356.01 288.717 1385.72 289.917 1387.88 290.917C1390.3 292.007 1389.95 291.977 1407.88 292.917C1418.28 293.457 1422.37 294.397 1424.26 296.657C1425.65 298.317 1428.16 299.657 1429.85 299.557C1432.53 299.447 1432.54 299.257 1429.85 298.027C1422.85 294.777 1431.07 294.707 1460.64 297.787C1502.1 302.087 1519.87 304.787 1518.56 306.577C1517.02 308.687 1478.72 307.757 1473.76 305.497C1469.55 303.577 1456.55 301.117 1453.9 301.727C1452.21 302.117 1401.12 300.727 1392.16 299.997C1388.79 299.737 1377.1 299.297 1366.16 298.997C1351.1 298.617 1346.27 297.937 1346.22 296.217C1346.17 294.497 1347.89 294.137 1352.8 294.677C1364.48 295.957 1377.12 295.987 1375.35 294.677C1372.74 292.807 1337.2 291.317 1335.03 292.987C1333.91 293.857 1335.17 294.437 1338.13 294.427C1342.81 294.427 1342.76 294.507 1337.25 295.997C1333.87 296.917 1329.92 296.997 1327.93 296.237C1325.94 295.477 1317.66 294.697 1309.35 294.457C1301.04 294.217 1289.62 293.457 1284.01 292.817C1278.4 292.177 1263.7 291.557 1251.38 291.507C1239.06 291.457 1213.38 291.127 1194.38 290.797C1162.82 290.247 1148.66 290.117 1092.52 289.877C1082.43 289.827 1050.4 290.107 1021.32 290.487C988.823 290.917 967.953 290.557 967.133 289.567C966.313 288.577 963.453 288.507 960.573 289.167C957.693 289.827 953.663 289.657 951.573 288.767C948.873 287.687 965.653 286.817 1011.93 285.637V285.617ZM931.113 286.217C934.433 286.037 936.323 286.607 935.613 287.567C934.903 288.527 936.343 289.157 938.713 289.077C941.083 288.997 942.433 288.237 941.713 287.377C940.263 285.627 943.243 285.097 945.423 286.717C948.743 289.187 946.263 290.457 937.613 290.717C932.503 290.877 928.833 290.327 929.443 289.497C930.053 288.667 929.443 287.657 927.973 287.247C926.503 286.837 927.973 286.407 931.113 286.237V286.217ZM1463.06 248.777C1465.86 248.687 1467.06 249.017 1465.63 249.507C1463.97 250.016 1462.21 250.079 1460.51 249.687C1459.13 249.267 1460.27 248.857 1463.06 248.777ZM1449.83 248.927C1450.33 248.145 1451.07 247.554 1451.94 247.247C1452.43 247.247 1452.86 247.947 1452.88 248.837C1452.9 249.727 1451.96 250.477 1450.77 250.517C1449.58 250.557 1449.16 249.837 1449.83 248.927ZM1394.75 245.927C1399.43 244.917 1404.18 244.312 1408.96 244.117C1416.14 243.867 1416.5 244.027 1412.05 245.417C1408.26 246.617 1409.27 246.737 1416.14 245.917C1422.63 245.137 1424.4 245.317 1422.27 246.537C1418.76 248.537 1403.27 249.377 1404.69 247.537C1405.2 246.837 1401.81 246.537 1397.15 246.877C1389.44 247.377 1389.23 247.297 1394.75 245.907V245.927ZM1383.98 242.927C1390.05 242.707 1391.17 243.467 1386.9 244.927C1385.04 245.405 1383.06 245.254 1381.29 244.497C1379.17 243.507 1379.9 243.077 1383.98 242.937V242.927ZM1356.98 242.567C1361.98 242.407 1364.09 242.657 1361.58 243.127C1358.55 243.605 1355.48 243.699 1352.42 243.407C1349.89 243.117 1351.94 242.687 1356.98 242.577V242.567ZM1279.61 243.367C1296.38 242.877 1340.77 245.147 1332.61 246.077C1329.82 246.397 1327.02 246.637 1326.4 246.607C1325.78 246.577 1316.14 246.327 1304.99 246.047C1293.84 245.767 1280.13 245.147 1274.52 244.667C1264.99 243.877 1265.32 243.787 1279.61 243.377V243.367ZM1255.14 242.367C1257.93 242.287 1259.14 242.617 1257.7 243.107C1256.05 243.605 1254.29 243.66 1252.61 243.267C1251.2 242.827 1252.34 242.427 1255.14 242.337V242.367ZM1108.35 237.267C1111.14 237.177 1112.3 237.507 1110.91 237.997C1109.26 238.494 1107.5 238.55 1105.82 238.157C1104.41 237.687 1105.51 237.317 1108.35 237.237V237.267ZM943.203 231.107C945.993 231.027 947.203 231.357 945.763 231.847C944.113 232.344 942.361 232.399 940.683 232.007C939.263 231.567 940.403 231.167 943.203 231.077V231.107ZM609.863 146.297C613.213 146.227 614.353 146.547 612.383 147.017C610.382 147.49 608.303 147.535 606.283 147.147C604.893 146.687 606.513 146.337 609.863 146.267V146.297ZM502.233 157.687C506.671 157.528 511.113 157.816 515.493 158.547L520.613 159.687L515.533 159.917C511.099 159.937 506.668 159.65 502.273 159.057L494.093 157.977L502.233 157.687ZM501.963 166.507C500.313 167.006 498.56 167.058 496.883 166.657C495.473 166.257 496.603 165.857 499.403 165.767C502.203 165.677 503.353 166.047 501.963 166.547V166.507ZM480.023 164.807C483.383 164.737 484.523 165.067 482.553 165.537C480.549 166.011 478.466 166.055 476.443 165.667C475.053 165.307 476.663 164.927 480.023 164.847V164.807ZM457.703 204.317C461.623 204.197 463.233 204.477 461.283 204.947C458.94 205.43 456.531 205.504 454.163 205.167C452.193 204.867 453.783 204.487 457.703 204.357V204.317ZM468.703 234.827C481.573 234.437 498.523 234.397 506.373 234.727C519.073 235.257 518.063 235.417 497.253 236.137C484.383 236.587 467.423 236.627 459.573 236.237C446.663 235.627 447.513 235.497 468.743 234.867L468.703 234.827ZM434.193 166.187C436.993 166.097 438.193 166.427 436.763 166.917C435.111 167.424 433.354 167.479 431.673 167.077C430.303 166.687 431.443 166.317 434.233 166.227L434.193 166.187ZM432.373 246.727C438.563 244.947 449.293 244.607 458.823 245.897C463.823 246.577 460.153 247.067 446.653 247.517C434.223 247.977 429.153 247.687 432.413 246.767L432.373 246.727ZM273.313 203.557C276.673 203.487 277.813 203.807 275.843 204.277C273.839 204.751 271.756 204.795 269.733 204.407C268.383 204.047 270.003 203.687 273.353 203.597L273.313 203.557ZM208.313 208.257C211.653 207.257 225.313 206.507 238.813 206.527C253.343 206.527 261.593 206.057 259.153 205.297C255.533 204.187 255.723 204.007 260.753 203.747C264.073 203.577 265.953 204.147 265.253 205.107C264.553 206.067 269.173 206.597 277.893 206.307C287.593 205.987 290.823 205.407 288.653 204.377C286.153 203.187 286.433 202.877 290.133 202.737C292.653 202.647 294.733 203.247 294.753 204.077C294.753 204.897 297.293 205.007 300.363 204.307C303.433 203.607 315.103 203.127 326.303 203.237C341.093 203.387 344.173 203.737 337.543 204.497C332.543 205.087 345.353 205.227 366.063 204.817C386.773 204.407 413.813 204.417 426.153 204.817C440.973 205.307 414.753 206.327 348.833 207.817C293.983 209.057 245.833 209.987 241.963 209.887C238.093 209.787 227.503 209.777 218.543 209.887C204.763 210.037 203.183 209.797 208.313 208.297V208.257ZM392.163 245.817C390.51 246.314 388.755 246.369 387.073 245.977C385.663 245.577 386.793 245.167 389.593 245.087C392.393 245.007 393.513 245.367 392.163 245.857V245.817ZM356.983 244.237C368.753 244.407 376.983 244.787 375.333 245.087C368.243 246.357 323.263 246.527 320.393 245.297C316.963 243.867 321.243 243.747 356.983 244.277V244.237ZM324.283 240.407C324.283 238.577 332.463 238.317 341.583 239.867C346.583 240.727 345.653 241.007 336.023 241.467C329.423 241.777 324.313 241.317 324.283 240.407ZM277.983 244.557C276.883 246.047 272.733 246.107 260.523 244.807C251.723 243.877 243.993 242.717 243.343 242.237C242.113 241.317 243.473 241.307 265.713 242.117C275.513 242.517 279.003 243.207 277.983 244.597V244.557ZM108.513 210.047C100.513 209.447 115.253 208.607 150.513 207.667C186.513 206.667 203.663 206.787 201.433 207.887C197.623 209.807 126.983 211.457 108.513 210.047ZM194.273 240.757C192.823 241.277 191.063 241.267 190.373 240.757C189.683 240.247 190.873 239.827 193.023 239.827C195.443 239.827 195.933 240.197 194.323 240.757H194.273ZM169.663 139.007C173.023 138.937 174.163 139.257 172.193 139.727C170.189 140.201 168.106 140.245 166.083 139.857C164.743 139.467 166.353 139.077 169.713 139.007H169.663ZM46.0332 160.777C51.6232 160.607 53.6831 160.857 50.6031 161.327C47.2313 161.803 43.8171 161.904 40.4232 161.627C37.9633 161.317 40.5132 160.927 46.0831 160.777H46.0332ZM-12.9668 197.777C-0.506836 196.487 99.8932 193.597 103.543 194.427C106.083 195.007 118.263 196.617 130.633 197.997L153.103 200.517L113.393 200.797C91.5532 200.957 69.5632 201.017 64.5132 200.937C59.4631 200.857 42.4432 200.687 26.6732 200.537C1.51318 200.307 -21.6768 198.687 -12.9668 197.787V197.777ZM77.4631 208.837C75.8097 209.334 74.0546 209.39 72.3732 208.997C70.9631 208.587 72.1031 208.187 74.9032 208.097C77.7032 208.007 78.8531 208.357 77.4631 208.847V208.837ZM-24.6569 210.987C-34.0769 211.257 -41.3369 211.107 -40.7869 210.647C-38.7069 208.897 -20.9468 208.087 3.62317 208.647C38.1532 209.407 44.5232 210.327 15.8932 210.427C3.01318 210.457 -15.2268 210.687 -24.6569 210.997V210.987ZM25.3431 240.937C24.7332 240.487 30.5731 239.937 38.3431 239.797C52.1831 239.487 52.3431 239.517 45.3431 241.797C38.8431 243.837 28.6232 243.417 25.3032 240.947L25.3431 240.937ZM77.0432 260.857C72.3533 261.127 67.9331 260.627 67.2131 259.767C65.7831 258.027 67.7233 257.967 78.4132 259.417L85.5632 260.417L77.0432 260.857ZM96.1432 297.107C94.6832 297.617 92.9231 297.617 92.2332 297.107C91.5432 296.597 92.7332 296.167 94.8832 296.167C97.2131 296.187 97.7031 296.557 96.1031 297.117L96.1432 297.107ZM65.2832 247.737C54.3932 246.527 45.9832 244.847 46.6031 244.007C47.2231 243.167 56.4733 242.547 67.4132 242.607C79.5032 242.687 84.3431 242.327 79.9531 241.687C64.6132 239.437 103.893 239.637 149.213 242.037C180.213 243.687 200.703 244.037 212.373 243.037C221.873 242.227 231.893 242.157 234.643 242.887C243.023 245.107 220.023 246.887 195.833 245.937C184.243 245.467 154.583 246.187 129.923 247.527C92.0632 249.567 81.9531 249.597 65.2432 247.747L65.2832 247.737ZM112.513 296.577C110.86 297.076 109.103 297.128 107.423 296.727C106.013 296.327 107.153 295.927 109.943 295.837C112.733 295.747 113.893 296.077 112.513 296.577ZM132.883 297.627C130.195 298.093 127.453 298.167 124.743 297.847C122.743 297.507 124.853 297.117 129.333 296.997C133.813 296.877 135.403 297.157 132.873 297.627H132.883ZM136.323 255.827C130.733 256.107 121.133 256.957 114.993 257.697C107.203 258.637 104.433 258.517 105.813 257.287C108.283 255.097 132.053 253.087 140.363 254.357C145.513 255.157 144.953 255.377 136.313 255.827H136.323ZM154.453 303.687C150.263 303.937 146.813 303.417 146.783 302.527C146.783 301.637 146.973 301.007 147.253 301.107C147.533 301.207 150.993 301.737 154.923 302.277L162.083 303.277L154.453 303.687ZM267.453 357.527C201.323 358.887 163.733 359.067 148.323 358.117C143.323 357.797 132.723 357.477 124.873 357.407C105.623 357.207 39.7533 354.327 37.1932 353.567C36.0632 353.227 41.5532 352.907 49.3932 352.857C82.9232 352.627 138.263 352.667 154.283 352.937C163.813 353.097 193.603 353.347 220.493 353.497C247.383 353.647 283.153 354.317 299.973 354.997L330.553 356.237L267.453 357.527ZM261.953 342.907C265.873 342.787 267.483 343.067 265.533 343.537C263.19 344.019 260.781 344.094 258.413 343.757C256.463 343.397 258.053 343.007 261.973 342.887L261.953 342.907ZM300.513 338.197C312.293 338.907 324.703 340.347 328.093 341.387C333.513 343.047 330.863 343.387 306.303 344.057C290.933 344.487 278.743 344.317 279.213 343.667C279.683 343.017 278.063 342.667 275.593 342.917C273.048 343.139 270.485 342.885 268.033 342.167C266.333 341.517 256.323 340.467 245.783 339.817C235.243 339.167 224.953 337.997 222.923 337.207C220.893 336.417 215.363 335.897 210.623 336.037C194.923 336.527 203.353 335.037 225.023 333.547C237.613 332.667 242.203 332.667 236.223 333.547L226.083 335.057L235.883 334.997C241.273 334.997 247.433 334.137 249.573 333.157C252.253 331.917 253.483 331.877 253.513 333.027C253.513 333.977 258.263 334.557 264.343 334.367C270.423 334.177 276.013 334.677 277.103 335.457C278.193 336.237 288.753 337.477 300.513 338.197ZM784.173 256.907C786.553 256.907 787.043 257.277 785.433 257.847C783.823 258.417 782.223 258.357 781.533 257.847C780.863 257.327 782.063 256.907 784.203 256.907H784.173ZM813.363 287.177C868.733 285.667 879.523 285.797 879.583 287.987C879.583 289.147 880.583 289.077 882.413 287.757C884.053 286.607 889.253 285.977 895.103 286.227C900.553 286.457 909.103 286.587 914.163 286.517C920.163 286.437 922.383 286.907 920.593 287.867C918.283 289.117 918.293 289.477 920.653 290.137C922.193 290.577 920.483 291.077 916.843 291.257C913.203 291.437 910.223 291.047 910.203 290.387C910.183 289.727 898.733 289.787 884.743 290.527C867.213 291.467 859.313 291.337 859.273 290.117C859.213 287.807 853.673 287.987 852.763 290.337C852.253 291.657 849.863 291.737 843.943 290.627C839.473 289.787 827.583 289.257 817.503 289.447C807.423 289.637 792.303 289.447 783.883 289.107C773.683 288.637 783.443 287.997 813.393 287.177H813.363ZM760.613 257.887C764.533 257.767 766.143 258.047 764.193 258.517C761.85 258.999 759.442 259.074 757.073 258.737C755.133 258.397 756.723 258.017 760.643 257.887H760.613ZM648.153 248.207C656.443 247.897 662.733 248.057 662.153 248.577C660.023 250.377 642.663 251.497 637.893 250.147C634.223 249.107 636.663 248.687 648.183 248.207H648.153ZM649.033 255.607C647.38 256.104 645.625 256.16 643.943 255.767C642.533 255.367 643.673 254.957 646.463 254.877C649.253 254.797 650.453 255.117 649.063 255.607H649.033ZM638.323 254.877C640.963 256.127 640.903 256.357 637.853 256.477C635.853 256.547 634.273 255.887 634.253 254.997C634.223 253.027 634.453 253.027 638.353 254.877H638.323ZM616.783 249.617C624.623 249.357 628.083 249.537 624.483 250.007C619.751 250.515 614.988 250.669 610.233 250.467C606.033 250.247 608.983 249.857 616.813 249.617H616.783ZM618.513 256.557C616.86 257.059 615.104 257.114 613.423 256.717C612.013 256.317 613.143 255.917 615.943 255.827C618.743 255.737 619.923 256.067 618.513 256.557ZM610.183 258.037C627.743 259.307 685.023 257.547 682.693 255.807C682.043 255.327 675.473 255.127 668.083 255.357C660.693 255.587 654.623 255.097 654.593 254.267C654.634 253.818 654.848 253.404 655.19 253.111C655.531 252.817 655.974 252.669 656.423 252.697C657.957 252.595 659.484 252.398 660.993 252.107C662.473 251.817 674.523 251.467 687.763 251.327C705.553 251.137 711.633 251.587 711.063 253.057C710.493 254.527 706.213 254.997 697.213 254.897C690.023 254.807 684.613 255.067 685.213 255.477C686.743 256.567 706.913 257.477 720.733 257.107C727.353 256.927 732.113 257.327 731.303 258.007C728.193 260.627 604.713 261.487 602.573 258.897C601.813 257.977 604.793 257.687 610.213 258.037H610.183ZM604.353 289.807C721.893 288.257 766.163 287.987 767.353 288.807C768.353 289.507 585.703 296.227 573.353 295.937C569.993 295.867 530.973 296.307 486.643 296.937C417.323 297.937 404.703 297.717 396.553 295.517C386.993 292.947 379.373 293.667 382.043 296.887C383.043 298.127 379.173 298.437 368.353 297.977C355.803 297.437 352.793 297.777 350.613 299.977C347.753 302.867 341.283 303.727 339.413 301.457C338.763 300.677 324.733 300.387 308.223 300.797C291.713 301.207 270.843 300.737 261.843 299.797C252.843 298.857 224.053 297.917 197.843 297.797C171.633 297.677 149.703 297.247 149.103 296.797C147.863 295.877 186.193 294.447 187.533 295.367C189.533 296.707 284.743 295.167 349.213 292.747C450.573 288.937 477.213 288.397 499.523 289.747C510.513 290.397 557.733 290.417 604.383 289.807H604.353ZM539.163 235.487C541.543 235.487 542.033 235.857 540.423 236.417C538.813 236.977 537.213 236.927 536.523 236.417C535.853 235.897 537.053 235.477 539.193 235.487H539.163ZM549.163 235.357C552.523 235.287 553.663 235.617 551.693 236.087C549.689 236.561 547.606 236.605 545.583 236.217C544.233 235.817 545.843 235.437 549.203 235.357H549.163ZM560.513 166.297C547.633 166.127 530.393 166.197 522.213 166.457C514.033 166.717 507.823 166.247 508.423 165.457C509.743 163.657 564.913 161.777 574.283 163.217C588.423 165.377 583.093 166.577 560.513 166.297ZM619.913 164.507C618.463 165.027 616.703 165.017 616.013 164.507C615.323 163.997 616.513 163.577 618.663 163.577C621.033 163.577 621.513 163.947 619.913 164.507ZM632.253 164.097C630.6 164.596 628.843 164.648 627.163 164.247C625.753 163.847 626.883 163.447 629.683 163.357C632.483 163.267 633.643 163.597 632.253 164.097ZM540.713 153.097C541.323 152.257 539.713 151.307 537.203 151.007C532.953 150.487 533.003 150.417 537.823 150.067C540.713 149.847 543.493 149.987 544.003 150.367C544.513 150.747 566.443 150.767 592.723 150.367C638.903 149.747 706.153 150.537 708.823 151.747C709.533 152.067 719.673 152.217 731.353 152.077C743.033 151.937 756.263 152.227 760.763 152.717C769.263 153.647 756.393 153.837 634.533 154.617C536.873 155.237 539.083 155.277 540.713 153.067V153.097ZM652.423 157.027C650.77 157.524 649.015 157.579 647.333 157.187C645.923 156.777 647.053 156.377 649.853 156.287C652.653 156.197 653.803 156.507 652.423 156.997V157.027ZM656.723 163.447C651.991 163.958 647.228 164.116 642.473 163.917C638.243 163.697 641.193 163.307 649.023 163.067C656.853 162.827 660.323 162.947 656.723 163.417V163.447ZM676.003 162.797C673.66 163.278 671.252 163.356 668.883 163.027C666.883 162.677 668.503 162.297 672.423 162.177C676.343 162.057 677.953 162.307 676.003 162.767V162.797ZM1108 158.717C1101.94 158.277 1096.1 157.287 1095 156.517C1093.9 155.747 1097.07 155.027 1103.1 154.877C1109.63 154.717 1114.2 155.487 1116.1 157.077C1118.7 159.257 1117.91 159.427 1107.98 158.687L1108 158.717ZM1135.19 158.427C1127.88 158.787 1122.46 158.367 1122.43 157.427C1122.43 155.657 1127.22 155.507 1139.73 156.887C1147.25 157.687 1146.9 157.827 1135.17 158.397L1135.19 158.427ZM1171.79 157.047C1169.1 157.513 1166.36 157.587 1163.65 157.267C1161.65 156.927 1163.75 156.547 1168.23 156.417C1172.71 156.287 1174.29 156.547 1171.77 157.017L1171.79 157.047ZM1430.08 15.7668C1433.99 15.6368 1435.61 15.9268 1433.66 16.3868C1431.32 16.8684 1428.91 16.9462 1426.54 16.6168C1424.57 16.2668 1426.16 15.8868 1430.08 15.7668ZM1426.95 152.877C1429.32 152.877 1429.82 153.257 1428.21 153.817C1426.6 154.377 1424.99 154.327 1424.3 153.817C1423.61 153.307 1424.8 152.877 1426.95 152.877ZM1406.78 151.927C1410.34 151.727 1413.85 152.277 1414.57 153.137C1416.07 154.947 1412.77 155.057 1405.41 153.427C1400.51 152.347 1400.58 152.277 1406.78 151.927ZM905.013 139.997C925.183 140.177 959.093 140.177 980.373 139.997C1013.69 139.737 1053.64 139.697 1087.3 139.897C1135.43 140.197 1160.76 140.427 1166.75 140.647C1214.2 142.347 1233.42 143.427 1258.55 145.777C1274.84 147.307 1290.45 148.527 1293.25 148.487C1309.25 148.257 1354.86 150.187 1363.49 151.487C1370.43 152.324 1377.43 152.351 1384.37 151.567C1391.08 150.697 1395.15 150.777 1395.18 151.777C1395.25 154.327 1402.97 155.417 1424.32 155.857C1436.89 156.117 1444.49 155.667 1445.01 154.637C1445.53 153.607 1446.69 153.927 1447.86 155.167C1449.23 156.637 1451.77 156.937 1455.67 156.087C1459.93 155.157 1460.67 155.287 1458.45 156.567C1456.23 157.847 1457.09 158.257 1462.57 158.117C1472.05 157.887 1479.11 159.247 1477.78 161.057C1477.19 161.867 1481.51 162.377 1487.37 162.197C1499.22 161.827 1533.32 163.727 1538.12 165.027C1540.18 165.587 1539.2 166.317 1535.12 167.227L1529.05 168.587H1535.42C1538.92 168.587 1542.77 169.457 1543.96 170.537C1545.68 172.087 1543.71 172.397 1534.58 172.037C1526.04 171.697 1523.17 170.967 1523.58 169.267C1523.99 167.567 1523.45 167.437 1521.53 168.727C1519.86 169.857 1514.27 170.187 1506.03 169.647C1492.52 168.767 1486.7 167.067 1496.19 166.777C1499.37 166.677 1501.19 165.927 1500.43 165.027C1499.67 164.127 1495.29 163.567 1490.6 163.697C1478.31 164.057 1466.66 162.697 1467.89 160.987C1468.47 160.197 1465.89 159.697 1462.22 159.867C1456.61 160.137 1456.17 160.407 1459.6 161.457C1462.82 162.457 1461.96 162.787 1455.6 163.057C1449.6 163.307 1448.26 162.957 1450.47 161.737C1452.53 160.607 1449.96 160.427 1442.31 161.167C1432.82 161.781 1423.29 161.814 1413.79 161.267C1404.26 160.717 1385.9 159.887 1373.01 159.417C1360.12 158.947 1338.55 158.117 1325.09 157.587C1311.63 157.057 1294.2 156.487 1286.36 156.327C1278.52 156.167 1267.83 155.747 1262.62 155.387C1256.34 154.947 1252.62 155.387 1251.71 156.687C1250.8 157.987 1249.87 158.167 1248.81 156.877C1247.75 155.587 1229.72 155.097 1196.57 155.057C1168.64 155.057 1141.19 154.467 1135.57 153.817C1129.95 153.167 1110.23 152.817 1091.76 153.067C1073.29 153.317 1061.83 153.657 1066.32 153.847C1070.46 153.971 1074.58 154.544 1078.59 155.557C1081.61 156.48 1084.69 157.149 1087.81 157.557C1094.81 158.397 956.813 160.157 926.963 159.617C910.503 159.307 887.963 159.567 750.843 161.617C712.843 162.187 690.843 161.907 689.053 160.817C687.053 159.567 685.843 159.747 684.523 161.507C683.523 162.817 682.703 163.077 682.653 162.097C682.603 161.117 677.743 159.677 671.843 158.907C663.063 157.767 666.123 157.537 688.613 157.647C703.733 157.717 740.383 157.147 770.043 156.387C799.703 155.627 834.523 155.077 847.413 155.157C860.833 155.257 866.913 154.917 861.643 154.367L852.453 153.367L861.593 152.597C866.593 152.167 853.783 151.797 833.063 151.777C779.293 151.727 696.943 149.547 657.763 147.127L636.343 145.797L669.483 144.737C687.713 144.157 702.903 143.887 703.233 144.137C703.563 144.387 740.863 143.477 786.103 142.137C831.343 140.797 884.843 139.817 905.013 139.997Z" fill="#004318"/>
<rect x="-24" y="65" width="1536" height="326" fill="#004318"/>
</svg>
