<svg width="154" height="154" viewBox="0 0 154 154" fill="none" xmlns="http://www.w3.org/2000/svg">
<g clip-path="url(#clip0_1_155)">
<path d="M119.302 131.952C103.629 132.343 86.8023 128.188 70.4905 121.463C65.5885 119.442 60.5719 117.677 55.7257 115.535C41.0572 109.049 27.1203 112.31 13.3726 118.493C12.2409 119.001 11.2301 119.776 10.1263 120.356C3.48809 123.85 -0.173628 121.95 0.00620273 114.608C0.251144 104.64 1.1751 94.6963 1.57507 84.7312C2.07115 72.298 2.65405 59.8587 2.59204 47.4225C2.54243 36.8342 5.36701 32.0625 15.6546 29.1511C25.1918 26.4475 34.2143 22.2339 44.5732 22.0323C60.7765 21.7099 75.0513 27.4334 89.4378 33.65C97.4278 37.104 105.613 40.8122 114.071 42.2323C120.093 43.2461 126.877 41.175 133.028 39.4542C137.102 38.3132 140.64 35.2995 144.463 33.2128C150.723 29.7991 154.084 31.5199 153.994 38.5736C153.876 48.2287 152.999 57.8744 152.785 67.5325C152.425 83.7669 152.344 100.011 152.109 116.248C152.068 119.051 151.957 121.866 151.644 124.647C151.188 128.678 148.847 130.514 144.717 130.644C136.947 130.889 129.18 131.425 119.302 131.952ZM128.808 50.2874C117.904 52.3028 108.459 50.6223 99.2974 47.0288C90.3059 43.5004 81.3857 39.7952 72.4097 36.2234C58.7767 30.7944 44.8398 28.3388 30.3759 32.4873C27.1885 33.3989 23.2943 33.9632 23.2756 38.5984C23.2446 46.8117 18.2869 51.6827 11.8099 55.4808C10.9542 68.3635 10.1108 81.057 9.37599 92.1414C14.619 94.9257 19.0775 96.3643 22.268 99.223C25.8801 102.457 29.4054 103.79 34.0686 103.189C43.9624 101.914 53.1895 104.364 62.2989 108.103C71.5198 111.886 80.8214 115.581 90.3493 118.449C100.733 121.575 111.383 123.975 122.477 123.038C127.242 115.395 131.341 107.291 142.482 107.675C142.482 92.9631 142.482 78.9983 142.482 64.5932C135.4 62.8663 130.737 58.2775 128.808 50.2874ZM144.196 45.9219C143.585 45.4475 142.968 44.9731 142.354 44.4987C140.476 46.0893 137.201 47.5218 137.003 49.3046C136.606 52.8237 137.939 56.5071 143.468 57.1086C143.734 53.0469 143.964 49.4875 144.196 45.9219ZM142.057 114.443C136.51 114.754 133.518 117.036 131.496 122.7C135.598 122.331 138.677 122.055 142.057 121.755C142.057 119.011 142.057 116.977 142.057 114.443ZM9.4287 107.746C10.0736 108.19 10.7185 108.63 11.3634 109.076C13.6609 108.112 15.9553 107.151 18.2528 106.187C18.2559 105.526 18.259 104.869 18.2621 104.212C15.915 103.551 13.5617 102.482 11.2239 102.51C10.6069 102.519 10.0271 105.908 9.4287 107.746Z" fill="#210404"/>
<path d="M83.9312 55.3537C87.8968 60.4478 91.2733 64.4413 90.2656 70.2672C82.7034 73.7026 82.7034 73.7026 85.8257 81.4632C89.075 89.5215 86.2597 98.2277 78.8588 102.575C77.8852 103.148 75.8575 103.595 75.3924 103.099C72.9554 100.488 70.5804 97.7162 68.8441 94.628C68.4038 93.8498 70.0719 91.3818 71.2935 90.2594C76.1055 85.8225 76.5675 83.4475 73.1259 78.0867C68.162 70.3571 67.9573 65.0862 73.3492 60.5812C76.0745 58.2992 79.8634 57.2977 83.9312 55.3537Z" fill="#210404"/>
<path d="M74.98 53.8468C72.6949 55.5521 71.2501 56.5722 69.8641 57.6698C60.9377 64.7204 55.6203 73.1879 59.3285 85.0877C60.5377 88.9634 58.7425 90.9353 54.2716 92.2158C53.3011 90.2594 51.8904 88.2782 51.3044 86.0799C48.3806 75.1319 53.2329 60.8106 62.2182 54.3367C65.6071 51.8904 69.4425 49.2829 74.98 53.8468Z" fill="#210404"/>
<path d="M101.592 62.4415C107.393 59.2758 108.67 59.5084 110.441 63.7096C114.803 74.0623 107.61 96.1163 97.8898 101.406C96.1008 102.379 93.5987 102.051 91.4283 102.324C91.1369 101.71 90.8454 101.093 90.554 100.476C91.7415 98.9285 92.7212 97.1519 94.1444 95.8683C103.703 87.2612 106.689 74.8126 101.592 62.4415Z" fill="#210404"/>
</g>
<defs>
<clipPath id="clip0_1_155">
<rect width="154" height="154" fill="white"/>
</clipPath>
</defs>
</svg>
