<svg width="136" height="127" viewBox="0 0 136 127" fill="none" xmlns="http://www.w3.org/2000/svg">
<path d="M112.368 0.0405048C110.571 -0.132444 107.234 0.219394 104.5 1.66156C101.013 3.49909 98.6034 6.05573 100.501 7.30951C102.02 8.31357 106.148 7.23748 109.631 5.40351C113.91 3.15042 116.966 0.483365 112.368 0.0405048Z" fill="#038145"/>
<path d="M133.095 5.5483C131.141 5.51823 128.621 5.81862 126.249 6.59155C124.009 7.32173 122.263 9.30965 120.445 10.3339C117.248 12.135 114.87 13.5689 116.281 14.5235C117.291 15.2065 120.285 13.8606 123.683 12.6151C126.113 11.725 128.923 11.1515 130.992 10.0042C134.794 7.89598 136.837 5.60688 133.095 5.5483Z" fill="#038145"/>
<path d="M117.853 24.8066C116.131 24.6408 113.401 25.4114 110.673 26.5136C108.37 27.4432 105.956 28.6143 104.116 29.9001C101.131 31.9846 99.8951 33.8776 101.847 35.1674C103.34 36.1536 106.593 36.2901 110.175 34.8982C112.974 33.8107 115.818 32.0844 117.91 30.5646C121.357 28.0594 122.59 25.263 117.853 24.8066Z" fill="#038145"/>
<path d="M85.5217 28.3614C83.577 28.1738 79.9724 29.6987 77.012 31.258C73.2368 33.2479 70.301 36.1734 72.3547 37.5313C73.5499 38.32 76.3578 37.627 79.2228 36.5142C81.462 35.6439 83.9438 34.6909 85.6171 33.4751C88.3748 31.4709 89.3112 28.7271 85.5217 28.3614Z" fill="#038145"/>
<path d="M70.216 13.9948C68.2625 13.9647 65.9314 14.9965 63.5596 15.7694C61.3187 16.4996 59.2275 17.6267 57.409 18.6509C54.212 20.4517 52.4263 21.5163 53.8368 22.4709C54.8472 23.1547 57.4668 22.6236 60.8648 21.3774C63.2944 20.4873 66.2124 20.0496 68.281 18.9019C72.0828 16.794 73.9587 14.0538 70.216 13.9948Z" fill="#038145"/>
<path d="M130.093 55.0376C128.371 54.8721 125.705 56.1552 122.978 57.2566C120.674 58.1867 118.28 59.2912 116.439 60.5767C113.454 62.6608 111.706 65.0029 113.658 66.2919C115.151 67.279 118.9 67.051 122.482 65.6595C125.281 64.5727 128.031 62.6006 130.123 61.0813C133.57 58.5769 134.83 55.4935 130.093 55.0376Z" fill="#038145"/>
<path d="M119.17 84.1492C117.216 84.1191 114.613 83.2496 112.241 84.0225C110 84.7523 108.009 86.4311 106.191 87.4554C102.994 89.2565 101.22 90.9136 102.631 91.8674C103.641 92.5509 106.706 92.4982 110.104 91.2528C112.534 90.3623 115.083 89.0096 117.152 87.8626C120.953 85.7548 122.912 84.2081 119.17 84.1492Z" fill="#038145"/>
<path d="M65.8328 61.3805C64.1109 61.215 61.4901 61.1632 58.7625 62.2646C56.4588 63.1946 54.3442 64.769 52.5035 66.0552C49.5191 68.1385 47.2493 70.6469 49.2008 71.9367C50.6933 72.9221 54.8235 72.4068 58.4043 71.0153C61.2036 69.9286 63.4048 67.117 65.4965 65.5977C68.9436 63.0933 70.5697 61.8372 65.8328 61.3805Z" fill="#038145"/>
<path d="M78.561 84.8409C76.6075 84.8117 74.3897 85.1587 72.0178 85.9317C69.7774 86.6622 67.292 86.9634 65.4739 87.9877C62.2769 89.7888 60.8078 91.3461 62.2179 92.3007C63.2283 92.9834 66.1178 93.2794 69.5162 92.034C71.9458 91.1443 74.6754 90.0967 76.7444 88.9505C80.5466 86.8423 82.3033 84.8999 78.561 84.8409Z" fill="#038145"/>
<path d="M34.2105 77.3867C32.4885 77.2213 30.0249 77.7022 27.2973 78.8036C24.9935 79.7336 22.059 79.9568 20.2179 81.2423C17.2334 83.3264 16.1316 85.9843 18.0835 87.2737C19.5759 88.2608 22.9806 87.9912 26.5619 86.5989C29.3612 85.5114 31.7473 83.2056 33.8389 81.6859C37.2864 79.1815 38.947 77.8427 34.2105 77.3867Z" fill="#038145"/>
<path d="M16.9362 103.919C15.2146 103.753 12.4858 103.61 9.75818 104.711C7.45444 105.642 5.47917 107.514 3.63847 108.8C0.654015 110.884 -1.13563 112.529 0.816285 113.819C2.30871 114.805 5.89395 115.039 9.47523 113.648C12.2745 112.56 15.09 110.616 17.1816 109.097C20.6287 106.592 21.6731 104.375 16.9362 103.919Z" fill="#038145"/>
<path d="M63.5877 114.501C61.6342 114.471 59.0609 115.095 56.6879 115.868C54.4479 116.598 52.1778 117.716 50.3601 118.74C47.1635 120.541 45.692 122.492 47.1025 123.447C48.1129 124.13 51.1064 124.197 54.5045 122.951C56.9341 122.061 59.395 120.546 61.464 119.399C65.2657 117.291 67.33 114.56 63.5877 114.501Z" fill="#038145"/>
<path d="M99.8005 116.986C97.8467 116.956 95.4214 117.596 93.0488 118.369C90.8084 119.1 88.9752 120.808 87.1571 121.833C83.9601 123.635 81.5839 125.042 82.994 125.997C84.0044 126.679 86.9695 125.292 90.3675 124.048C92.7971 123.157 95.6771 122.725 97.7461 121.578C101.548 119.47 103.543 117.045 99.8005 116.986Z" fill="#038145"/>
</svg>
