<svg width="342" height="352" viewBox="0 0 342 352" fill="none" xmlns="http://www.w3.org/2000/svg">
<path d="M102.839 253.733C120.316 250.862 135.306 240.934 152.091 235.908C160.377 233.429 169.195 232.433 177.332 235.958C184.921 239.245 190.161 245.729 195.113 252.099C203.333 262.672 212.062 273.842 226.919 272.381C243.101 270.785 261.052 261.359 273.633 251.43C287.02 240.865 296.71 226.174 298.587 208.99C299.025 204.992 299.035 200.957 298.556 196.962C297.962 192 296.132 188.579 298.827 184.022C303.875 175.483 309.843 167.539 315.81 159.629C327.177 144.563 338.574 129.284 344.204 111.02C349.189 94.8484 350.033 77.3254 346.216 60.8144C338.935 29.3104 313.016 4.68441 280.683 0.538415C265.017 -1.47259 250.046 2.24239 236.487 10.1334C222.12 18.4934 209.904 30.0244 195.583 38.4524C187.837 43.0124 179.344 46.5924 170.325 47.4794C159.472 48.5474 148.79 45.8434 138.419 42.9614C121.925 38.3784 106.246 34.7254 89.0588 37.1384C58.1678 41.4754 29.9539 61.0334 13.9419 87.6434C-20.2371 144.442 11.6548 229.484 74.4798 250.799C83.5098 253.863 92.9108 254.984 102.383 253.797C104.557 253.525 104.583 250.069 102.383 250.346C66.0768 254.897 33.2588 224.825 17.3048 194.889C2.23879 166.62 -1.85613 131.695 10.6659 101.72C22.7689 72.7504 49.3709 50.1854 79.7439 42.4724C96.3249 38.2604 112.537 39.4514 128.929 43.8884C145.212 48.2994 161.634 53.8024 178.572 49.4844C208.294 41.9064 226.881 12.8704 256.607 5.27242C288.867 -2.97358 323.636 16.1864 337.394 45.6704C345.043 62.0614 346.857 80.9424 343.662 98.6634C340.421 116.632 331.731 132.138 321.127 146.769C315.911 153.965 310.402 160.944 305.209 168.155C302.73 171.598 300.318 175.088 298.055 178.676C296.511 181.122 293.3 184.815 293.019 187.741C292.882 189.164 294.05 191.384 294.38 192.857C294.916 195.247 295.228 197.673 295.384 200.118C295.69 204.9 295.246 209.742 294.22 214.418C292.209 223.569 287.807 231.837 281.755 238.941C270.252 252.449 253.666 261.056 237.017 266.46C227.36 269.594 218.001 270.417 209.772 263.632C204.847 259.571 201.106 254.201 197.209 249.208C189.325 239.108 180.269 230.536 166.704 230.17C151.977 229.772 138.037 237.633 124.874 243.204C117.448 246.348 109.907 249.096 101.925 250.407C99.7368 250.766 100.664 254.091 102.839 253.733Z" fill="#038145"/>
<path d="M158.001 266.864C169.314 278.506 194.098 281.136 193.303 298.435C192.794 309.489 180.793 321.776 184.558 331.466C185.813 334.692 188.682 336.928 191.617 338.894C202.044 345.878 215.001 350.843 229.49 349.207C240.404 347.973 252.139 342.186 259.515 333.789C277.101 330.458 294.57 332.335 312.259 328.38C333.982 323.52 355.693 308.879 366.093 289.815C376.495 270.749 373.719 248.041 357.821 237.987C342.079 228.032 316.496 230.569 304.708 216.86C297.723 208.739 297.37 196.731 293.506 186.669C283.487 160.566 247.362 150.08 214.833 161.832C182.305 173.585 156.233 204.747 151.172 234.874C149.178 246.725 150.356 258.996 158.001 266.864Z" fill="#F6E600"/>
<path d="M319.423 244.266C317.892 244.119 315.049 244.417 312.718 245.648C309.746 247.212 307.693 249.392 309.31 250.461C310.605 251.316 314.123 250.4 317.091 248.837C320.738 246.916 323.342 244.642 319.423 244.266Z" fill="white"/>
<path d="M337.087 248.959C335.422 248.934 333.275 249.188 331.253 249.848C329.344 250.471 327.856 252.164 326.307 253.036C323.583 254.572 321.557 255.794 322.758 256.606C323.619 257.191 326.17 256.043 329.067 254.982C331.137 254.221 333.533 253.733 335.296 252.755C338.535 250.959 340.276 249.009 337.087 248.959Z" fill="white"/>
<path d="M324.098 265.371C322.631 265.229 320.305 265.887 317.98 266.826C316.017 267.618 313.959 268.615 312.391 269.712C309.848 271.487 308.794 273.101 310.457 274.2C311.729 275.041 314.502 275.156 317.554 273.971C319.94 273.045 322.365 271.573 324.147 270.277C327.084 268.143 328.135 265.76 324.098 265.371Z" fill="white"/>
<path d="M296.544 268.401C294.887 268.242 291.815 269.541 289.292 270.87C286.074 272.566 283.573 275.059 285.322 276.216C286.342 276.888 288.734 276.298 291.176 275.349C293.084 274.608 295.198 273.796 296.625 272.76C298.977 271.052 299.774 268.712 296.544 268.401Z" fill="white"/>
<path d="M283.501 256.157C281.836 256.133 279.85 257.011 277.828 257.671C275.919 258.294 274.137 259.254 272.587 260.126C269.862 261.661 268.34 262.568 269.541 263.381C270.402 263.964 272.635 263.512 275.531 262.451C277.601 261.691 280.089 261.318 281.851 260.342C285.092 258.542 286.691 256.208 283.501 256.157Z" fill="white"/>
<path d="M334.53 291.135C333.062 290.994 330.791 292.088 328.466 293.027C326.503 293.82 324.463 294.76 322.894 295.857C320.351 297.632 318.861 299.628 320.523 300.728C321.796 301.568 324.992 301.374 328.044 300.188C330.43 299.26 332.773 297.583 334.557 296.287C337.492 294.152 338.567 291.524 334.53 291.135Z" fill="white"/>
<path d="M325.22 315.945C323.555 315.92 321.336 315.179 319.316 315.838C317.406 316.46 315.709 317.891 314.159 318.762C311.435 320.297 309.924 321.709 311.126 322.524C311.987 323.106 314.599 323.061 317.495 322.001C319.565 321.241 321.737 320.089 323.501 319.111C326.74 317.312 328.41 315.994 325.22 315.945Z" fill="white"/>
<path d="M350.809 313.916C349.342 313.776 346.937 314.055 344.612 314.994C342.649 315.786 340.835 317.229 339.266 318.325C336.721 320.1 335.048 322.214 336.711 323.313C337.983 324.153 340.938 322.811 343.989 321.625C346.375 320.697 349.156 320.063 350.938 318.769C353.877 316.635 354.846 314.306 350.809 313.916Z" fill="white"/>
<path d="M279.766 296.541C278.298 296.399 276.065 296.355 273.741 297.294C271.777 298.087 269.975 299.429 268.407 300.524C265.863 302.299 263.928 304.436 265.592 305.536C266.864 306.378 270.384 305.938 273.436 304.751C275.822 303.825 277.697 301.431 279.48 300.135C282.416 298.001 283.802 296.93 279.766 296.541Z" fill="white"/>
<path d="M290.614 316.533C288.947 316.509 287.057 316.804 285.037 317.463C283.128 318.086 281.01 318.344 279.461 319.216C276.735 320.751 275.483 322.078 276.685 322.891C277.546 323.474 280.01 323.725 282.906 322.664C284.976 321.905 287.302 321.013 289.066 320.036C292.304 318.24 293.802 316.585 290.614 316.533Z" fill="white"/>
<path d="M252.817 310.182C251.349 310.041 249.25 310.45 246.925 311.388C244.961 312.18 242.46 312.371 240.892 313.467C238.348 315.242 237.41 317.509 239.073 318.609C240.345 319.448 243.246 319.218 246.299 318.033C248.685 317.106 250.718 315.141 252.5 313.846C255.438 311.71 256.853 310.571 252.817 310.182Z" fill="white"/>
<path d="M238.096 332.792C236.628 332.651 234.302 332.529 231.978 333.468C230.014 334.26 228.332 335.856 226.762 336.952C224.219 338.728 222.694 340.13 224.358 341.228C225.629 342.069 228.685 342.269 231.737 341.082C234.123 340.156 236.521 338.499 238.304 337.204C241.242 335.07 242.132 333.182 238.096 332.792Z" fill="white"/>
<path d="M277.853 341.811C276.188 341.787 273.994 342.317 271.973 342.976C270.063 343.598 268.129 344.552 266.579 345.424C263.855 346.959 262.601 348.621 263.803 349.434C264.664 350.016 267.216 350.074 270.111 349.013C272.182 348.253 274.28 346.964 276.043 345.987C279.282 344.19 281.041 341.862 277.853 341.811Z" fill="white"/>
<path d="M308.714 343.929C307.047 343.904 304.981 344.45 302.959 345.107C301.051 345.73 299.487 347.186 297.938 348.06C295.214 349.595 293.189 350.793 294.391 351.608C295.252 352.191 297.779 351.009 300.675 349.948C302.745 349.188 305.199 348.821 306.963 347.843C310.202 346.044 311.903 343.98 308.714 343.929Z" fill="white"/>
</svg>
