<svg width="264" height="326" viewBox="0 0 264 326" fill="none" xmlns="http://www.w3.org/2000/svg">
<g clip-path="url(#clip0_1_132)">
<path d="M155.364 134.846C140.655 123.049 122.128 118.232 106.202 108.513C98.3443 103.711 91.283 97.4321 88.2846 88.4805C85.489 80.13 86.8941 71.3667 88.4222 62.9148C90.9498 48.879 93.5571 34.0393 81.8606 23.2843C69.085 11.5878 48.8497 4.0847 32.0328 1.18774C14.1368 -1.90477 -4.39653 0.86907 -19.3449 11.5878C-22.8286 14.0831 -26.0144 16.9699 -28.8397 20.1918C-32.3522 24.1896 -33.7573 28.0788 -39.2832 29.1797C-49.6399 31.2582 -60.1848 32.1853 -70.6936 33.0833C-90.7188 34.7925 -110.925 36.6321 -129.401 45.1709C-145.89 52.7351 -160.1 64.5044 -170.603 79.2971C-190.389 107.477 -191.461 145.529 -171.747 174.093C-162.187 187.933 -148.571 197.153 -132.703 202.281C-115.857 207.712 -98.0337 209.19 -81.1661 214.535C-72.0406 217.432 -63.1614 221.611 -56.0422 228.121C-47.4816 235.958 -42.0209 246.351 -36.9222 256.613C-28.8397 272.938 -20.5616 287.958 -6.38818 299.836C19.0254 321.223 54.5929 329.66 87.0389 323.417C156.349 310.084 201.027 224.319 173.224 159.384C169.32 150.08 163.343 141.792 155.748 135.151C153.981 133.622 151.228 136.056 153.01 137.599C182.443 163.128 181.98 210.515 169.602 244.453C157.928 276.501 133.173 304.565 100.517 315.994C68.9329 327.038 32.1487 322.019 4.43199 303.457C-10.7047 293.318 -21.2931 279.629 -29.4408 263.486C-37.5885 247.343 -44.8526 230.526 -60.3224 220.177C-87.467 202.027 -123.694 207.959 -150.853 189.809C-180.329 170.124 -189.889 128.973 -176.317 97.1062C-168.792 79.3334 -155.126 64.4574 -138.808 54.3905C-122.267 44.1787 -103.806 40.0288 -84.6714 38.0226C-75.2563 37.0304 -65.8411 36.4293 -56.426 35.4154C-51.9357 34.9301 -47.4527 34.358 -42.9986 33.5975C-39.964 33.0833 -34.7495 32.9964 -32.2364 31.1351C-31.0124 30.237 -30.0636 27.7312 -29.1511 26.4203C-27.6192 24.3043 -25.9241 22.3114 -24.0814 20.4598C-20.4805 16.8266 -16.3901 13.7137 -11.9286 11.2112C-3.26711 6.39225 6.44977 3.78517 16.3602 3.62119C35.2412 3.1287 53.8615 10.1394 69.9541 19.4893C79.304 24.9066 86.6116 31.7362 87.0969 43.0851C87.3866 49.8712 85.786 56.6574 84.6055 63.2987C82.2155 76.7261 81.8679 90.0014 91.225 101.01C101.364 112.96 117.529 118.392 131.312 124.874C139.083 128.495 146.622 132.536 153.343 137.91C155.219 139.416 157.196 136.317 155.364 134.846Z" fill="#009245"/>
<path d="M225.007 141.488C222.262 141.944 219.45 141.766 216.785 140.967C214.12 140.169 211.673 138.771 209.631 136.882L168.349 98.6271C164.796 95.3387 162.694 90.7733 162.507 85.9354C162.319 81.0974 164.062 76.3831 167.35 72.8296C170.638 69.2761 175.204 67.1745 180.042 66.9871C184.88 66.7997 189.594 68.5418 193.148 71.8302L234.429 110.077C237.977 113.367 240.074 117.929 240.26 122.764C240.446 127.598 238.706 132.308 235.421 135.86C232.678 138.85 229.011 140.832 225.007 141.488ZM178.445 71.2363C175.829 71.6649 173.385 72.8195 171.393 74.5686C169.401 76.3178 167.939 78.5912 167.175 81.1301C166.412 83.669 166.376 86.3714 167.073 88.9295C167.769 91.4876 169.17 93.7988 171.116 95.5998L212.398 133.847C213.762 135.11 215.362 136.093 217.106 136.738C218.85 137.383 220.704 137.679 222.562 137.607C224.42 137.536 226.246 137.1 227.936 136.323C229.625 135.546 231.145 134.444 232.409 133.079C233.672 131.715 234.655 130.115 235.3 128.371C235.945 126.627 236.24 124.773 236.169 122.915C236.098 121.057 235.661 119.231 234.884 117.541C234.107 115.852 233.005 114.332 231.641 113.068L190.359 74.8213C188.776 73.3601 186.879 72.2807 184.814 71.6656C182.749 71.0505 180.57 70.916 178.445 71.2725V71.2363Z" fill="#009245"/>
<path d="M226.448 140.698C224.092 141.087 221.678 140.933 219.391 140.246C217.104 139.559 215.005 138.359 213.252 136.737L183.841 109.498C182.329 108.098 181.108 106.414 180.247 104.542C179.386 102.67 178.902 100.647 178.823 98.5879C178.664 94.4297 180.163 90.3785 182.99 87.3254C185.817 84.2722 189.742 82.4673 193.9 82.3078C198.058 82.1482 202.109 83.6469 205.163 86.4744L234.567 113.706C236.079 115.105 237.3 116.789 238.161 118.66C239.022 120.532 239.506 122.555 239.586 124.613C239.665 126.672 239.338 128.726 238.624 130.658C237.909 132.591 236.821 134.363 235.421 135.875C233.055 138.443 229.895 140.142 226.448 140.698ZM192.612 86.5396C190.467 86.8887 188.463 87.834 186.83 89.2675C185.196 90.701 183.999 92.5649 183.374 94.6464C182.75 96.7279 182.723 98.9431 183.297 101.039C183.872 103.135 185.024 105.027 186.622 106.5L216.026 133.738C218.287 135.824 221.282 136.929 224.355 136.81C227.428 136.692 230.329 135.361 232.423 133.108C233.46 131.991 234.267 130.68 234.796 129.251C235.326 127.822 235.569 126.302 235.51 124.779C235.452 123.256 235.093 121.759 234.455 120.375C233.817 118.991 232.913 117.746 231.793 116.711L202.389 89.4727C201.273 88.4343 199.962 87.6276 198.533 87.0992C197.103 86.5709 195.583 86.3314 194.06 86.3947C193.574 86.4103 193.091 86.4587 192.612 86.5396Z" fill="#009245"/>
<path d="M257.619 53.7966C257.072 54.2207 256.499 54.6101 255.903 54.9627C254.04 56.0783 251.973 56.8123 249.823 57.1219C247.673 57.4315 245.483 57.3105 243.381 56.766L193.973 44.1787C189.725 43.0954 186.082 40.3689 183.844 36.5992C181.606 32.8295 180.958 28.3253 182.041 24.0774C183.125 19.8295 185.851 16.186 189.621 13.9483C193.391 11.7107 197.895 11.0622 202.143 12.1455L251.55 24.7401C255.795 25.8306 259.434 28.5588 261.671 32.3271C263.908 36.0953 264.561 40.5966 263.486 44.845C262.585 48.4004 260.52 51.5517 257.619 53.7966ZM190.193 18.0264C188.304 19.5004 186.867 21.4738 186.042 23.7229C185.218 25.972 185.04 28.4071 185.529 30.7522C186.017 33.0973 187.152 35.2588 188.806 36.9917C190.46 38.7247 192.566 39.9599 194.886 40.5575L244.293 53.1521C247.559 53.9033 250.989 53.3475 253.85 51.6033C256.712 49.8592 258.777 47.0651 259.606 43.8182C260.434 40.5713 259.96 37.1292 258.284 34.2273C256.608 31.3255 253.864 29.1942 250.638 28.2889L201.223 15.7233C199.33 15.2416 197.353 15.1987 195.441 15.5979C193.529 15.997 191.734 16.8277 190.193 18.0264Z" fill="#009245"/>
<path d="M258.423 52.5437C256.715 53.8735 254.726 54.7946 252.607 55.2365C250.487 55.6784 248.295 55.6293 246.198 55.093L211.015 46.1269C209.154 45.7169 207.394 44.9369 205.841 43.8331C204.287 42.7293 202.972 41.3243 201.972 39.7017C200.973 38.0791 200.31 36.2721 200.023 34.3882C199.737 32.5042 199.832 30.5819 200.303 28.7355C200.774 26.889 201.612 25.1563 202.767 23.6403C203.922 22.1243 205.369 20.856 207.024 19.9109C208.679 18.9659 210.507 18.3633 212.399 18.1391C214.292 17.9148 216.21 18.0735 218.04 18.6057L253.223 27.5211C256.874 28.4564 260.005 30.8018 261.929 34.0428C263.853 37.2838 264.413 41.1556 263.486 44.8088C262.712 47.8811 260.929 50.6048 258.423 52.5437ZM208.074 24.0593C206.523 25.2675 205.342 26.8864 204.665 28.7321C203.987 30.5777 203.841 32.5763 204.242 34.501C204.644 36.4256 205.576 38.1993 206.935 39.6206C208.293 41.0419 210.023 42.054 211.927 42.5419L247.096 51.508C249.797 52.1995 252.662 51.7898 255.06 50.3691C257.459 48.9484 259.195 46.6331 259.886 43.9324C260.578 41.2318 260.168 38.367 258.747 35.9684C257.327 33.5698 255.011 31.8338 252.311 31.1423L217.12 22.169C215.782 21.8236 214.389 21.7475 213.021 21.9452C211.653 22.1429 210.339 22.6104 209.153 23.3205C208.778 23.5435 208.418 23.7902 208.074 24.0593Z" fill="#009245"/>
</g>
<defs>
<clipPath id="clip0_1_132">
<rect width="450" height="325.445" fill="white" transform="translate(-186)"/>
</clipPath>
</defs>
</svg>
