<svg width="203" height="154" viewBox="0 0 203 154" fill="none" xmlns="http://www.w3.org/2000/svg">
<path d="M167.102 36.5778C157.395 34.4844 147.533 36.5861 137.743 35.76C132.911 35.3517 128.105 34.0576 124.584 30.5484C121.3 27.2742 119.898 22.8152 118.623 18.4737C116.507 11.269 114.247 3.64786 106.196 1.35856C97.4253 -1.13418 86.1224 0.095341 77.5191 2.69048C68.3646 5.45332 60.2905 11.1268 55.7793 19.7067C54.7305 21.7025 53.8962 23.8062 53.325 25.989C52.6151 28.6996 52.8673 30.8618 50.5251 32.6858C46.1368 36.1043 41.3919 39.0225 36.6531 41.9221C27.6265 47.4478 18.5421 53.0772 11.8522 61.4496C5.92931 68.8632 1.88887 77.8328 0.487518 87.2312C-2.18529 105.164 6.27779 123.337 22.294 132.145C30.0554 136.411 38.6291 137.549 47.3251 136.219C56.538 134.808 65.2808 131.302 74.4848 129.846C79.4627 129.059 84.6296 128.937 89.5168 130.326C95.3992 131.999 100.416 135.605 105.235 139.238C112.898 145.018 120.329 150.144 129.792 152.418C146.8 156.501 165.539 152.093 179.36 141.5C208.86 118.889 209.695 67.9663 181.295 43.9371C177.213 40.4843 172.539 37.9675 167.353 36.6411C166.164 36.3366 165.44 38.1331 166.644 38.441C186.521 43.5241 197.465 65.9581 199.639 84.8539C201.692 102.698 196.653 121.762 183.96 134.828C171.694 147.457 153.179 153.764 135.748 151.547C126.231 150.337 118.018 146.387 110.378 140.704C102.788 135.057 95.3511 128.813 85.6262 127.586C68.5625 125.433 52.8989 136.764 35.8298 134.621C17.3044 132.296 3.09983 115.155 1.97889 96.9465C1.35622 86.8223 4.28811 76.5991 9.59661 68.0096C14.98 59.3004 22.6988 52.9954 31.2375 47.5398C35.4374 44.8574 39.7452 42.3489 43.9362 39.6527C45.9375 38.3661 47.9121 37.0397 49.8302 35.6328C51.1381 34.6741 53.5724 33.4074 54.3209 31.9367C54.6838 31.2247 54.5312 29.8254 54.6611 28.989C54.8735 27.6309 55.2082 26.3024 55.6295 24.9945C56.4514 22.4358 57.6782 20.0008 59.1737 17.7727C62.1035 13.4106 66.1001 10.001 70.7151 7.53782C79.4923 2.85475 89.9147 1.77092 99.7104 2.3716C105.394 2.72004 110.444 4.21417 113.345 9.445C115.081 12.5748 115.929 16.1459 116.936 19.5513C118.975 26.4392 121.938 32.7738 128.94 35.7517C136.542 38.9854 145.429 37.7469 153.441 37.5448C157.962 37.4307 162.461 37.5448 166.895 38.5022C168.11 38.7641 168.31 36.839 167.102 36.5778Z" fill="#038145"/>
<path d="M144.151 69.049C143.13 69.1981 141.323 69.8469 140 71.0201C138.312 72.517 137.321 74.2661 138.545 74.7039C139.527 75.0551 141.675 73.8956 143.36 72.4022C145.432 70.5679 146.768 68.6689 144.151 69.049Z" fill="white"/>
<path d="M156.421 69.2902C155.331 69.5383 153.972 70.0489 152.758 70.8008C151.613 71.5114 150.913 72.8544 150.042 73.6708C148.51 75.1072 147.384 76.2282 148.298 76.5663C148.952 76.8082 150.432 75.6536 152.151 74.4976C153.381 73.6736 154.865 72.9712 155.859 72.0523C157.685 70.3637 158.509 68.8132 156.421 69.2902Z" fill="white"/>
<path d="M150.571 82.0673C149.591 82.2089 148.18 83.0089 146.813 83.993C145.659 84.8233 144.477 85.8026 143.628 86.7676C142.253 88.3311 141.824 89.5524 143.085 90.0032C144.048 90.3482 145.875 89.9819 147.676 88.7208C149.084 87.7345 150.43 86.3882 151.386 85.2597C152.96 83.3986 153.265 81.6762 150.571 82.0673Z" fill="white"/>
<path d="M133.086 88.4425C131.98 88.6026 130.183 89.9415 128.75 91.2102C126.923 92.8301 125.689 94.8548 127.016 95.3297C127.787 95.6059 129.254 94.839 130.695 93.83C131.821 93.0417 133.071 92.1744 133.835 91.27C135.094 89.782 135.241 88.1305 133.086 88.4425Z" fill="white"/>
<path d="M122.624 82.5402C121.535 82.789 120.379 83.6797 119.166 84.4329C118.021 85.1429 117.011 86.0542 116.14 86.8714C114.608 88.3078 113.761 89.1415 114.675 89.481C115.329 89.7229 116.713 89.0713 118.432 87.9167C119.66 87.0913 121.223 86.4508 122.217 85.5319C124.041 83.8426 124.712 82.0646 122.624 82.5402Z" fill="white"/>
<path d="M176.42 75.3128C175.33 75.5616 173.842 75.7382 172.629 76.4914C171.483 77.2014 170.492 78.277 169.62 79.0942C168.088 80.5306 167.492 81.6281 168.406 81.967C169.06 82.2096 170.563 81.7415 172.283 80.5862C173.512 79.7615 174.987 78.9759 175.98 78.0564C177.807 76.3677 178.508 74.8372 176.42 75.3128Z" fill="white"/>
<path d="M190.63 87.7084C189.54 87.9565 188.28 88.5902 187.066 89.3434C185.921 90.0534 184.607 90.6788 183.736 91.496C182.204 92.9324 181.709 94.2354 182.622 94.5743C183.277 94.8176 184.765 94.2169 186.484 93.0623C187.713 92.2376 188.998 91.2651 189.992 90.3462C191.818 88.6555 192.718 87.2321 190.63 87.7084Z" fill="white"/>
<path d="M161.487 97.2024C160.507 97.3446 159.201 98.4209 157.835 99.4044C156.68 100.235 155.501 101.174 154.652 102.14C153.277 103.703 152.624 105.243 153.884 105.694C154.848 106.039 156.902 105.403 158.702 104.142C160.111 103.156 161.371 101.687 162.326 100.558C163.9 98.6972 164.182 96.8127 161.487 97.2024Z" fill="white"/>
<path d="M159.377 114.868C158.287 115.117 156.722 114.989 155.509 115.742C154.363 116.452 153.485 117.656 152.613 118.472C151.081 119.909 150.322 121.071 151.235 121.41C151.89 121.651 153.586 121.205 155.305 120.05C156.535 119.225 157.767 118.126 158.761 117.207C160.587 115.518 161.465 114.392 159.377 114.868Z" fill="white"/>
<path d="M175.741 109.461C174.762 109.602 173.237 110.169 171.872 111.153C170.718 111.984 169.765 113.214 168.917 114.178C167.541 115.742 166.787 117.388 168.047 117.839C169.011 118.184 170.724 116.836 172.525 115.576C173.932 114.591 175.644 113.733 176.601 112.604C178.176 110.743 178.436 109.07 175.741 109.461Z" fill="white"/>
<path d="M126.636 109.472C125.657 109.615 124.193 109.943 122.827 110.925C121.673 111.755 120.713 112.919 119.864 113.885C118.489 115.447 117.568 117.152 118.829 117.602C119.792 117.947 122.018 117.099 123.818 115.839C125.227 114.852 126.067 112.99 127.023 111.863C128.597 110.001 129.331 109.082 126.636 109.472Z" fill="white"/>
<path d="M136.903 120.779C135.813 121.028 134.627 121.523 133.414 122.276C132.269 122.987 130.928 123.493 130.057 124.31C128.526 125.746 127.921 126.811 128.835 127.15C129.489 127.392 131.136 127.163 132.854 126.008C134.084 125.183 135.458 124.23 136.452 123.311C138.278 121.621 138.99 120.303 136.903 120.779Z" fill="white"/>
<path d="M111.239 122.671C110.26 122.814 108.956 123.417 107.589 124.401C106.435 125.231 104.835 125.754 103.987 126.719C102.612 128.282 102.362 129.91 103.622 130.361C104.586 130.706 106.441 130.094 108.243 128.833C109.65 127.847 110.663 126.241 111.618 125.112C113.193 123.251 113.934 122.281 111.239 122.671Z" fill="white"/>
<path d="M105.25 139.768C104.27 139.91 102.734 140.202 101.369 141.186C100.215 142.016 99.3722 143.326 98.5241 144.291C97.1489 145.854 96.3777 147.013 97.6381 147.463C98.6017 147.808 100.626 147.452 102.428 146.191C103.835 145.204 105.135 143.742 106.091 142.613C107.665 140.751 107.944 139.377 105.25 139.768Z" fill="white"/>
<path d="M132.617 139.301C131.527 139.549 130.182 140.247 128.968 141C127.823 141.71 126.713 142.64 125.842 143.457C124.31 144.893 123.759 146.178 124.672 146.515C125.326 146.758 127 146.388 128.719 145.234C129.948 144.408 131.11 143.232 132.104 142.312C133.929 140.624 134.705 138.824 132.617 139.301Z" fill="white"/>
<path d="M153.08 135.754C151.991 136.003 150.73 136.689 149.516 137.441C148.371 138.152 147.584 139.351 146.714 140.169C145.182 141.605 144.052 142.709 144.967 143.048C145.62 143.292 147.08 142.118 148.799 140.962C150.028 140.138 151.57 139.505 152.564 138.586C154.39 136.897 155.168 135.278 153.08 135.754Z" fill="white"/>
</svg>
