<svg width="65" height="65" viewBox="0 0 65 65" fill="none" xmlns="http://www.w3.org/2000/svg">
<path d="M14.066 27.0985L50.206 27.95L60.4045 28.197C62.1985 28.236 62.205 31.0245 60.4045 30.9855L24.258 30.1275L14.066 29.9C12.272 29.8415 12.2655 27.053 14.066 27.0985ZM3.939 26.962C10.322 23.959 16.5923 20.7328 22.75 17.2835C24.31 16.406 25.7205 18.85 24.154 19.695C18.577 22.8237 12.909 25.7617 7.15 28.509C12.9617 33.6918 18.1925 39.4914 22.75 45.8055C22.9334 46.1261 22.9837 46.5059 22.8902 46.8632C22.7966 47.2206 22.5665 47.5269 22.2495 47.7165C21.9287 47.8946 21.5516 47.9419 21.1968 47.8487C20.8419 47.7554 20.5368 47.5288 20.345 47.216C15.5141 40.5566 9.911 34.4932 3.653 29.1525C3.50401 29.0006 3.3915 28.8168 3.32398 28.615C3.25645 28.4132 3.23569 28.1987 3.26323 27.9877C3.29078 27.7767 3.36593 27.5747 3.483 27.397C3.60007 27.2193 3.756 27.0706 3.939 26.962Z" fill="#2DAB5A"/>
</svg>
