<svg width="582" height="393" viewBox="0 0 582 393" fill="none" xmlns="http://www.w3.org/2000/svg">
<path d="M-21.6773 266.919C-26.8264 265.426 -33.1156 263.269 -35.653 262.124C-45.3607 257.744 -58.1344 253.237 -79.9897 246.481C-92.4472 242.63 -102.881 239.233 -103.177 238.931C-103.472 238.63 -110.688 236.265 -119.212 233.677C-134.238 229.114 -147.852 224.607 -157.542 220.984C-160.133 220.017 -165.749 218.032 -170.024 216.576C-174.3 215.119 -181.844 212.42 -186.79 210.576C-191.735 208.734 -199.882 206.026 -204.895 204.56C-209.907 203.093 -214.233 201.659 -214.508 201.374C-214.784 201.09 -221.927 198.475 -230.383 195.566C-238.838 192.655 -247.274 189.5 -249.128 188.555C-253.089 186.538 -275.133 178.995 -274.643 179.826C-274.257 180.479 -255.123 188.079 -235.108 195.531C-227.572 198.336 -218.161 201.958 -214.196 203.579C-202.416 208.396 -186.212 214.22 -159.627 223.199C-145.839 227.852 -131.491 232.866 -127.744 234.339C-122.262 236.492 -122.959 236.337 -131.312 233.546C-137.024 231.64 -143.848 229.397 -146.477 228.563C-181.235 217.544 -202.894 210.071 -216.789 204.304C-221.912 202.178 -229.589 199.206 -233.849 197.699C-250.803 191.705 -295.572 173.36 -297.101 171.78C-298.586 170.244 -314.869 163.711 -316.046 164.179C-316.864 164.504 -318.482 164.058 -320.571 162.931C-322.359 161.968 -326.523 160.185 -329.824 158.971C-333.125 157.757 -337.852 155.657 -340.328 154.305C-345.358 151.557 -355.757 147.195 -366.123 143.483C-369.905 142.13 -375.86 139.842 -379.355 138.4C-382.85 136.957 -391.657 133.463 -398.925 130.636C-406.194 127.81 -414.753 124.205 -417.946 122.625C-421.139 121.045 -425.85 118.893 -428.414 117.842C-430.979 116.791 -434.301 115.003 -435.795 113.871C-437.29 112.738 -442.073 110.235 -446.424 108.31C-455.186 104.432 -463.005 99.8045 -462.674 98.6911C-462.482 98.0423 -460.906 98.7845 -457.763 101.006C-457.082 101.486 -456.699 101.307 -456.742 100.529C-456.782 99.8154 -459.575 97.823 -463.276 95.8698C-466.83 93.9936 -469.853 92.2658 -469.992 92.0321C-470.131 91.7991 -468.396 92.1984 -466.136 92.92C-461.065 94.5399 -459.561 93.2341 -463.216 90.3847C-464.633 89.2782 -465.585 88.3943 -465.33 88.4205C-465.077 88.4459 -461.68 89.2617 -457.784 90.2314C-453.563 91.283 -448.742 91.8781 -445.857 91.7043C-442.597 91.507 -438.422 92.1015 -433.082 93.5228C-428.718 94.685 -424.048 95.533 -422.703 95.4066L-420.258 95.1784L-422.605 93.4753C-423.896 92.5386 -426.123 91.406 -427.552 90.9606C-428.983 90.5132 -431.137 89.1208 -432.34 87.8644C-434.407 85.7057 -434.413 85.6356 -432.445 86.5758C-418.883 93.0582 -415.659 94.1502 -414.614 92.6142C-413.454 90.9091 -417.885 87.3888 -424.038 85.1298C-427.464 83.8714 -430.451 82.5374 -430.674 82.1635C-431.141 81.3807 -411.44 87.4706 -405.996 89.7916C-402.022 91.4857 -399.545 91.0871 -398.817 88.6349C-398.576 87.8219 -399.015 86.7799 -399.793 86.3181C-401.04 85.5772 -429.188 77.0997 -441.699 73.6963C-444.239 73.0056 -446.231 72.1472 -446.125 71.7878C-445.635 70.1376 -438.866 70.282 -432.514 72.0778C-425.672 74.0132 -423.614 73.5259 -427.365 70.8606C-430.38 68.7164 -440.642 66.0648 -445.938 66.0607C-454.988 66.0532 -453.551 64.7453 -444.184 64.4656C-436.338 64.2298 -431.271 65.7487 -423.445 70.6813C-415.511 75.6805 -405.784 80.523 -400.897 81.9065C-398.227 82.6618 -396.561 82.5972 -394.884 81.6721C-393.608 80.9691 -392.485 80.1244 -392.387 79.7959C-392.29 79.468 -390.947 79.2935 -389.403 79.4076C-386.557 79.6199 -379.096 76.6743 -378.647 75.163C-378.414 74.3781 -390.389 68.5576 -392.361 68.4971C-392.879 68.482 -395.745 67.458 -398.73 66.2236C-404.472 63.8491 -409.02 60.8374 -409.576 59.0389C-409.761 58.4437 -411.175 56.9832 -412.72 55.7943L-415.529 53.6314L-412.693 53.6926C-410.76 53.7352 -409.129 54.3544 -407.565 55.6403C-406.304 56.6788 -401.852 58.6787 -397.671 60.0856C-393.49 61.4931 -389.891 62.9426 -389.671 63.3089C-388.911 64.5838 -383.288 65.6594 -381.671 64.8401C-380.246 64.1171 -380.462 63.7728 -383.394 62.0835C-385.238 61.0216 -386.548 60.0533 -386.305 59.9289C-385.656 59.6004 -376.367 64.8401 -374.649 66.5054C-373.837 67.2923 -372.412 68.2586 -371.483 68.6531C-370.553 69.0469 -367.935 70.1823 -365.664 71.1768C-362.624 72.5067 -361.626 72.6881 -361.881 71.8627C-362.073 71.2455 -362.106 70.7754 -361.958 70.818C-361.339 70.994 -349.836 76.8695 -346.583 78.6681C-343.723 80.2502 -342.643 80.4832 -340.797 79.9134C-339.412 79.4852 -336.577 79.7657 -333.512 80.6323C-330.751 81.413 -328.141 81.7539 -327.71 81.3903C-326.774 80.6007 -320.119 82.4398 -315.185 84.8528C-313.224 85.8109 -311.561 86.2645 -311.445 85.8707C-311.33 85.4837 -309.435 85.6741 -307.235 86.2968C-302.974 87.5016 -302.012 86.0858 -306.168 84.727C-307.636 84.2473 -307.891 83.9875 -306.854 84.0267C-304.962 84.0968 -304.244 82.7889 -305.819 82.1381C-306.401 81.8962 -307.83 81.3045 -308.994 80.8206C-310.158 80.3375 -316.975 78.0701 -324.142 75.7829C-342.112 70.0476 -354.247 65.2291 -359.666 61.6773C-362.186 60.0272 -366.601 58.0093 -369.477 57.1956C-373.736 55.9915 -374.788 55.3771 -375.144 53.896C-375.384 52.8953 -376.696 51.4981 -378.059 50.7902C-380.753 49.393 -380.924 48.7009 -378.834 47.6418C-377.772 47.1037 -377.771 46.4625 -378.83 44.6886C-380.155 42.4715 -380.274 42.4295 -384.401 42.7553C-386.722 42.9381 -389.482 43.468 -390.536 43.9347C-391.874 44.5257 -392.361 44.4756 -392.15 43.7663C-391.613 41.956 -385.494 39.9719 -380.869 40.1073C-375.435 40.2667 -333.083 51.9826 -328.905 54.4816C-327.421 55.3695 -321.53 57.8705 -315.813 60.0375C-310.097 62.2058 -304.274 64.447 -302.875 65.0195C-301.475 65.5913 -292.894 69.1218 -283.805 72.8661C-274.716 76.609 -266.701 79.8859 -265.994 80.147C-265.287 80.4082 -260.717 82.314 -255.838 84.3807C-250.959 86.448 -236.881 91.6458 -224.552 95.931C-212.224 100.216 -195.44 106.392 -187.254 109.654C-168.49 117.131 -150.261 123.678 -133.539 128.947C-126.365 131.208 -119.02 133.697 -117.218 134.475C-114.91 135.473 -114.042 135.569 -114.28 134.802C-114.515 134.042 -113.092 134.143 -109.593 135.132C-97.4231 138.575 -110.807 133.112 -134.286 125.053C-139.033 123.425 -144.645 121.425 -146.757 120.61C-148.869 119.794 -156.212 117.138 -163.074 114.704C-169.936 112.271 -178.529 109.017 -182.17 107.473C-185.81 105.929 -190.99 103.917 -193.682 103.002C-198.513 101.36 -210.928 96.6258 -225.861 90.7297C-233.583 87.6796 -253.625 80.7704 -275.762 73.5252C-282.36 71.3665 -288.55 69.0359 -289.519 68.3473C-292.165 66.4669 -300.914 61.7879 -308.874 57.9983C-312.77 56.1434 -316.223 53.9853 -316.547 53.2012C-316.871 52.4177 -319.043 51.0844 -321.374 50.2397L-325.612 48.703L-321.4 49.7346C-317.867 50.6012 -317.113 50.5105 -316.716 49.1737C-316.36 47.9758 -317.019 47.2061 -319.364 46.0803C-323.188 44.2439 -328.193 40.3849 -330.005 37.8743C-331.352 36.007 -331.352 36.007 -329.768 37.0757C-323.007 41.6357 -319.737 43.2295 -310.603 46.4226C-304.174 48.6693 -299.353 50.8143 -297.975 52.0417C-296.668 53.206 -295.135 53.9084 -294.265 53.74C-292.857 53.4685 -275.206 59.9687 -263.426 65.0972C-254.413 69.0208 -243.637 72.4276 -244.005 71.2366C-244.22 70.5418 -243.834 70.5692 -242.842 71.3211C-242.025 71.941 -235.278 74.3183 -227.848 76.6042C-220.419 78.8901 -213.815 81.1533 -213.173 81.633C-212.531 82.1141 -208.345 83.5477 -203.871 84.8192C-199.398 86.094 -195.637 87.4555 -195.514 87.8514C-195.392 88.2473 -193.173 89.0287 -190.584 89.5874C-187.871 90.1723 -186.45 90.7469 -187.231 90.9524C-188.626 91.3111 -184.949 92.8836 -167.975 99.1804C-163.027 101.016 -154.755 104.145 -149.591 106.136C-138.58 110.38 -115.432 118.567 -106.125 121.509C-93.1544 125.61 -74.6241 131.85 -74.2042 132.257C-73.9678 132.486 -65.9494 135.15 -56.3853 138.172C-46.8212 141.196 -34.9005 145.013 -29.8951 146.654C10.1063 159.769 22.9975 163.706 51.2025 171.424C68.8599 176.257 83.619 180.245 83.9991 180.288C84.3792 180.33 84.8451 179.841 85.0369 179.196C85.4176 177.916 88.7763 177.565 89.8677 178.694C90.4368 179.281 112.056 185.808 119.581 187.664C121.519 188.14 121.659 188.022 120.815 186.61C120.142 185.483 117.627 184.325 112.199 182.644C107.984 181.34 104.436 179.951 104.313 179.561C104.193 179.169 103.011 178.985 101.689 179.149C99.8641 179.377 99.0359 179.108 98.2497 178.036C97.6806 177.256 97.1198 176.939 97.0037 177.332C96.7274 178.252 59.9301 167.848 58.1645 166.355C57.2972 165.618 56.1913 165.461 55.0223 165.912C53.4945 166.499 53.3824 166.464 54.291 165.68C55.1899 164.904 53.9391 164.453 46.4932 162.869C40.8603 161.669 36.8274 160.412 35.435 159.424C33.8172 158.272 33.3333 158.153 33.5862 158.968C33.8392 159.785 29.9348 158.759 18.4168 154.984C9.88638 152.188 -3.26324 148.114 -10.804 145.931C-18.3441 143.748 -24.2505 141.74 -23.9288 141.469C-23.6065 141.197 -24.3357 140.99 -25.5487 141.01C-26.7611 141.03 -32.8366 139.427 -39.0496 137.447C-48.9717 134.286 -49.582 134.005 -44.0714 135.142C-39.8612 136.011 -44.8034 134.218 -59.098 129.693C-70.8132 125.986 -87.9992 120.441 -97.289 117.374C-121.991 109.219 -137.435 104.336 -163.334 96.4877C-185.661 89.7215 -204.446 83.1223 -227.531 73.9355C-233.613 71.5156 -240.7 68.7191 -243.282 67.7219C-245.862 66.726 -249.505 65.2999 -251.376 64.5549C-258.956 61.535 -273.703 56.0018 -275.601 55.4637C-276.715 55.1475 -277.322 54.6328 -276.95 54.318C-276.307 53.775 -285.062 49.8734 -293.307 47.0288C-294.284 46.6913 -294.736 46.1223 -294.311 45.7635C-293.832 45.358 -294.611 45.0116 -296.362 44.8522C-298.077 44.6941 -299.085 44.2556 -298.931 43.7347C-298.791 43.2618 -299.308 42.4825 -300.081 42C-300.852 41.5182 -299.602 41.844 -297.3 42.723C-294.998 43.6027 -292.766 44.7999 -292.339 45.3834C-291.913 45.9676 -290.791 46.6611 -289.848 46.925C-288.905 47.1916 -284.154 49.1414 -279.291 51.2637C-274.429 53.3854 -264.299 57.4671 -256.781 60.3351C-249.263 63.2031 -238.335 67.4799 -232.497 69.84C-226.659 72.2008 -213.768 77.0729 -203.85 80.6667C-193.932 84.2618 -184.669 87.6604 -183.265 88.2177C-181.862 88.7772 -172.475 91.7551 -162.405 94.8362C-152.334 97.9186 -145.732 99.7941 -147.733 99.0072C-150.083 98.0821 -151.067 97.3179 -150.512 96.8478C-150.013 96.4279 -150.124 96.2396 -150.776 96.4031C-151.394 96.5564 -156.216 95.1928 -161.493 93.3716C-166.97 91.4816 -170.51 89.9167 -169.743 89.7263C-169.004 89.5407 -171.327 88.8039 -174.906 88.0864C-178.997 87.2679 -181.324 86.4816 -181.171 85.971C-181.039 85.5236 -185.637 83.3505 -191.389 81.1429C-197.142 78.9354 -202.685 76.7038 -203.708 76.1849C-204.95 75.5547 -205.682 75.6262 -205.912 76.4021C-206.117 77.0887 -206.848 77.255 -207.698 76.809C-208.489 76.3925 -216.234 73.4297 -224.908 70.2249C-233.581 67.0202 -240.957 64.1096 -241.297 63.7591C-242.322 62.6986 -241.597 61.7 -239.848 61.7653C-238.942 61.8003 -240.377 61.2251 -243.036 60.4904C-245.695 59.755 -246.829 59.6127 -245.558 60.1749C-244.286 60.7364 -243.352 61.5563 -243.483 61.9948C-243.614 62.4367 -244.944 62.2491 -246.451 61.5797C-247.952 60.9117 -252.077 59.3062 -255.616 58.0134C-263.621 55.087 -289.769 44.4439 -290.831 43.6804C-292.327 42.6034 -283.681 45.301 -280.235 46.9869C-277.275 48.4349 -276.648 48.4879 -275.929 47.3442C-275.206 46.1917 -273.84 46.3195 -266.137 48.2555C-261.215 49.4933 -257.281 50.8211 -257.397 51.2081C-257.512 51.5936 -256.135 52.061 -254.335 52.2479C-252.535 52.4328 -246.554 54.2692 -241.042 56.3269C-235.531 58.3853 -223.298 62.8835 -213.857 66.324C-191.064 74.629 -163.827 85.1539 -157.259 88.1944C-154.346 89.5435 -149.982 90.9531 -147.56 91.3256C-145.138 91.6987 -143.035 92.3977 -142.886 92.8788C-142.737 93.3599 -139.145 94.7186 -134.903 95.8987C-130.649 97.0821 -126.464 98.7103 -125.568 99.5309C-124.673 100.349 -122.231 101.475 -120.139 102.033C-117.064 102.852 -116.628 102.803 -117.86 101.776C-119.045 100.789 -118.754 100.787 -116.55 101.767C-114.99 102.46 -112.877 103.271 -111.853 103.568C-110.465 103.97 -110.351 104.201 -111.401 104.475C-112.251 104.696 -107.186 106.687 -98.6258 109.496C-90.8246 112.056 -83.092 114.649 -81.4419 115.26C-79.7924 115.869 -72.585 118.262 -65.4257 120.577C-58.2664 122.893 -45.3841 127.073 -36.798 129.867C-18.285 135.895 11.4726 144.307 20.0167 145.929C23.4332 146.579 25.9981 147.406 25.8751 147.817C25.7569 148.219 23.5452 148.097 20.9631 147.545C18.381 146.992 30.8798 150.666 48.7379 155.705C66.5959 160.746 77.4343 163.672 72.822 162.209C65.3101 159.826 64.5231 159.41 65.2689 158.223C66.007 157.049 65.3747 156.688 59.6957 155.043C56.1735 154.022 43.3448 150.072 31.1891 146.265C11.0753 139.964 9.10214 139.474 9.2403 140.807C9.44168 142.749 8.50082 142.41 7.62799 140.224C7.10428 138.914 5.15445 137.836 -0.224121 135.886L-7.37933 133.291L1.12909 135.867C5.80875 137.285 9.70422 138.219 9.78534 137.946C10.0135 137.176 -6.42261 132.28 -7.89819 132.679C-9.31604 133.062 -22.88 129.46 -22.6746 128.756C-22.6058 128.519 -24.2237 128.009 -26.2697 127.622C-28.8531 127.133 -29.7225 126.693 -29.1136 126.179C-28.5013 125.662 -29.7851 125.042 -33.3719 124.125L-38.5066 122.811L-34.286 124.611C-30.3968 126.27 -30.6194 126.264 -37.1183 124.541C-41.9437 123.263 -43.6825 122.539 -42.622 122.255C-41.5615 121.97 -42.6982 121.498 -46.2205 120.759C-49.1284 120.151 -51.2692 119.346 -51.14 118.911C-51.0143 118.486 -53.1915 117.534 -55.9805 116.795C-59.8491 115.767 -60.5756 115.749 -59.0498 116.722L-57.0499 117.996L-59.3798 117.425C-60.6615 117.111 -62.0374 116.164 -62.4388 115.321C-62.8395 114.478 -64.0154 113.577 -65.0511 113.318C-66.8882 112.858 -66.8965 112.876 -65.3886 114.045C-64.2614 114.918 -65.0298 114.894 -68.2167 113.962C-71.9802 112.862 -72.1981 112.7 -69.7754 112.804C-67.3239 112.909 -67.5239 112.755 -71.3197 111.601C-74.5705 110.613 -75.4111 110.586 -74.6166 111.494C-73.875 112.34 -78.433 111.162 -89.6335 107.612C-114.222 99.8189 -119.398 98.0052 -119.717 97.0698C-119.879 96.597 -127.838 93.74 -137.404 90.7215C-146.97 87.703 -159.02 83.602 -164.181 81.6048C-169.343 79.6096 -176.887 76.91 -180.947 75.6069C-201.757 68.9246 -227.418 60.1921 -235.367 57.0863C-240.288 55.1633 -246.237 52.8541 -248.585 51.9558C-253.14 50.2129 -258.879 47.5827 -264.91 44.4735C-268.837 42.4508 -280.664 37.3492 -286.409 35.2001C-288.293 34.4963 -293.412 32.629 -297.786 31.0518C-302.16 29.4745 -305.86 27.7941 -306.007 27.3171C-306.154 26.8415 -307.533 26.0896 -309.071 25.647C-311.87 24.8422 -317.402 21.5138 -318.22 20.142C-318.46 19.7406 -320.662 18.8389 -323.112 18.1386C-325.563 17.4355 -328.056 16.3407 -328.65 15.7015C-329.441 14.8513 -328.708 14.8239 -325.929 15.6005C-322.22 16.6355 -322.123 16.6025 -321.987 14.217C-321.887 12.45 -321.316 11.5683 -319.931 11.0411C-315.103 9.20198 -313.656 9.3085 -307.811 11.9318C-298.716 16.0142 -287.512 20.3186 -277.622 23.5302C-272.567 25.1721 -265.817 27.6642 -262.622 29.0676C-252.669 33.4393 -244.365 36.7568 -237.195 39.222C-229.093 42.0096 -231.067 40.7945 -246.04 33.7747C-258.027 28.1542 -272.889 20.5069 -280.692 15.9441C-283.811 14.1194 -287.229 12.3834 -288.287 12.0858C-289.345 11.7868 -290.345 11.1085 -290.51 10.5765C-290.675 10.0432 -291.775 9.33392 -292.952 9.00128C-294.51 8.56005 -294.962 7.95044 -294.61 6.7642C-294.218 5.4467 -294.75 4.92782 -297.376 4.06942C-299.164 3.48455 -296.804 3.82338 -292.13 4.81992C-287.456 5.81578 -283.093 7.09272 -282.433 7.65629C-281.774 8.21916 -278.186 9.54355 -274.459 10.5971C-269.271 12.0652 -267.482 12.2631 -266.822 11.4425C-265.549 9.85762 -266.263 9.22259 -271.469 7.30441C-274.062 6.3491 -276.091 5.25772 -275.979 4.87972C-275.867 4.50035 -275.141 4.58213 -274.369 5.06322C-273.596 5.54363 -273.773 5.0584 -274.763 3.98695L-276.561 2.03646L-273.648 3.43781C-272.047 4.20824 -268.012 5.75804 -264.685 6.88241C-258.36 9.01571 -254.23 10.5284 -237.233 16.931C-231.587 19.0575 -224.828 21.5165 -222.211 22.3942C-211.237 26.0793 -192.359 33.1005 -177.244 39.1169C-168.355 42.655 -159.401 46.0542 -157.345 46.6679C-155.289 47.2837 -153.484 48.1868 -153.332 48.6755C-153.178 49.1751 -150.861 49.9194 -148.051 50.371C-144.695 50.9119 -142.934 51.5373 -142.708 52.2692C-141.938 54.7558 -62.9336 81.6426 -10.0418 97.4176C9.17984 103.151 25.4544 108.16 26.1232 108.551C27.8564 109.559 93.3329 129.51 123.372 138.182C133.008 140.965 142.057 143.645 143.48 144.14C144.901 144.635 148.244 145.629 150.907 146.349C160.858 149.037 166.831 150.718 187.337 156.592C204.637 161.548 232.811 169.049 253.885 174.308C259.692 175.757 256.259 173.365 249.549 171.29C243.583 169.442 234.787 165.671 238.16 166.405C240.308 166.874 240.337 166.835 238.934 165.401C237.854 164.298 227.678 161.102 199.785 153.105C147.385 138.085 46.5571 108.629 20.3727 100.694C-31.328 85.0239 -72.9073 72.0572 -84.5215 67.9796C-91.3908 65.5679 -104.398 61.0883 -113.427 58.0231C-136.149 50.3084 -169.437 37.864 -181.484 32.5782C-191.896 28.0106 -212.602 20.2664 -225.142 16.2513C-248.386 8.80885 -263.843 2.44951 -263.283 0.561572C-262.993 -0.415042 -263.958 -0.722244 -249.811 4.84054C-243.253 7.4185 -233.546 10.7607 -228.239 12.2686C-217.092 15.4328 -187.051 26.1769 -180.951 29.1817C-176.428 31.4091 -172.957 32.8634 -164.455 36.0881C-161.399 37.2461 -155.648 39.4997 -151.674 41.0928C-147.702 42.6866 -141.151 45.1292 -137.118 46.5216C-133.085 47.9126 -127.516 50.0576 -124.742 51.2871C-121.969 52.5173 -114.234 55.298 -107.555 57.4657C-100.875 59.6347 -87.2741 64.2773 -77.3299 67.783C-38.5038 81.4708 75.3113 115.017 189.849 146.531C215.237 153.517 234.667 158.712 233.025 158.076C231.383 157.439 224.417 154.953 217.547 152.549C210.675 150.146 202.603 147.062 199.608 145.696C193.983 143.134 146.249 128.125 99.5706 114.243C76.0377 107.243 40.2329 95.8561 23.9651 90.1943C20.8834 89.1222 11.5777 86.1916 3.28647 83.6824C-6.73328 80.6502 -12.0397 78.7003 -12.5352 77.8701C-12.9476 77.1794 -15.7338 75.9265 -18.7578 75.0709C-24.6628 73.4008 -27.1095 71.0455 -21.4622 72.4682C-12.5002 74.7245 32.0681 87.5999 72.525 99.6203C149.761 122.568 277.831 158.43 274.487 156.172C273.012 155.177 273.539 155.232 276.547 156.389C288.252 160.89 297.39 163.721 296.376 162.532C295.513 161.519 295.722 161.407 297.509 161.918C298.716 162.259 301.178 163.337 302.984 164.304C304.79 165.271 312.495 168.062 320.11 170.506C327.723 172.951 334.153 175.158 334.396 175.41C334.64 175.662 342.986 178.625 352.943 181.995C362.901 185.363 375.238 189.86 380.363 191.986C400.087 200.173 412.278 205.844 412.638 207.005C412.911 207.89 418.341 209.78 433.323 214.209C444.495 217.51 453.795 220.501 453.988 220.859C454.184 221.215 448.075 219.553 440.415 217.165C430.8 214.166 427.504 213.36 429.774 214.565C431.581 215.525 434.642 216.749 436.575 217.284C439.163 218.002 439.577 218.296 438.146 218.4C436.753 218.501 437.787 219.167 441.793 220.747C447.329 222.93 452.434 227.041 450.281 227.577C449.324 227.817 438.741 225.111 432.491 223.032C431.301 222.637 427.56 221.886 424.177 221.365C420.017 220.725 414.654 219.095 407.601 216.332C394.78 211.305 392.708 210.664 393.499 211.969C393.833 212.519 397.538 214.381 401.733 216.107C405.928 217.832 411.183 220.195 413.41 221.357C415.636 222.52 422.35 225.135 428.328 227.169L439.197 230.87L426.455 227.338C419.447 225.396 410.447 222.554 406.454 221.023C402.463 219.491 394.3 216.354 388.314 214.05C382.328 211.747 377.537 209.505 377.668 209.067C377.812 208.581 375.878 207.918 372.704 207.366C369.428 206.796 365.093 205.284 360.992 203.282C353.517 199.634 343.898 196.632 345.619 198.482C346.214 199.122 346.255 199.526 345.708 199.379C345.161 199.234 344.409 198.469 344.036 197.683C343.364 196.271 340.818 195.353 309.367 185.184C300.109 182.191 297.171 182.278 304.12 185.34C306.104 186.213 308.696 187.793 309.879 188.849C312.885 191.535 320.95 194.856 336.647 199.871C344.053 202.237 351.396 204.891 352.967 205.769C354.536 206.646 360.436 209.121 366.076 211.266C371.716 213.412 379.582 216.468 383.557 218.059C387.531 219.65 394.861 222.352 399.845 224.063C404.829 225.775 411.275 228.568 414.17 230.273C417.064 231.977 421.576 234.434 424.199 235.733C426.821 237.036 428.851 238.486 428.71 238.961C428.533 239.559 420.807 237.54 403.787 232.452C377.26 224.523 374.947 224.743 398.634 232.944C421.42 240.831 423.4 241.572 426.882 243.516C428.677 244.517 432.298 246.016 434.929 246.845L439.712 248.352L435.615 247.737L431.518 247.122L434.497 249.128C436.136 250.231 437.152 251.406 436.756 251.741C435.822 252.53 411.243 245.561 399.078 241.059C387.673 236.84 351.25 225.32 351.693 226.073C351.868 226.368 356.087 228.014 361.07 229.731C375.137 234.572 380.814 236.902 380.076 237.526C379.702 237.84 378.517 237.899 377.445 237.655C375.142 237.134 381.66 240.082 392.378 244.408C396.582 246.105 403.404 249.075 407.538 251.011C411.671 252.945 418.269 255.949 422.2 257.686C426.13 259.423 428.167 260.562 426.726 260.215C424.673 259.723 424.275 259.865 424.879 260.879C425.303 261.588 428.833 263.322 432.723 264.73L439.797 267.287L433.61 265.702C426.463 263.869 427 265.165 434.655 268.221C441.924 271.122 442.152 272.142 435.207 270.684C431.877 269.985 429.053 269.782 428.932 270.235C428.631 271.364 415.333 268.302 407.805 265.37C404.412 264.05 398.019 261.8 393.596 260.369C389.175 258.94 378.792 255.33 370.523 252.35C353.919 246.363 345.585 244.857 342.649 247.311C341.544 248.236 341.462 248.601 342.297 248.884C347.832 250.76 355.937 255.601 361.749 260.503C365.408 263.59 368.711 265.482 374.234 267.654C378.365 269.278 383.544 271.449 385.741 272.478C387.938 273.508 390.035 274.097 390.401 273.787C390.767 273.478 390.07 272.894 388.851 272.489C385.547 271.389 385.134 271.172 384.572 270.231C384.291 269.757 386.162 270.183 388.731 271.176C391.301 272.169 397.971 274.532 403.555 276.427C409.14 278.324 413.624 280.158 413.521 280.503C413.419 280.848 415.357 281.887 417.83 282.809C420.302 283.731 427.255 286.574 433.279 289.123C441.328 292.53 444.708 293.639 446.022 293.306C447.17 293.015 447.916 293.192 448.104 293.8C448.57 295.303 447.26 295.924 444.221 295.645C442.359 295.473 440.917 296.002 439.956 297.206C438.248 299.347 438.057 299.329 435.778 296.848C434.41 295.358 433.358 294.948 430.906 294.947C429.187 294.947 426.511 294.893 424.961 294.828C422.293 294.716 422.367 294.807 426.353 296.549C435.165 300.401 453.944 306.222 459.883 306.943C463.765 307.414 465.87 307.978 465.903 308.555C465.933 309.044 466.912 309.714 468.078 310.043C469.244 310.372 470.089 311.01 469.956 311.459C469.705 312.304 452.026 307.915 439.617 303.926C435.916 302.735 432.828 301.964 432.755 302.215C432.681 302.461 433.192 303.623 433.891 304.793C435.659 307.755 435.114 308.675 432.097 307.823C427.987 306.659 427.817 308.059 431.783 310.393C435.889 312.811 442.281 314.052 446.863 313.325C450.654 312.722 451.967 313.074 450.16 314.211C449.388 314.695 446.635 315.141 444.042 315.203C438.479 315.334 437.682 316.039 442.419 316.636C444.308 316.875 445.335 317.27 444.767 317.536C443.652 318.061 424.787 315.932 412.959 313.946C398.58 311.531 376.742 306.456 360.912 301.848C349.906 298.643 344.749 297.452 344.134 297.972C343.646 298.383 343.352 298.869 343.482 299.051C343.611 299.234 349.752 301.397 357.128 303.862C364.504 306.326 372.09 308.885 373.986 309.548C375.882 310.211 382.489 312.46 388.67 314.546C394.851 316.632 401.207 319.058 402.795 319.936C406.118 321.775 415.55 324.523 420.273 325.027L423.5 325.372L421.032 324.07C419.675 323.354 416.59 322.164 414.176 321.424C410.467 320.286 409.858 319.833 410.25 318.515C410.652 317.161 411.61 317.132 417.479 318.307C421.2 319.051 428.936 320.842 434.67 322.287L445.096 324.914L440.509 326.648C437.986 327.601 434.968 328.349 433.803 328.307C432.64 328.265 431.589 328.559 431.47 328.959C431.211 329.831 438.821 331.987 444.752 332.725C447.094 333.015 451.982 334.454 455.614 335.921C462.789 338.819 469.464 340.062 467.666 338.164C467.096 337.562 464.492 336.46 461.88 335.714C454.377 333.57 457.185 333.725 467.418 336.022C472.566 337.178 479.364 338.609 482.524 339.204C487.179 340.077 488.128 340.475 487.531 341.294C486.989 342.037 484.863 341.784 479.534 340.34C472.892 338.543 472.022 338.504 469.283 339.898C466.75 341.187 466.456 341.599 467.374 342.571C468.19 343.44 467.691 343.54 465.348 342.986C463.639 342.581 465.059 343.315 468.506 344.619C472.489 346.122 474.938 347.494 475.222 348.377C475.889 350.45 475.654 350.708 472.776 351.067C470.8 351.314 464.89 349.757 449.172 344.848C430.314 338.957 428.044 338.399 426.61 339.3C425.732 339.851 423.772 339.979 422.254 339.584C420.734 339.188 418.608 338.957 417.529 339.07C415.347 339.296 415.693 339.439 428.553 343.582C435.722 345.891 447.128 350.658 443.573 349.858C442.47 349.608 441.484 349.684 441.382 350.025C440.782 352.045 433.464 351.655 424.062 349.098C421.642 348.44 419.09 348.107 418.39 348.357C417.69 348.607 414.483 348.185 411.265 347.416C408.045 346.648 405.118 346.168 404.758 346.35C403.761 346.856 405.864 349.902 407.639 350.523C408.549 350.841 408.017 351.048 406.371 351.016C404.16 350.974 404.435 351.11 407.616 351.632C409.861 352.001 415.032 353.097 419.111 354.069C423.188 355.041 427.143 355.589 427.9 355.286C428.659 354.985 431.481 355.499 434.176 356.426C437.04 357.413 439.436 357.822 439.948 357.411C440.429 357.025 441.831 356.919 443.063 357.175C444.294 357.431 446.439 357.775 447.827 357.939C457.469 359.071 457.915 359.165 457.065 359.881C456.587 360.285 455.456 360.406 454.551 360.151C452.971 359.704 450.368 362.111 451.102 363.341C451.298 363.668 452.645 363.608 454.099 363.207C456.559 362.526 456.75 362.581 456.897 363.988C457.055 365.522 453.008 367.61 450.935 367.064C450.383 366.917 448.638 367.027 447.058 367.307C445.476 367.587 443.514 367.628 442.697 367.4C441.881 367.169 440.903 367.246 440.527 367.565C439.66 368.296 463.29 374.33 470.015 375.095C475.491 375.718 478.809 376.488 477.931 376.933C476.283 377.768 461.809 375.082 447.435 371.272C433.705 367.632 430.567 367.048 427.609 367.574C423.745 368.263 419.751 367.828 408.237 365.466C404.032 364.602 399.873 364.194 398.994 364.561C396.217 365.717 389.566 367.407 388.728 367.171C388.285 367.046 386.969 367.47 385.803 368.113C384.538 368.81 381.475 369.047 378.221 368.699C375.218 368.376 371.848 368.516 370.733 369.007C369.311 369.634 366.627 369.407 361.744 368.248C356.105 366.907 354.387 366.824 352.698 367.806L350.615 369.021L367.922 373.198C391.202 378.816 401.439 381.644 402.473 382.741C403.027 383.326 402.69 383.476 401.534 383.158C400.542 382.887 399.257 382.889 398.677 383.17C398.098 383.449 395.739 383.535 393.437 383.361C389.708 383.079 389.53 383.148 391.819 384.005C396.565 385.781 378.366 381.735 364.883 378.016C357.033 375.85 351.206 374.605 350.744 374.993C348.83 376.611 382.071 385.039 396.584 386.618L403.194 387.337L398.858 385.925C395.03 384.678 395.538 384.654 403.199 385.718C407.971 386.381 413.139 387.28 414.682 387.718C416.226 388.155 419.544 388.514 422.055 388.515C428.006 388.521 430.672 389.287 430.204 390.86C429.53 393.132 419.099 393.075 404.565 390.725C379.625 386.69 376.706 386.044 363.06 381.558C355.435 379.05 345.084 375.718 340.055 374.151C335.028 372.585 326.049 369.67 320.103 367.674C312.473 365.112 305.979 363.51 298.028 362.231C286.336 360.35 283.527 360.281 288.58 361.999C298.432 365.349 261.598 356.063 223.026 345.471C198.117 338.63 173.36 331.917 168.011 330.554C162.662 329.19 156.537 327.475 154.399 326.748L154.401 326.745C152.262 326.015 145.891 323.69 140.242 321.576C108.92 309.86 106.37 309.016 67.932 297.64C57.5934 294.58 44.5407 290.253 38.9243 288.026C11.1626 277.014 -10.7477 269.539 -10.2143 271.26C-10.0762 271.706 -10.3579 271.959 -10.8404 271.823C-11.3229 271.686 -11.8528 271.138 -12.0177 270.605C-12.182 270.06 -16.4534 268.432 -21.6773 266.919Z" fill="#C5E1CD"/>
<path d="M-115.967 301.199C-118.428 300.487 -121.434 299.456 -122.646 298.908C-127.286 296.815 -133.391 294.661 -143.835 291.433C-149.788 289.592 -154.775 287.968 -154.916 287.824C-155.058 287.679 -158.507 286.55 -162.58 285.314C-169.761 283.134 -176.267 280.978 -180.899 279.249C-182.136 278.785 -184.82 277.838 -186.863 277.141C-188.907 276.445 -192.512 275.154 -194.876 274.274C-197.239 273.394 -201.133 272.1 -203.528 271.399C-205.924 270.697 -207.991 270.012 -208.123 269.876C-208.254 269.741 -211.668 268.491 -215.709 267.1C-219.75 265.709 -223.782 264.201 -224.668 263.75C-226.561 262.785 -237.096 259.181 -236.861 259.578C-236.677 259.891 -227.533 263.523 -217.967 267.083C-214.365 268.424 -209.868 270.155 -207.974 270.931C-202.344 273.233 -194.6 276.015 -181.894 280.307C-175.305 282.531 -168.448 284.928 -166.657 285.631C-164.037 286.66 -164.37 286.585 -168.363 285.252C-171.092 284.341 -174.354 283.268 -175.61 282.869C-192.221 277.603 -202.572 274.033 -209.213 271.277C-211.661 270.26 -215.33 268.839 -217.366 268.12C-225.468 265.255 -246.864 256.487 -247.594 255.734C-248.304 254.999 -256.086 251.877 -256.648 252.101C-257.039 252.257 -257.813 252.043 -258.811 251.505C-259.666 251.044 -261.655 250.192 -263.233 249.612C-264.81 249.032 -267.069 248.028 -268.253 247.382C-270.657 246.068 -275.627 243.984 -280.581 242.211C-282.388 241.564 -285.234 240.47 -286.904 239.781C-288.574 239.091 -292.783 237.421 -296.257 236.071C-299.731 234.721 -303.821 232.997 -305.347 232.242C-306.873 231.487 -309.124 230.459 -310.35 229.957C-311.576 229.454 -313.164 228.6 -313.878 228.058C-314.592 227.517 -316.878 226.322 -318.957 225.401C-323.144 223.548 -326.881 221.337 -326.723 220.805C-326.631 220.494 -325.879 220.849 -324.376 221.911C-324.051 222.14 -323.868 222.054 -323.888 221.683C-323.908 221.342 -325.242 220.388 -327.011 219.456C-328.71 218.559 -330.154 217.734 -330.221 217.622C-330.287 217.511 -329.458 217.701 -328.378 218.046C-325.954 218.821 -325.235 218.197 -326.982 216.833C-327.659 216.305 -328.114 215.882 -327.993 215.896C-327.872 215.908 -326.248 216.297 -324.386 216.762C-322.369 217.263 -320.065 217.547 -318.686 217.463C-317.128 217.369 -315.133 217.654 -312.581 218.334C-310.496 218.888 -308.263 219.293 -307.621 219.235L-306.452 219.125L-307.574 218.311C-308.191 217.863 -309.255 217.322 -309.938 217.109C-310.622 216.894 -311.652 216.229 -312.226 215.629C-313.214 214.598 -313.216 214.565 -312.276 215.014C-305.795 218.112 -304.254 218.633 -303.755 217.9C-303.2 217.083 -305.318 215.402 -308.258 214.323C-309.896 213.721 -311.324 213.083 -311.43 212.905C-311.654 212.53 -302.238 215.441 -299.637 216.551C-297.737 217.36 -296.553 217.169 -296.205 215.996C-296.09 215.609 -296.3 215.11 -296.672 214.89C-297.268 214.536 -310.72 210.485 -316.699 208.859C-317.913 208.528 -318.865 208.119 -318.814 207.947C-318.58 207.158 -315.346 207.227 -312.309 208.085C-309.04 209.01 -308.056 208.778 -309.849 207.502C-311.289 206.479 -316.194 205.211 -318.725 205.209C-323.05 205.205 -322.363 204.58 -317.886 204.447C-314.137 204.334 -311.715 205.061 -307.975 207.416C-304.184 209.807 -299.535 212.121 -297.2 212.782C-295.923 213.143 -295.127 213.112 -294.326 212.67C-293.716 212.334 -293.18 211.931 -293.133 211.774C-293.086 211.616 -292.444 211.532 -291.706 211.587C-290.347 211.689 -286.78 210.283 -286.566 209.559C-286.455 209.185 -292.178 206.402 -293.12 206.374C-293.368 206.367 -294.738 205.877 -296.164 205.286C-298.908 204.152 -301.081 202.713 -301.347 201.853C-301.435 201.568 -302.111 200.871 -302.85 200.302L-304.192 199.27L-302.837 199.298C-301.913 199.318 -301.133 199.615 -300.386 200.229C-299.784 200.726 -297.655 201.681 -295.658 202.354C-293.659 203.027 -291.939 203.719 -291.835 203.895C-291.471 204.504 -288.784 205.018 -288.011 204.626C-287.33 204.281 -287.433 204.116 -288.835 203.309C-289.716 202.8 -290.342 202.337 -290.226 202.278C-289.915 202.122 -285.476 204.626 -284.655 205.422C-284.267 205.798 -283.586 206.26 -283.142 206.449C-282.698 206.636 -281.447 207.179 -280.361 207.654C-278.908 208.29 -278.431 208.376 -278.553 207.982C-278.645 207.688 -278.661 207.462 -278.59 207.484C-278.294 207.567 -272.797 210.375 -271.243 211.234C-269.876 211.99 -269.359 212.101 -268.477 211.83C-267.814 211.624 -266.461 211.758 -264.995 212.174C-263.676 212.547 -262.428 212.708 -262.223 212.534C-261.775 212.157 -258.595 213.036 -256.237 214.189C-255.3 214.647 -254.505 214.864 -254.45 214.677C-254.395 214.491 -253.489 214.582 -252.437 214.879C-250.401 215.455 -249.941 214.779 -251.928 214.13C-252.629 213.901 -252.751 213.776 -252.256 213.795C-251.351 213.828 -251.008 213.204 -251.76 212.892C-252.039 212.777 -252.722 212.494 -253.279 212.263C-253.835 212.032 -257.092 210.947 -260.518 209.855C-269.106 207.114 -274.905 204.81 -277.495 203.113C-278.699 202.324 -280.809 201.36 -282.184 200.971C-284.219 200.395 -284.721 200.102 -284.892 199.394C-285.007 198.917 -285.633 198.247 -286.285 197.911C-287.573 197.242 -287.654 196.913 -286.655 196.406C-286.148 196.148 -286.148 195.843 -286.654 194.995C-287.286 193.936 -287.343 193.915 -289.317 194.07C-290.425 194.157 -291.744 194.411 -292.248 194.634C-292.887 194.917 -293.12 194.891 -293.02 194.553C-292.763 193.687 -289.838 192.739 -287.628 192.804C-285.031 192.88 -264.791 198.48 -262.794 199.674C-262.085 200.1 -259.269 201.294 -256.537 202.33C-253.805 203.365 -251.022 204.436 -250.354 204.71C-249.685 204.983 -245.584 206.671 -241.24 208.459C-236.897 210.249 -233.066 211.815 -232.729 211.939C-232.39 212.066 -230.206 212.976 -227.874 213.963C-225.543 214.951 -218.815 217.435 -212.923 219.484C-207.031 221.531 -199.01 224.481 -195.098 226.041C-186.131 229.614 -177.418 232.744 -169.427 235.262C-165.998 236.344 -162.488 237.532 -161.627 237.904C-160.524 238.381 -160.109 238.426 -160.223 238.06C-160.335 237.697 -159.655 237.746 -157.983 238.218C-152.166 239.864 -158.563 237.251 -169.783 233.401C-172.052 232.623 -174.734 231.666 -175.744 231.278C-176.753 230.887 -180.262 229.619 -183.542 228.455C-186.821 227.293 -190.928 225.737 -192.668 224.999C-194.408 224.262 -196.883 223.3 -198.17 222.863C-200.478 222.078 -206.411 219.815 -213.548 216.997C-217.239 215.541 -226.817 212.239 -237.396 208.777C-240.55 207.745 -243.508 206.631 -243.971 206.301C-245.236 205.402 -249.416 203.165 -253.221 201.355C-255.083 200.469 -256.733 199.438 -256.888 199.062C-257.043 198.688 -258.081 198.05 -259.195 197.647L-261.22 196.913L-259.207 197.406C-257.518 197.82 -257.158 197.777 -256.969 197.137C-256.799 196.566 -257.114 196.198 -258.234 195.66C-260.062 194.782 -262.454 192.937 -263.32 191.737C-263.964 190.846 -263.964 190.846 -263.206 191.356C-259.975 193.535 -258.413 194.297 -254.047 195.822C-250.974 196.896 -248.671 197.922 -248.012 198.506C-247.387 199.065 -246.655 199.401 -246.239 199.32C-245.566 199.19 -237.131 202.296 -231.501 204.747C-227.193 206.622 -222.044 208.251 -222.219 207.682C-222.323 207.349 -222.138 207.363 -221.664 207.722C-221.273 208.018 -218.048 209.154 -214.498 210.247C-210.948 211.338 -207.792 212.42 -207.484 212.65C-207.178 212.879 -205.177 213.564 -203.039 214.172C-200.902 214.783 -199.104 215.433 -199.045 215.622C-198.986 215.812 -197.926 216.185 -196.689 216.451C-195.392 216.732 -194.713 217.006 -195.087 217.103C-195.753 217.277 -193.996 218.027 -185.884 221.035C-183.52 221.913 -179.566 223.41 -177.099 224.36C-171.836 226.388 -160.773 230.302 -156.326 231.706C-150.127 233.667 -141.271 236.647 -141.07 236.844C-140.957 236.954 -137.125 238.225 -132.554 239.671C-127.983 241.115 -122.287 242.941 -119.894 243.723C-100.777 249.991 -94.617 251.873 -81.1368 255.562C-72.6978 257.871 -65.645 259.777 -65.4635 259.799C-65.2814 259.817 -65.058 259.583 -64.9673 259.276C-64.7852 258.663 -63.1797 258.496 -62.6581 259.036C-62.3866 259.316 -52.0542 262.436 -48.4577 263.322C-47.5312 263.55 -47.4659 263.494 -47.8687 262.819C-48.1903 262.279 -49.3924 261.726 -51.9854 260.923C-54.0012 260.299 -55.6967 259.636 -55.7544 259.449C-55.8122 259.262 -56.3764 259.174 -57.0087 259.253C-57.8809 259.362 -58.2781 259.233 -58.6526 258.72C-58.9248 258.349 -59.1935 258.197 -59.2485 258.384C-59.3798 258.824 -76.9657 253.852 -77.809 253.138C-78.2241 252.786 -78.7526 252.711 -79.3121 252.927C-80.042 253.207 -80.0956 253.191 -79.6619 252.817C-79.2317 252.445 -79.8296 252.229 -83.3883 251.472C-86.0803 250.9 -88.0075 250.299 -88.6727 249.826C-89.4466 249.275 -89.6775 249.218 -89.5566 249.609C-89.4356 249.999 -91.3015 249.508 -96.8059 247.704C-100.883 246.369 -107.167 244.421 -110.771 243.378C-114.375 242.334 -117.197 241.375 -117.043 241.246C-116.889 241.115 -117.238 241.016 -117.817 241.026C-118.397 241.037 -121.301 240.27 -124.27 239.324C-129.012 237.812 -129.304 237.678 -126.67 238.221C-124.658 238.637 -127.02 237.781 -133.851 235.617C-139.45 233.845 -147.663 231.197 -152.103 229.731C-163.908 225.833 -171.289 223.499 -183.666 219.749C-194.337 216.515 -203.314 213.362 -214.347 208.971C-217.253 207.813 -220.64 206.478 -221.874 206.002C-223.107 205.526 -224.848 204.844 -225.742 204.488C-229.365 203.044 -236.412 200.401 -237.32 200.144C-237.852 199.992 -238.142 199.747 -237.964 199.595C-237.657 199.336 -241.841 197.471 -245.782 196.112C-246.249 195.951 -246.464 195.68 -246.262 195.508C-246.033 195.315 -246.405 195.148 -247.242 195.071C-248.062 194.997 -248.543 194.787 -248.469 194.539C-248.402 194.313 -248.65 193.94 -249.019 193.709C-249.387 193.478 -248.789 193.634 -247.69 194.054C-246.59 194.476 -245.523 195.047 -245.319 195.326C-245.115 195.605 -244.579 195.937 -244.128 196.062C-243.677 196.19 -241.407 197.123 -239.083 198.137C-236.759 199.152 -231.918 201.102 -228.325 202.473C-224.732 203.844 -219.51 205.886 -216.72 207.015C-213.93 208.143 -207.769 210.471 -203.029 212.188C-198.289 213.906 -193.863 215.53 -193.192 215.797C-192.521 216.065 -188.035 217.487 -183.222 218.962C-178.409 220.433 -175.255 221.329 -176.211 220.953C-177.334 220.512 -177.804 220.145 -177.538 219.921C-177.3 219.72 -177.353 219.631 -177.665 219.709C-177.96 219.782 -180.265 219.13 -182.786 218.261C-185.404 217.358 -187.096 216.61 -186.729 216.518C-186.376 216.43 -187.487 216.078 -189.197 215.736C-191.152 215.343 -192.264 214.968 -192.191 214.723C-192.128 214.508 -194.325 213.471 -197.074 212.416C-199.823 211.361 -202.473 210.295 -202.961 210.046C-203.555 209.746 -203.905 209.78 -204.015 210.152C-204.113 210.479 -204.462 210.558 -204.869 210.345C-205.247 210.146 -208.948 208.73 -213.093 207.198C-217.239 205.666 -220.762 204.276 -220.925 204.108C-221.415 203.601 -221.069 203.124 -220.233 203.155C-219.8 203.171 -220.486 202.897 -221.756 202.546C-223.027 202.194 -223.569 202.127 -222.962 202.394C-222.354 202.664 -221.907 203.054 -221.97 203.265C-222.033 203.476 -222.668 203.387 -223.389 203.066C-224.106 202.747 -226.077 201.981 -227.768 201.362C-231.594 199.963 -244.091 194.877 -244.598 194.512C-245.313 193.998 -241.181 195.288 -239.535 196.092C-238.12 196.785 -237.82 196.809 -237.477 196.262C-237.131 195.712 -236.478 195.774 -232.797 196.698C-230.444 197.291 -228.564 197.924 -228.62 198.11C-228.675 198.295 -228.017 198.518 -227.157 198.607C-226.296 198.695 -223.438 199.573 -220.804 200.557C-218.17 201.54 -212.323 203.69 -207.811 205.334C-196.919 209.302 -183.902 214.334 -180.763 215.786C-179.371 216.43 -177.285 217.104 -176.128 217.283C-174.971 217.46 -173.965 217.794 -173.895 218.025C-173.823 218.255 -172.106 218.904 -170.08 219.467C-168.046 220.033 -166.046 220.812 -165.618 221.204C-165.19 221.595 -164.023 222.133 -163.023 222.399C-161.554 222.79 -161.345 222.767 -161.934 222.276C-162.501 221.804 -162.361 221.803 -161.308 222.272C-160.563 222.603 -159.553 222.99 -159.064 223.132C-158.4 223.324 -158.346 223.435 -158.847 223.566C-159.254 223.672 -156.833 224.622 -152.742 225.966C-149.013 227.19 -145.318 228.429 -144.529 228.72C-143.741 229.012 -140.297 230.155 -136.875 231.261C-133.454 232.368 -127.297 234.366 -123.194 235.7C-114.347 238.581 -100.125 242.601 -96.0417 243.377C-94.4087 243.687 -93.1833 244.083 -93.2417 244.279C-93.2988 244.471 -94.3551 244.413 -95.5894 244.15C-96.8238 243.886 -90.85 245.641 -82.3155 248.049C-73.7809 250.459 -68.6016 251.857 -70.8057 251.158C-74.3953 250.02 -74.7719 249.821 -74.4153 249.253C-74.0613 248.692 -74.3644 248.521 -77.0784 247.734C-78.7623 247.245 -84.8927 245.358 -90.7023 243.539C-100.315 240.528 -101.258 240.293 -101.191 240.93C-101.095 241.858 -101.545 241.697 -101.963 240.651C-102.212 240.025 -103.145 239.51 -105.715 238.579L-109.134 237.337L-105.068 238.569C-102.832 239.247 -100.97 239.694 -100.932 239.562C-100.822 239.193 -108.677 236.855 -109.382 237.045C-110.06 237.228 -116.542 235.507 -116.444 235.17C-116.411 235.057 -117.184 234.812 -118.162 234.629C-119.397 234.395 -119.812 234.183 -119.522 233.937C-119.229 233.691 -119.843 233.395 -121.557 232.956L-124.01 232.328L-121.993 233.188C-120.134 233.981 -120.241 233.979 -123.347 233.155C-125.653 232.544 -126.484 232.199 -125.977 232.062C-125.47 231.926 -126.014 231.701 -127.697 231.348C-129.086 231.056 -130.11 230.673 -130.048 230.465C-129.987 230.262 -131.029 229.807 -132.361 229.452C-134.21 228.962 -134.557 228.954 -133.828 229.419L-132.873 230.027L-133.986 229.755C-134.598 229.604 -135.256 229.152 -135.448 228.749C-135.64 228.346 -136.201 227.915 -136.696 227.79C-137.574 227.572 -137.578 227.581 -136.857 228.138C-136.319 228.555 -136.686 228.545 -138.209 228.099C-140.008 227.573 -140.112 227.495 -138.954 227.544C-137.783 227.595 -137.878 227.522 -139.692 226.97C-141.246 226.498 -141.647 226.485 -141.268 226.919C-140.913 227.324 -143.092 226.761 -148.444 225.065C-160.196 221.34 -162.669 220.472 -162.821 220.026C-162.899 219.799 -166.703 218.435 -171.274 216.993C-175.846 215.549 -181.604 213.589 -184.071 212.635C-186.538 211.681 -190.144 210.391 -192.083 209.768C-202.029 206.575 -214.292 202.401 -218.092 200.918C-220.444 199.997 -223.286 198.895 -224.409 198.466C-226.586 197.632 -229.328 196.376 -232.21 194.89C-234.087 193.922 -239.739 191.485 -242.485 190.458C-243.385 190.122 -245.832 189.23 -247.922 188.475C-250.013 187.722 -251.78 186.919 -251.851 186.691C-251.921 186.464 -252.58 186.104 -253.315 185.894C-254.653 185.507 -257.296 183.918 -257.688 183.261C-257.803 183.07 -258.855 182.639 -260.026 182.304C-261.197 181.969 -262.388 181.445 -262.672 181.14C-263.05 180.734 -262.7 180.72 -261.372 181.091C-259.6 181.586 -259.553 181.571 -259.488 180.43C-259.44 179.586 -259.167 179.165 -258.505 178.912C-256.198 178.033 -255.507 178.084 -252.713 179.339C-248.367 181.288 -243.012 183.346 -238.286 184.881C-235.869 185.667 -232.644 186.857 -231.117 187.527C-226.36 189.617 -222.392 191.201 -218.965 192.38C-215.093 193.713 -216.037 193.132 -223.192 189.777C-228.921 187.091 -236.024 183.436 -239.752 181.257C-241.244 180.385 -242.877 179.554 -243.383 179.412C-243.888 179.27 -244.366 178.945 -244.445 178.69C-244.524 178.435 -245.049 178.098 -245.612 177.936C-246.356 177.727 -246.572 177.435 -246.404 176.868C-246.217 176.238 -246.471 175.991 -247.726 175.58C-248.581 175.301 -247.453 175.462 -245.219 175.938C-242.985 176.415 -240.9 177.024 -240.585 177.294C-240.27 177.563 -238.555 178.197 -236.774 178.7C-234.295 179.401 -233.44 179.496 -233.124 179.104C-232.516 178.347 -232.857 178.044 -235.345 177.127C-236.584 176.67 -237.554 176.148 -237.5 175.967C-237.447 175.787 -237.1 175.824 -236.731 176.054C-236.361 176.283 -236.446 176.053 -236.919 175.54L-237.779 174.609L-236.386 175.279C-235.621 175.646 -233.693 176.387 -232.102 176.925C-229.08 177.945 -227.106 178.668 -218.984 181.726C-216.285 182.743 -213.055 183.918 -211.805 184.338C-206.559 186.1 -197.538 189.455 -190.314 192.331C-186.066 194.022 -181.787 195.645 -180.804 195.94C-179.822 196.234 -178.959 196.665 -178.886 196.899C-178.813 197.138 -177.705 197.493 -176.363 197.709C-174.758 197.968 -173.917 198.267 -173.809 198.616C-173.441 199.805 -135.684 212.654 -110.407 220.193C-101.22 222.931 -93.4431 225.327 -93.1228 225.513C-92.2946 225.995 -61.0038 235.529 -46.6467 239.674C-42.042 241.003 -37.7184 242.285 -37.0379 242.521C-36.3589 242.758 -34.761 243.233 -33.4875 243.576C-28.7329 244.861 -25.8787 245.664 -16.0789 248.472C-7.81097 250.841 5.65338 254.425 15.7254 256.939C18.5006 257.63 16.8587 256.488 13.6533 255.496C10.8024 254.614 6.59769 252.811 8.21005 253.162C9.23544 253.385 9.25055 253.367 8.5791 252.681C8.06363 252.154 3.2005 250.627 -10.1298 246.805C-35.1727 239.627 -83.3587 225.551 -95.8733 221.758C-120.581 214.27 -140.453 208.071 -146.003 206.123C-149.286 204.97 -155.502 202.829 -159.817 201.365C-170.677 197.678 -186.585 191.731 -192.342 189.205C-197.318 187.021 -207.214 183.32 -213.207 181.402C-224.315 177.844 -231.702 174.805 -231.434 173.903C-231.296 173.436 -231.757 173.29 -224.996 175.949C-221.862 177.182 -217.223 178.778 -214.687 179.499C-209.36 181.01 -195.003 186.146 -192.087 187.582C-189.926 188.645 -188.267 189.341 -184.204 190.882C-182.743 191.435 -179.995 192.511 -178.096 193.274C-176.197 194.036 -173.067 195.203 -171.139 195.868C-169.211 196.533 -166.55 197.558 -165.225 198.146C-163.9 198.733 -160.203 200.062 -157.011 201.099C-153.819 202.134 -147.318 204.354 -142.566 206.028C-124.011 212.571 -69.6167 228.602 -14.8789 243.663C-2.74509 247.001 6.53998 249.485 5.75443 249.181C4.97025 248.877 1.64178 247.688 -1.642 246.539C-4.92648 245.39 -8.78415 243.917 -10.2157 243.264C-12.9037 242.04 -35.7163 234.866 -58.0245 228.231C-69.2703 224.887 -86.3828 219.444 -94.1565 216.739C-95.6293 216.226 -100.077 214.825 -104.039 213.626C-108.828 212.178 -111.364 211.245 -111.601 210.849C-111.797 210.519 -113.129 209.92 -114.574 209.512C-117.397 208.714 -118.566 207.589 -115.867 208.266C-111.584 209.345 -90.2844 215.499 -70.9493 221.243C-34.0373 232.21 27.1685 249.349 25.5699 248.27C24.8661 247.796 25.1183 247.822 26.5554 248.374C32.1491 250.525 36.5167 251.877 36.0322 251.309C35.6184 250.824 35.7188 250.772 36.5738 251.015C37.1504 251.178 38.3263 251.694 39.1895 252.156C40.0527 252.617 43.7351 253.951 47.3736 255.12C51.0127 256.287 54.0855 257.342 54.2023 257.463C54.3192 257.583 58.3081 259 63.0661 260.61C67.8247 262.221 73.7216 264.37 76.1689 265.386C85.5963 269.297 91.4216 272.007 91.5934 272.563C91.7247 272.985 94.3198 273.889 101.48 276.006C106.819 277.583 111.262 279.013 111.357 279.183C111.449 279.354 108.53 278.559 104.869 277.417C100.274 275.985 98.6984 275.601 99.7829 276.176C100.647 276.634 102.11 277.218 103.033 277.475C104.27 277.818 104.469 277.959 103.784 278.009C103.119 278.055 103.613 278.374 105.527 279.131C108.173 280.174 110.613 282.138 109.583 282.394C109.126 282.508 104.069 281.216 101.081 280.222C100.512 280.032 98.7253 279.675 97.1088 279.425C95.1198 279.119 92.557 278.341 89.1866 277.02C83.0589 274.617 82.0692 274.313 82.4472 274.935C82.6066 275.198 84.3777 276.088 86.3825 276.913C88.3887 277.737 90.8993 278.867 91.9632 279.421C93.0277 279.977 96.2359 281.227 99.0922 282.2L104.287 283.967L98.1981 282.28C94.849 281.351 90.5474 279.993 88.6402 279.261C86.733 278.529 82.8314 277.03 79.9716 275.929C77.1112 274.828 74.8212 273.756 74.8831 273.548C74.9525 273.315 74.0281 272.999 72.5113 272.734C70.9457 272.462 68.8742 271.739 66.9135 270.782C63.3417 269.04 58.7438 267.603 59.5672 268.488C59.8517 268.794 59.8702 268.988 59.6105 268.916C59.3479 268.847 58.9892 268.481 58.8105 268.107C58.4896 267.432 57.2724 266.992 42.2424 262.133C37.8177 260.703 36.4143 260.744 39.7352 262.207C40.6843 262.624 41.9221 263.38 42.4871 263.885C43.9248 265.166 47.7784 266.755 55.28 269.15C58.8188 270.282 62.3286 271.55 63.0798 271.971C63.8303 272.39 66.6488 273.572 69.3443 274.598C72.0398 275.622 75.7999 277.084 77.6988 277.844C79.5977 278.605 83.1001 279.896 85.4828 280.714C87.8649 281.531 90.9446 282.867 92.3288 283.681C93.7122 284.495 95.8682 285.67 97.1218 286.291C98.3754 286.912 99.3452 287.608 99.2785 287.835C99.1926 288.119 95.5013 287.154 87.3667 284.722C74.6899 280.934 73.5841 281.039 84.9048 284.957C95.794 288.727 96.7404 289.081 98.405 290.011C99.2627 290.49 100.993 291.206 102.251 291.602L104.536 292.323L102.578 292.027L100.619 291.734L102.043 292.693C102.828 293.221 103.312 293.783 103.122 293.941C102.676 294.318 90.9302 290.988 85.1158 288.837C79.6651 286.818 62.2585 281.314 62.4702 281.675C62.5534 281.816 64.5699 282.602 66.9512 283.422C73.6748 285.736 76.3875 286.849 76.0349 287.147C75.8562 287.298 75.2906 287.326 74.7779 287.209C73.6776 286.961 76.7923 288.369 81.9145 290.437C83.9241 291.247 87.1832 292.668 89.1591 293.592C91.1343 294.517 94.2875 295.952 96.1658 296.783C98.0448 297.612 99.018 298.156 98.3294 297.993C97.3473 297.756 97.1575 297.825 97.4462 298.309C97.649 298.648 99.3362 299.476 101.195 300.149L104.577 301.371L101.619 300.612C98.2036 299.738 98.4606 300.356 102.119 301.817C105.593 303.205 105.702 303.692 102.383 302.994C100.79 302.661 99.4407 302.563 99.3836 302.78C99.24 303.318 92.8841 301.855 89.2869 300.455C87.6664 299.824 84.61 298.748 82.4973 298.064C80.3833 297.381 75.4219 295.656 71.4701 294.23C63.5341 291.37 59.5514 290.65 58.1487 291.824C57.6201 292.266 57.581 292.439 57.981 292.574C60.6256 293.472 64.4991 295.785 67.2763 298.129C69.0255 299.604 70.6034 300.507 73.2433 301.546C75.2178 302.322 77.6919 303.359 78.7428 303.852C79.7922 304.343 80.795 304.625 80.9695 304.477C81.1441 304.329 80.8115 304.05 80.2286 303.857C78.65 303.331 78.4527 303.228 78.1847 302.778C78.0493 302.553 78.9435 302.755 80.1723 303.229C81.3998 303.704 84.5887 304.833 87.2574 305.739C89.9261 306.645 92.0683 307.522 92.0202 307.687C91.9707 307.852 92.8965 308.347 94.0793 308.789C95.26 309.231 98.5829 310.588 101.462 311.807C105.309 313.435 106.924 313.965 107.552 313.805C108.1 313.667 108.457 313.752 108.546 314.042C108.769 314.76 108.143 315.057 106.69 314.924C105.801 314.842 105.112 315.094 104.652 315.67C103.836 316.693 103.745 316.685 102.656 315.498C102.001 314.785 101.499 314.589 100.327 314.589C99.506 314.589 98.227 314.564 97.4861 314.533C96.2119 314.48 96.2462 314.524 98.1507 315.356C102.363 317.196 111.337 319.978 114.176 320.323C116.031 320.548 117.036 320.818 117.053 321.093C117.067 321.327 117.535 321.648 118.092 321.805C118.65 321.963 119.053 322.266 118.99 322.481C118.869 322.885 110.421 320.787 104.491 318.881C102.722 318.312 101.246 317.944 101.212 318.062C101.176 318.182 101.421 318.736 101.755 319.295C102.6 320.711 102.339 321.151 100.897 320.743C98.9335 320.188 98.851 320.857 100.747 321.972C102.709 323.127 105.764 323.72 107.955 323.372C109.766 323.085 110.392 323.253 109.529 323.796C109.16 324.027 107.845 324.24 106.605 324.27C103.946 324.333 103.566 324.668 105.829 324.954C106.732 325.068 107.223 325.257 106.952 325.384C106.419 325.636 97.4029 324.618 91.7501 323.668C84.8788 322.515 74.4418 320.09 66.877 317.887C61.6166 316.357 59.1527 315.787 58.8586 316.035C58.6256 316.232 58.4854 316.464 58.5466 316.552C58.6084 316.639 61.5424 317.673 65.0688 318.851C68.5938 320.029 72.2192 321.251 73.125 321.568C74.0308 321.885 77.1888 322.96 80.1427 323.956C83.098 324.954 86.1344 326.114 86.8931 326.532C88.4807 327.411 92.9886 328.725 95.2456 328.966L96.7878 329.131L95.6091 328.508C94.961 328.167 93.4855 327.598 92.3315 327.244C90.5598 326.7 90.2683 326.485 90.456 325.855C90.6477 325.208 91.1054 325.193 93.9102 325.754C95.6889 326.11 99.3857 326.967 102.126 327.657L107.109 328.912L104.917 329.741C103.71 330.197 102.269 330.555 101.713 330.534C101.155 330.514 100.654 330.655 100.597 330.846C100.473 331.261 104.11 332.292 106.944 332.647C108.065 332.785 110.399 333.472 112.136 334.173C115.564 335.559 118.755 336.152 117.895 335.246C117.622 334.958 116.379 334.431 115.131 334.076C111.545 333.05 112.886 333.124 117.777 334.222C120.238 334.775 123.487 335.459 124.996 335.743C127.221 336.16 127.675 336.35 127.389 336.742C127.13 337.096 126.114 336.975 123.567 336.287C120.394 335.428 119.978 335.409 118.668 336.074C117.458 336.69 117.317 336.888 117.755 337.352C118.147 337.767 117.908 337.815 116.788 337.551C115.972 337.356 116.65 337.707 118.297 338.329C120.2 339.049 121.371 339.704 121.507 340.127C121.826 341.116 121.714 341.241 120.338 341.412C119.394 341.531 116.57 340.786 109.058 338.439C100.045 335.624 98.9617 335.358 98.2758 335.788C97.8565 336.053 96.9184 336.114 96.1926 335.924C95.4676 335.736 94.4518 335.624 93.9363 335.678C92.893 335.787 93.0587 335.856 99.2043 337.836C102.63 338.939 108.082 341.217 106.382 340.834C105.854 340.715 105.384 340.751 105.335 340.913C105.049 341.88 101.551 341.694 97.0579 340.472C95.9012 340.157 94.6813 339.997 94.3473 340.117C94.0133 340.237 92.4807 340.035 90.9432 339.667C89.4037 339.3 88.0051 339.07 87.8333 339.157C87.3564 339.399 88.3618 340.856 89.2106 341.152C89.6457 341.304 89.3907 341.403 88.6038 341.388C87.5481 341.367 87.6787 341.432 89.1982 341.682C90.2718 341.858 92.7425 342.384 94.6923 342.847C96.64 343.311 98.5314 343.572 98.8929 343.429C99.2545 343.285 100.604 343.531 101.891 343.974C103.26 344.445 104.405 344.641 104.65 344.445C104.88 344.26 105.551 344.209 106.139 344.333C106.727 344.455 107.752 344.619 108.416 344.696C113.024 345.238 113.236 345.283 112.831 345.625C112.601 345.818 112.061 345.876 111.629 345.755C110.873 345.541 109.63 346.691 109.981 347.28C110.074 347.436 110.719 347.407 111.413 347.215C112.59 346.89 112.681 346.915 112.751 347.588C112.827 348.321 110.892 349.319 109.901 349.058C109.638 348.988 108.804 349.041 108.049 349.175C107.293 349.308 106.355 349.328 105.966 349.218C105.575 349.11 105.109 349.146 104.928 349.297C104.513 349.647 115.806 352.531 119.021 352.896C121.638 353.193 123.224 353.562 122.804 353.774C122.016 354.174 115.099 352.891 108.23 351.069C101.668 349.329 100.168 349.049 98.7541 349.301C96.9074 349.631 94.9995 349.423 89.4966 348.293C87.487 347.88 85.4993 347.686 85.0787 347.862C83.7516 348.414 80.573 349.222 80.1723 349.108C79.9613 349.048 79.3325 349.251 78.7751 349.558C78.171 349.892 76.7064 350.005 75.1518 349.837C73.7161 349.684 72.1051 349.751 71.5731 349.985C70.8941 350.286 69.6117 350.177 67.2777 349.621C64.5829 348.981 63.7609 348.942 62.9547 349.412L61.9589 349.992L70.2296 351.987C81.3551 354.673 86.2485 356.024 86.742 356.548C87.0072 356.828 86.845 356.901 86.2932 356.747C85.8203 356.618 85.2052 356.62 84.9289 356.754C84.6513 356.887 83.5248 356.929 82.4238 356.846C80.641 356.71 80.5565 356.744 81.6506 357.153C83.9186 358.001 75.2212 356.068 68.778 354.29C65.0262 353.255 62.2407 352.66 62.0208 352.845C61.1053 353.618 76.9916 357.648 83.9276 358.401L87.0863 358.745L85.0148 358.07C83.1853 357.475 83.4279 357.463 87.0897 357.972C89.3708 358.288 91.8394 358.718 92.5776 358.928C93.315 359.137 94.9012 359.308 96.1012 359.309C98.9452 359.312 100.219 359.678 99.9953 360.43C99.673 361.514 94.6882 361.489 87.7426 360.364C75.8226 358.435 74.4281 358.128 67.9079 355.984C64.2626 354.785 59.3163 353.192 56.9136 352.444C54.5103 351.695 50.2196 350.302 47.3784 349.349C43.7303 348.124 40.6287 347.359 36.8281 346.748C31.2398 345.848 29.8976 345.815 32.3127 346.636C37.0219 348.238 19.4181 343.8 0.984039 338.737C-10.9202 335.468 -22.7516 332.26 -25.3083 331.608C-27.8642 330.957 -30.792 330.138 -31.8133 329.79V329.789C-32.8339 329.439 -35.8792 328.328 -38.5802 327.319C-53.5483 321.719 -54.7675 321.316 -73.1369 315.878C-78.0771 314.416 -84.3161 312.349 -86.9992 311.284C-100.267 306.021 -110.738 302.448 -110.483 303.272C-110.417 303.485 -110.551 303.606 -110.782 303.54C-111.013 303.475 -111.266 303.213 -111.345 302.959C-111.429 302.701 -113.472 301.924 -115.967 301.199Z" fill="#C5E1CD"/>
<path d="M410.85 259.141C409.1 258.783 406.951 258.224 406.076 257.903C402.729 256.672 398.361 255.496 390.918 253.822C386.675 252.866 383.117 252.006 383.01 251.91C382.903 251.813 380.441 251.211 377.539 250.576C372.425 249.452 367.779 248.303 364.46 247.339C363.573 247.081 361.653 246.563 360.193 246.189C358.732 245.813 356.152 245.106 354.458 244.616C352.765 244.126 349.984 243.434 348.279 243.08C346.575 242.724 345.099 242.358 344.999 242.266C344.899 242.175 342.454 241.485 339.566 240.734C336.677 239.979 333.788 239.141 333.144 238.868C331.771 238.284 324.241 236.337 324.43 236.616C324.578 236.831 331.144 238.893 337.999 240.873C340.581 241.62 343.807 242.592 345.17 243.035C349.217 244.352 354.76 245.882 363.837 248.188C368.544 249.384 373.449 250.686 374.735 251.085C376.615 251.666 376.379 251.634 373.529 250.921C371.579 250.433 369.251 249.862 368.355 249.654C356.51 246.892 349.11 244.958 344.332 243.374C342.572 242.79 339.939 241.99 338.482 241.597C332.685 240.032 317.302 235.012 316.748 234.504C316.209 234.01 310.618 232.234 310.242 232.437C309.981 232.578 309.432 232.472 308.706 232.143C308.085 231.861 306.652 231.367 305.521 231.045C304.392 230.724 302.762 230.137 301.902 229.74C300.152 228.935 296.575 227.733 293.03 226.759C291.736 226.403 289.694 225.79 288.494 225.394C287.292 224.998 284.27 224.052 281.776 223.29C279.283 222.529 276.339 221.533 275.234 221.079C274.128 220.627 272.504 220.02 271.622 219.731C270.741 219.444 269.586 218.922 269.057 218.571C268.528 218.219 266.867 217.492 265.368 216.953C262.349 215.87 259.619 214.491 259.694 214.088C259.738 213.853 260.282 214.064 261.391 214.745C261.631 214.892 261.753 214.817 261.715 214.543C261.68 214.294 260.694 213.681 259.41 213.112C258.175 212.566 257.122 212.055 257.069 211.977C257.016 211.901 257.602 211.985 258.373 212.165C260.101 212.571 260.559 212.063 259.263 211.176C258.76 210.833 258.418 210.552 258.503 210.552C258.588 210.554 259.737 210.731 261.057 210.947C262.487 211.182 264.102 211.235 265.051 211.079C266.125 210.905 267.526 210.98 269.338 211.308C270.818 211.578 272.391 211.725 272.832 211.637L273.635 211.477L272.806 210.953C272.35 210.664 271.578 210.337 271.091 210.225C270.604 210.114 269.848 209.694 269.412 209.29C268.662 208.594 268.658 208.57 269.338 208.839C274.026 210.686 275.127 210.967 275.426 210.391C275.758 209.753 274.184 208.655 272.078 208.057C270.905 207.725 269.875 207.35 269.79 207.227C269.612 206.965 276.321 208.475 278.194 209.118C279.563 209.587 280.37 209.365 280.537 208.476C280.592 208.182 280.415 207.831 280.143 207.692C279.708 207.471 270.129 205.392 265.882 204.596C265.02 204.434 264.334 204.196 264.358 204.066C264.471 203.469 266.716 203.302 268.875 203.728C271.199 204.192 271.866 203.952 270.543 203.134C269.48 202.476 266.001 201.873 264.247 202.042C261.249 202.332 261.685 201.825 264.779 201.424C267.37 201.086 269.094 201.458 271.836 202.943C274.615 204.451 277.983 205.843 279.644 206.173C280.552 206.352 281.101 206.275 281.628 205.895C282.029 205.607 282.376 205.273 282.398 205.153C282.42 205.035 282.86 204.929 283.375 204.919C284.323 204.902 286.705 203.624 286.808 203.076C286.861 202.792 282.718 201.127 282.064 201.169C281.892 201.18 280.912 200.913 279.886 200.573C277.912 199.922 276.314 199.008 276.075 198.39C275.996 198.187 275.483 197.719 274.935 197.348L273.94 196.677L274.881 196.607C275.522 196.559 276.081 196.725 276.638 197.128C277.087 197.453 278.622 198.014 280.05 198.374C281.477 198.734 282.713 199.13 282.797 199.252C283.088 199.676 284.982 199.875 285.493 199.533C285.942 199.231 285.861 199.117 284.838 198.617C284.195 198.302 283.733 198.003 283.809 197.951C284.014 197.814 287.25 199.361 287.869 199.893C288.162 200.144 288.663 200.44 288.983 200.547C289.303 200.655 290.204 200.972 290.986 201.249C292.033 201.62 292.37 201.651 292.26 201.368C292.178 201.157 292.153 200.992 292.203 201.003C292.413 201.045 296.401 202.744 297.533 203.273C298.529 203.739 298.893 203.786 299.487 203.526C299.933 203.331 300.88 203.338 301.922 203.543C302.86 203.729 303.735 203.765 303.866 203.623C304.152 203.313 306.412 203.747 308.119 204.438C308.798 204.713 309.362 204.82 309.389 204.677C309.415 204.537 310.049 204.543 310.796 204.691C312.243 204.978 312.519 204.448 311.101 204.104C310.601 203.982 310.508 203.897 310.853 203.879C311.482 203.842 311.68 203.358 311.139 203.179C310.939 203.113 310.447 202.95 310.047 202.818C309.647 202.684 307.32 202.106 304.878 201.531C298.752 200.089 294.587 198.785 292.684 197.707C291.799 197.206 290.276 196.638 289.299 196.444C287.853 196.157 287.485 195.975 287.323 195.464C287.213 195.119 286.736 194.668 286.263 194.464C285.327 194.058 285.25 193.819 285.91 193.378C286.246 193.154 286.226 192.929 285.821 192.337C285.316 191.599 285.275 191.587 283.918 191.836C283.156 191.974 282.257 192.252 281.923 192.451C281.497 192.702 281.334 192.699 281.382 192.443C281.505 191.786 283.472 190.889 285.008 190.789C286.812 190.668 301.194 193.431 302.653 194.177C303.172 194.442 305.198 195.132 307.158 195.713C309.117 196.291 311.112 196.894 311.594 197.049C312.075 197.207 315.024 198.173 318.147 199.198C321.271 200.225 324.025 201.121 324.268 201.19C324.509 201.259 326.081 201.783 327.76 202.355C329.437 202.926 334.258 204.303 338.471 205.414C342.684 206.527 348.43 208.162 351.24 209.046C357.681 211.076 363.917 212.796 369.614 214.112C372.06 214.679 374.568 215.318 375.188 215.535C375.983 215.81 376.273 215.817 376.171 215.554C376.07 215.293 376.544 215.282 377.733 215.518C381.868 216.338 377.27 214.846 369.25 212.763C367.628 212.343 365.709 211.819 364.984 211.6C364.26 211.382 361.748 210.682 359.401 210.046C357.055 209.409 354.11 208.541 352.857 208.114C351.605 207.687 349.829 207.146 348.909 206.91C347.26 206.487 343.004 205.218 337.88 203.622C335.23 202.797 328.382 201.009 320.831 199.17C318.58 198.622 316.459 198.001 316.118 197.788C315.185 197.211 312.145 195.845 309.394 194.767C308.047 194.238 306.838 193.588 306.707 193.322C306.576 193.058 305.816 192.658 305.018 192.435L303.568 192.03L304.994 192.258C306.191 192.449 306.438 192.393 306.528 191.909C306.61 191.475 306.369 191.224 305.558 190.903C304.236 190.379 302.461 189.181 301.785 188.354C301.282 187.739 301.282 187.739 301.839 188.065C304.216 189.454 305.348 189.91 308.47 190.74C310.667 191.325 312.328 191.925 312.822 192.314C313.291 192.682 313.82 192.879 314.103 192.792C314.561 192.651 320.604 194.372 324.661 195.8C327.764 196.891 331.437 197.744 331.279 197.335C331.186 197.096 331.315 197.095 331.667 197.327C331.956 197.52 334.263 198.139 336.792 198.704C339.322 199.271 341.579 199.855 341.805 200.004C342.033 200.153 343.462 200.524 344.983 200.827C346.503 201.131 347.79 201.49 347.842 201.625C347.895 201.761 348.653 201.965 349.528 202.077C350.444 202.196 350.932 202.354 350.679 202.451C350.229 202.622 351.494 203.058 357.307 204.73C359.001 205.217 361.836 206.052 363.606 206.586C367.382 207.725 375.297 209.865 378.468 210.601C382.888 211.628 389.214 213.228 389.366 213.36C389.451 213.432 392.187 214.112 395.446 214.868C398.706 215.626 402.77 216.587 404.477 217.002C418.123 220.333 422.512 221.305 432.086 223.114C438.081 224.245 443.09 225.176 443.217 225.179C443.344 225.182 443.484 224.993 443.528 224.76C443.615 224.297 444.717 224.065 445.113 224.428C445.319 224.615 452.676 226.218 455.225 226.629C455.882 226.735 455.925 226.688 455.603 226.218C455.345 225.842 454.478 225.515 452.628 225.098C451.193 224.775 449.976 224.399 449.924 224.266C449.871 224.131 449.475 224.104 449.041 224.206C448.444 224.345 448.161 224.277 447.868 223.924C447.656 223.667 447.461 223.575 447.434 223.716C447.371 224.048 434.868 221.571 434.238 221.1C433.929 220.868 433.558 220.851 433.184 221.046C432.697 221.303 432.658 221.294 432.935 220.988C433.209 220.686 432.781 220.568 430.268 220.25C428.365 220.008 426.991 219.695 426.5 219.393C425.929 219.039 425.766 219.012 425.874 219.292C425.983 219.572 424.659 219.337 420.73 218.378C417.82 217.668 413.341 216.655 410.778 216.13C408.214 215.604 406.197 215.087 406.296 214.981C406.394 214.875 406.146 214.825 405.745 214.872C405.344 214.918 403.283 214.549 401.166 214.052C397.784 213.259 397.572 213.18 399.433 213.403C400.853 213.572 399.162 213.101 394.29 211.968C390.298 211.039 384.438 209.64 381.269 208.859C372.84 206.783 367.577 205.56 358.762 203.63C351.162 201.967 344.741 200.247 336.816 197.755C334.729 197.098 332.297 196.342 331.412 196.074C330.527 195.806 329.277 195.421 328.634 195.218C326.032 194.401 320.981 192.925 320.336 192.798C319.957 192.722 319.74 192.56 319.855 192.437C320.05 192.225 317.033 191.133 314.216 190.397C313.882 190.309 313.715 190.122 313.845 189.983C313.991 189.823 313.723 189.728 313.138 189.727C312.565 189.727 312.218 189.604 312.253 189.417C312.286 189.246 312.09 188.987 311.82 188.842C311.549 188.697 311.974 188.771 312.763 189.006C313.552 189.243 314.328 189.592 314.486 189.784C314.646 189.976 315.037 190.184 315.358 190.247C315.679 190.311 317.311 190.845 318.986 191.436C320.661 192.027 324.14 193.14 326.716 193.907C329.294 194.675 333.043 195.829 335.047 196.472C337.053 197.117 341.47 198.417 344.864 199.363C348.257 200.31 351.428 201.209 351.91 201.361C352.391 201.511 355.591 202.259 359.019 203.02C362.448 203.779 364.692 204.228 364.005 204.016C363.199 203.766 362.849 203.527 363.019 203.343C363.171 203.179 363.129 203.116 362.918 203.195C362.718 203.269 361.08 202.944 359.277 202.473C357.406 201.984 356.186 201.545 356.434 201.454C356.673 201.365 355.881 201.181 354.675 201.043C353.295 200.886 352.5 200.685 352.535 200.5C352.565 200.337 350.976 199.721 349.005 199.128C347.033 198.536 345.129 197.928 344.774 197.779C344.344 197.596 344.104 197.645 344.051 197.926C344.004 198.174 343.767 198.258 343.472 198.128C343.197 198.005 340.542 197.211 337.572 196.361C334.603 195.513 332.072 194.725 331.949 194.612C331.577 194.271 331.786 193.895 332.368 193.862C332.669 193.846 332.176 193.689 331.273 193.517C330.371 193.344 329.99 193.329 330.428 193.487C330.867 193.643 331.201 193.902 331.171 194.06C331.141 194.221 330.695 194.199 330.175 194.011C329.658 193.825 328.243 193.392 327.032 193.05C324.292 192.277 315.309 189.37 314.934 189.136C314.406 188.803 317.352 189.476 318.543 189.959C319.568 190.373 319.777 190.371 319.98 189.944C320.185 189.515 320.641 189.516 323.251 189.95C324.919 190.226 326.262 190.568 326.235 190.709C326.209 190.849 326.679 190.969 327.281 190.976C327.883 190.984 329.92 191.438 331.807 191.986C333.695 192.533 337.883 193.722 341.114 194.632C348.915 196.823 358.255 199.652 360.522 200.513C361.527 200.894 363.015 201.249 363.829 201.303C364.642 201.355 365.36 201.534 365.424 201.699C365.488 201.862 366.719 202.227 368.16 202.506C369.604 202.785 371.04 203.224 371.362 203.484C371.682 203.743 372.525 204.062 373.235 204.192C374.278 204.379 374.421 204.349 373.982 204.027C373.559 203.717 373.656 203.707 374.416 203.981C374.953 204.174 375.678 204.394 376.026 204.464C376.497 204.561 376.543 204.639 376.203 204.769C375.928 204.875 377.666 205.414 380.587 206.126C383.248 206.777 385.888 207.442 386.452 207.604C387.017 207.763 389.477 208.376 391.918 208.96C394.359 209.545 398.752 210.603 401.681 211.31C407.995 212.837 418.105 214.841 420.984 215.137C422.136 215.254 423.01 215.464 422.982 215.612C422.954 215.758 422.219 215.787 421.347 215.675C420.475 215.564 424.726 216.455 430.793 217.655C436.861 218.854 440.538 219.534 438.966 219.169C436.406 218.572 436.133 218.451 436.345 218.007C436.553 217.571 436.332 217.463 434.402 217.066C433.204 216.821 428.836 215.844 424.695 214.893C417.842 213.323 417.174 213.214 417.26 213.679C417.385 214.357 417.064 214.268 416.708 213.526C416.495 213.081 415.817 212.762 413.977 212.25L411.528 211.565L414.423 212.199C416.017 212.548 417.335 212.752 417.354 212.653C417.406 212.374 411.814 211.18 411.337 211.367C410.88 211.549 406.278 210.717 406.324 210.462C406.34 210.378 405.789 210.248 405.1 210.179C404.229 210.09 403.928 209.963 404.113 209.762C404.301 209.559 403.857 209.383 402.641 209.175L400.901 208.877L402.353 209.376C403.692 209.835 403.618 209.841 401.413 209.444C399.776 209.148 399.179 208.951 399.521 208.815C399.863 208.68 399.473 208.551 398.284 208.405C397.303 208.284 396.569 208.069 396.599 207.912C396.628 207.757 395.877 207.493 394.932 207.323C393.619 207.085 393.378 207.101 393.912 207.395L394.613 207.78L393.825 207.654C393.391 207.584 392.906 207.296 392.748 207.011C392.589 206.726 392.173 206.447 391.822 206.389C391.2 206.288 391.197 206.293 391.732 206.657C392.132 206.928 391.877 206.945 390.793 206.719C389.513 206.453 389.436 206.403 390.242 206.361C391.057 206.32 390.985 206.271 389.693 205.987C388.587 205.744 388.308 205.762 388.598 206.056C388.87 206.33 387.325 206.063 383.507 205.174C375.127 203.221 373.359 202.748 373.224 202.428C373.156 202.267 370.434 201.517 367.174 200.763C363.914 200.007 359.799 198.951 358.029 198.414C356.259 197.878 353.679 197.168 352.295 196.841C345.2 195.158 336.436 192.909 333.71 192.071C332.021 191.551 329.981 190.931 329.176 190.689C327.615 190.222 325.635 189.481 323.542 188.579C322.181 187.994 318.11 186.578 316.141 186.006C315.496 185.817 313.744 185.326 312.247 184.909C310.751 184.496 309.475 184.022 309.411 183.86C309.348 183.698 308.869 183.476 308.346 183.37C307.394 183.177 305.462 182.182 305.148 181.724C305.057 181.591 304.301 181.345 303.468 181.176C302.635 181.007 301.776 180.703 301.559 180.496C301.272 180.224 301.514 180.189 302.458 180.373C303.717 180.617 303.749 180.603 303.722 179.758C303.701 179.132 303.863 178.802 304.306 178.572C305.849 177.768 306.331 177.758 308.347 178.493C311.483 179.639 315.323 180.795 318.697 181.607C320.421 182.022 322.732 182.683 323.832 183.074C327.261 184.294 330.112 185.194 332.562 185.833C335.329 186.554 334.639 186.189 329.467 184.198C325.327 182.605 320.173 180.389 317.45 179.031C316.361 178.489 315.176 177.988 314.818 177.917C314.458 177.846 314.106 177.639 314.035 177.457C313.964 177.274 313.579 177.059 313.178 176.98C312.65 176.876 312.481 176.676 312.562 176.246C312.651 175.769 312.459 175.602 311.564 175.386C310.954 175.237 311.746 175.28 313.324 175.48C314.902 175.68 316.386 175.99 316.622 176.167C316.857 176.343 318.086 176.695 319.351 176.946C321.114 177.295 321.713 177.308 321.906 176.997C322.28 176.397 322.024 176.195 320.242 175.688C319.354 175.436 318.649 175.116 318.675 174.98C318.701 174.843 318.943 174.848 319.213 174.993C319.484 175.137 319.411 174.972 319.05 174.626L318.395 173.996L319.402 174.396C319.957 174.616 321.34 175.033 322.476 175.32C324.635 175.869 326.049 176.268 331.872 177.975C333.807 178.544 336.12 179.192 337.013 179.417C340.759 180.362 347.225 182.226 352.413 183.86C355.464 184.819 358.533 185.729 359.233 185.878C359.932 186.028 360.557 186.289 360.622 186.456C360.689 186.627 361.479 186.815 362.423 186.883C363.551 186.965 364.153 187.13 364.25 187.38C364.58 188.231 391.561 195.156 409.557 199.009C416.097 200.409 421.638 201.649 421.872 201.765C422.476 202.064 444.767 206.983 454.978 209.068C458.255 209.737 461.331 210.389 461.817 210.518C462.303 210.646 463.441 210.888 464.345 211.056C467.722 211.683 469.75 212.081 476.72 213.49C482.601 214.679 492.159 216.412 499.297 217.585C501.265 217.909 500.056 217.175 497.77 216.66C495.739 216.202 492.711 215.156 493.85 215.308C494.575 215.402 494.584 215.389 494.075 214.928C493.684 214.573 490.216 213.775 480.738 211.858C462.928 208.257 428.642 201.132 419.728 199.18C402.131 195.328 387.967 192.099 383.996 191.037C381.649 190.409 377.205 189.25 374.122 188.461C366.362 186.477 354.96 183.164 350.81 181.69C347.223 180.416 340.13 178.356 335.856 177.345C327.932 175.474 322.62 173.732 322.748 173.047C322.815 172.694 322.485 172.618 327.34 174.12C329.59 174.818 332.906 175.681 334.709 176.042C338.497 176.798 348.772 179.614 350.884 180.476C352.448 181.116 353.642 181.516 356.556 182.378C357.604 182.688 359.577 183.296 360.94 183.729C362.305 184.162 364.549 184.813 365.927 185.173C367.305 185.533 369.214 186.109 370.17 186.452C371.126 186.797 373.771 187.527 376.049 188.076C378.327 188.624 382.972 189.821 386.372 190.735C399.646 194.306 438.358 202.454 477.248 209.862C485.868 211.504 492.46 212.708 491.897 212.536C491.333 212.365 488.95 211.714 486.603 211.088C484.254 210.464 481.487 209.637 480.453 209.252C478.514 208.53 462.25 204.782 446.369 201.398C438.363 199.691 426.158 196.832 420.6 195.363C419.546 195.085 416.376 194.352 413.554 193.735C410.144 192.99 408.327 192.474 408.138 192.198C407.98 191.968 407.019 191.617 405.992 191.412C403.985 191.014 403.104 190.263 405.017 190.581C408.054 191.087 423.205 194.186 436.968 197.116C463.243 202.711 506.746 211.213 505.57 210.526C505.051 210.223 505.228 210.225 506.259 210.536C510.272 211.744 513.384 212.447 513.012 212.061C512.695 211.732 512.762 211.685 513.369 211.807C513.78 211.889 514.627 212.19 515.255 212.473C515.882 212.755 518.518 213.49 521.114 214.105C523.71 214.721 525.906 215.291 525.995 215.373C526.084 215.453 528.937 216.229 532.338 217.094C535.738 217.961 539.96 219.147 541.722 219.73C548.502 221.98 552.712 223.585 552.866 223.983C552.984 224.286 554.839 224.776 559.935 225.854C563.736 226.657 566.906 227.41 566.982 227.53C567.057 227.651 564.983 227.261 562.374 226.667C559.098 225.92 557.983 225.743 558.771 226.095C559.399 226.374 560.449 226.707 561.105 226.833C561.984 227.002 562.131 227.094 561.66 227.175C561.202 227.257 561.564 227.458 562.939 227.885C564.838 228.476 566.654 229.759 565.958 230.019C565.647 230.134 562.061 229.522 559.929 228.992C559.522 228.891 558.26 228.748 557.124 228.672C555.727 228.581 553.902 228.179 551.481 227.433C547.083 226.076 546.378 225.916 546.68 226.351C546.806 226.535 548.091 227.071 549.532 227.544C550.974 228.017 552.786 228.68 553.558 229.017C554.331 229.355 556.633 230.062 558.674 230.585L562.387 231.538L558.059 230.704C555.679 230.247 552.612 229.535 551.244 229.124C549.877 228.713 547.077 227.871 545.025 227.253C542.973 226.634 541.317 225.998 541.347 225.839C541.38 225.663 540.72 225.491 539.651 225.4C538.549 225.305 537.067 224.911 535.649 224.338C533.063 223.295 529.785 222.547 530.412 223.144C530.628 223.351 530.654 223.49 530.469 223.456C530.283 223.423 530.011 223.179 529.863 222.913C529.598 222.438 528.728 222.196 518.002 219.628C514.845 218.871 513.874 218.997 516.27 219.851C516.954 220.095 517.86 220.568 518.283 220.902C519.361 221.753 522.133 222.663 527.484 223.923C530.007 224.518 532.52 225.216 533.068 225.475C533.614 225.734 535.642 226.414 537.576 226.989C539.509 227.564 542.207 228.386 543.572 228.819C544.936 229.251 547.446 229.968 549.148 230.409C550.852 230.852 553.07 231.627 554.081 232.134C555.091 232.641 556.66 233.362 557.568 233.735C558.476 234.11 559.193 234.557 559.159 234.728C559.118 234.944 556.5 234.482 550.709 233.24C541.683 231.3 540.923 231.453 549.016 233.579C556.801 235.623 557.48 235.82 558.693 236.393C559.317 236.689 560.562 237.099 561.458 237.307L563.087 237.683L561.713 237.598L560.337 237.514L561.383 238.126C561.961 238.46 562.333 238.843 562.212 238.973C561.926 239.282 553.574 237.62 549.408 236.425C545.503 235.306 533.091 232.423 533.262 232.674C533.328 232.773 534.774 233.216 536.478 233.66C541.283 234.913 543.234 235.55 543.009 235.794C542.895 235.917 542.504 235.977 542.141 235.926C541.361 235.816 543.611 236.645 547.292 237.823C548.735 238.285 551.085 239.113 552.512 239.661C553.94 240.21 556.216 241.055 557.57 241.541C558.926 242.026 559.634 242.361 559.147 242.286C558.452 242.178 558.324 242.242 558.555 242.579C558.718 242.816 559.94 243.313 561.269 243.684L563.689 244.356L561.592 243.998C559.17 243.583 559.387 244.022 562.015 244.852C564.511 245.641 564.616 245.991 562.273 245.703C561.148 245.563 560.207 245.585 560.18 245.747C560.115 246.155 555.617 245.503 553.036 244.714C551.871 244.358 549.687 243.772 548.178 243.41C546.671 243.049 543.123 242.113 540.293 241.33C534.612 239.755 531.807 239.493 530.909 240.455C530.572 240.816 530.556 240.948 530.84 241.021C532.73 241.503 535.561 242.948 537.635 244.488C538.941 245.459 540.092 246.018 541.987 246.605C543.405 247.046 545.186 247.643 545.945 247.934C546.704 248.226 547.416 248.367 547.529 248.246C547.64 248.125 547.391 247.941 546.974 247.837C545.848 247.557 545.704 247.494 545.49 247.18C545.382 247.022 546.015 247.111 546.896 247.378C547.777 247.646 550.058 248.263 551.965 248.752C553.871 249.239 555.412 249.74 555.389 249.864C555.365 249.991 556.039 250.292 556.886 250.539C557.733 250.785 560.121 251.562 562.194 252.266C564.963 253.206 566.116 253.488 566.541 253.327C566.912 253.189 567.166 253.227 567.246 253.435C567.445 253.949 567.03 254.211 566.015 254.211C565.394 254.211 564.932 254.443 564.65 254.898C564.149 255.709 564.087 255.71 563.256 254.909C562.757 254.427 562.398 254.317 561.586 254.396C561.015 254.451 560.128 254.52 559.612 254.547C558.725 254.593 558.753 254.623 560.125 255.107C563.161 256.18 569.557 257.626 571.546 257.689C572.847 257.729 573.559 257.859 573.589 258.062C573.613 258.234 573.958 258.438 574.352 258.516C574.75 258.593 575.049 258.791 575.018 258.955C574.961 259.261 568.972 258.283 564.743 257.279C563.481 256.979 562.436 256.808 562.418 256.897C562.401 256.987 562.605 257.38 562.873 257.77C563.548 258.758 563.395 259.1 562.37 258.896C560.974 258.62 560.96 259.119 562.344 259.813C563.778 260.533 565.933 260.764 567.427 260.36C568.665 260.024 569.109 260.106 568.547 260.565C568.305 260.761 567.407 261.008 566.551 261.113C564.712 261.338 564.469 261.614 566.056 261.672C566.689 261.694 567.041 261.799 566.861 261.912C566.508 262.133 560.195 261.993 556.218 261.676C551.383 261.289 543.996 260.204 538.615 259.093C534.873 258.318 533.129 258.065 532.941 258.269C532.79 258.428 532.708 258.61 532.757 258.67C532.805 258.731 534.904 259.294 537.422 259.925C539.939 260.555 542.53 261.212 543.177 261.384C543.825 261.557 546.082 262.136 548.192 262.673C550.303 263.207 552.482 263.857 553.034 264.115C554.19 264.657 557.397 265.32 558.977 265.346L560.055 265.363L559.199 264.983C558.727 264.775 557.669 264.455 556.848 264.273C555.585 263.991 555.371 263.852 555.459 263.373C555.552 262.882 555.869 262.843 557.847 263.066C559.102 263.208 561.719 263.591 563.663 263.913L567.194 264.503L565.728 265.262C564.922 265.68 563.944 266.041 563.558 266.065C563.171 266.087 562.832 266.225 562.805 266.369C562.746 266.686 565.331 267.2 567.317 267.267C568.103 267.294 569.765 267.643 571.012 268.043C573.476 268.834 575.724 269.057 575.071 268.445C574.864 268.252 573.968 267.946 573.081 267.768C570.53 267.256 571.464 267.219 574.923 267.698C576.664 267.94 578.958 268.225 580.022 268.331C581.591 268.489 581.918 268.599 581.745 268.907C581.587 269.186 580.876 269.164 579.068 268.829C576.813 268.41 576.524 268.425 575.66 269.005C574.86 269.54 574.775 269.696 575.108 270.009C575.405 270.288 575.242 270.34 574.45 270.22C573.871 270.133 574.364 270.346 575.545 270.693C576.909 271.096 577.763 271.5 577.884 271.802C578.167 272.511 578.097 272.61 577.153 272.829C576.508 272.981 574.504 272.622 569.149 271.399C562.724 269.932 561.957 269.809 561.509 270.174C561.234 270.395 560.589 270.504 560.075 270.414C559.56 270.324 558.848 270.31 558.494 270.386C557.778 270.535 557.898 270.575 562.282 271.62C564.726 272.203 568.649 273.514 567.446 273.346C567.074 273.295 566.749 273.355 566.726 273.478C566.588 274.208 564.153 274.307 560.962 273.71C560.141 273.557 559.285 273.521 559.061 273.632C558.837 273.744 557.762 273.698 556.673 273.532C555.583 273.364 554.599 273.289 554.485 273.366C554.171 273.576 554.96 274.583 555.566 274.743C555.876 274.826 555.706 274.916 555.16 274.959C554.428 275.015 554.522 275.054 555.591 275.136C556.346 275.194 558.093 275.412 559.472 275.623C560.852 275.834 562.179 275.898 562.42 275.77C562.662 275.638 563.612 275.726 564.533 275.968C565.511 276.223 566.318 276.289 566.473 276.128C566.623 275.976 567.083 275.893 567.499 275.943C567.914 275.994 568.634 276.047 569.099 276.058C572.327 276.146 572.477 276.165 572.218 276.445C572.072 276.603 571.7 276.683 571.393 276.621C570.858 276.514 570.068 277.448 570.348 277.858C570.422 277.966 570.868 277.901 571.337 277.714C572.131 277.394 572.196 277.407 572.287 277.898C572.387 278.433 571.108 279.299 570.407 279.174C570.219 279.141 569.645 279.236 569.13 279.385C568.615 279.536 567.967 279.614 567.689 279.56C567.411 279.505 567.09 279.563 566.974 279.689C566.71 279.975 574.719 281.337 576.969 281.39C578.802 281.433 579.924 281.597 579.646 281.782C579.127 282.13 574.251 281.651 569.376 280.772C564.719 279.932 563.661 279.829 562.697 280.109C561.439 280.477 560.102 280.453 556.217 279.991C554.799 279.823 553.409 279.814 553.129 279.972C552.244 280.469 550.092 281.279 549.808 281.223C549.659 281.194 549.235 281.385 548.868 281.65C548.471 281.936 547.464 282.12 546.375 282.101C545.371 282.085 544.26 282.242 543.905 282.451C543.453 282.72 542.558 282.726 540.905 282.474C538.997 282.184 538.425 282.211 537.896 282.612L537.242 283.106L543.101 284.02C550.981 285.248 554.457 285.914 554.833 286.268C555.034 286.457 554.927 286.52 554.535 286.446C554.198 286.382 553.773 286.425 553.588 286.542C553.406 286.659 552.628 286.766 551.859 286.778C550.615 286.8 550.558 286.831 551.342 287.059C552.968 287.532 546.819 286.692 542.24 285.818C539.574 285.307 537.607 285.057 537.466 285.209C536.882 285.841 548.145 287.739 553.001 287.826L555.212 287.866L553.733 287.508C552.427 287.191 552.595 287.167 555.165 287.293C556.765 287.374 558.503 287.524 559.028 287.627C559.553 287.732 560.662 287.751 561.494 287.671C563.465 287.479 564.371 287.663 564.265 288.233C564.11 289.056 560.654 289.373 555.769 289.015C547.387 288.399 546.4 288.264 541.746 287.125C539.145 286.486 535.614 285.647 533.902 285.256C532.19 284.867 529.128 284.13 527.098 283.617C524.492 282.961 522.293 282.607 519.622 282.413C515.693 282.127 514.76 282.193 516.485 282.635C519.85 283.499 507.369 281.416 494.274 278.928C485.818 277.321 477.415 275.755 475.602 275.447C473.789 275.139 471.709 274.733 470.978 274.544C470.248 274.357 468.068 273.741 466.132 273.181C455.405 270.062 454.533 269.846 441.459 267.078C437.942 266.335 433.487 265.231 431.56 264.628C422.031 261.642 414.548 259.715 414.777 260.305C414.837 260.457 414.751 260.556 414.587 260.524C414.423 260.49 414.231 260.314 414.16 260.132C414.091 259.942 412.626 259.506 410.85 259.141Z" fill="#C5E1CD"/>
</svg>
