<svg width="81" height="153" viewBox="0 0 81 153" fill="none" xmlns="http://www.w3.org/2000/svg">
<g clip-path="url(#clip0_1_127)">
<path d="M60.49 147.83C61.8094 145.504 62.9784 143.096 63.99 140.62L67.31 142C66.2411 144.617 65.0052 147.162 63.61 149.62L60.49 147.83ZM66.56 133C67.2619 130.414 67.8161 127.789 68.22 125.14L71.77 125.68C71.3379 128.485 70.7469 131.262 70 134L66.56 133ZM69 117.14C69.13 114.5 69.12 111.79 69 109.07L72.58 108.89C72.72 111.72 72.72 114.55 72.58 117.31L69 117.14ZM68.25 101C67.88 98.36 67.4 95.68 66.8 93L70.3 92.21C70.91 94.96 71.42 97.74 71.8 100.47L68.25 101ZM64.71 85.2C63.92 82.65 63.01 80.07 62.01 77.55L65.35 76.23C66.35 78.84 67.35 81.5 68.14 84.14L64.71 85.2ZM58.71 70.13C58.11 68.9033 57.4867 67.6933 56.84 66.5C56.1933 65.3067 55.5267 64.13 54.84 62.97L58 61.2C58.6667 62.3933 59.3333 63.6033 60 64.83C60.6667 66.0567 61.31 67.3067 61.93 68.58L58.71 70.13ZM50.58 56.08C49.08 53.8133 47.5167 51.59 45.89 49.41L48.77 47.27C50.43 49.5033 52.03 51.78 53.57 54.1L50.58 56.08ZM40.87 43C39.1433 40.8933 37.3733 38.8233 35.56 36.79L38.24 34.4C40.0867 36.4733 41.89 38.58 43.65 40.72L40.87 43ZM30 30.76C28.1133 28.76 26.1967 26.8133 24.25 24.92L26.77 22.37C28.77 24.3167 30.7133 26.2867 32.6 28.28L30 30.76ZM18.34 19.23C16.34 17.35 14.34 15.49 12.34 13.65L14.72 11C16.76 12.86 18.7867 14.7333 20.8 16.62L18.34 19.23ZM6.18 8.15C4.12 6.32333 2.06 4.50667 0 2.7L2.36 0C4.42667 1.81333 6.49333 3.63333 8.56 5.46L6.18 8.15Z" fill="#009245"/>
<path d="M80.26 144.62L79.03 141.25L62.42 147.34L57.57 130.33L54.12 131.32L60.03 152.03L80.26 144.62Z" fill="#009245"/>
</g>
<defs>
<clipPath id="clip0_1_127">
<rect width="80.26" height="152.03" fill="white"/>
</clipPath>
</defs>
</svg>
