<svg width="81" height="153" viewBox="0 0 81 153" fill="none" xmlns="http://www.w3.org/2000/svg">
<g clip-path="url(#clip0_1_122)">
<path d="M16.65 149.6C15.2551 147.142 14.0192 144.596 12.95 141.98L16.27 140.62C17.2815 143.096 18.4505 145.504 19.77 147.83L16.65 149.6ZM10.24 134C9.50363 131.268 8.9227 128.497 8.5 125.7L12.05 125.16C12.4515 127.802 13.0024 130.42 13.7 133L10.24 134ZM7.66 117.31C7.53 114.56 7.53 111.73 7.66 108.89L11.24 109.07C11.11 111.78 11.1 114.5 11.24 117.14L7.66 117.31ZM8.46 100.53C8.84 97.79 9.34 95.02 9.96 92.27L13.46 93.06C12.86 95.71 12.38 98.39 12.01 101.06L8.46 100.53ZM12.13 84.16C12.95 81.52 13.89 78.86 14.92 76.25L18.25 77.57C17.25 80.09 16.34 82.67 15.55 85.22L12.13 84.16ZM18.32 68.57C18.94 67.3033 19.5833 66.0533 20.25 64.82C20.9167 63.5867 21.5833 62.3767 22.25 61.19L25.35 62.99C24.6833 64.1567 24.0167 65.3333 23.35 66.52C22.6833 67.7067 22.06 68.9167 21.48 70.15L18.32 68.57ZM26.69 54.1C28.2233 51.78 29.8233 49.5033 31.49 47.27L34.37 49.41C32.75 51.59 31.1867 53.8133 29.68 56.08L26.69 54.1ZM36.62 40.7C38.3733 38.56 40.1767 36.4533 42.03 34.38L44.71 36.77C42.9033 38.81 41.13 40.8867 39.39 43L36.62 40.7ZM47.66 28.28C49.5667 26.28 51.51 24.31 53.49 22.37L56 24.92C54.0533 26.84 52.1367 28.7867 50.25 30.76L47.66 28.28ZM59.46 16.62C61.46 14.7267 63.4867 12.8533 65.54 11L68 13.65C66 15.4967 64 17.3567 62 19.23L59.46 16.62ZM71.7 5.46C73.76 3.63333 75.8267 1.81333 77.9 0L80.26 2.7C78.2 4.50667 76.14 6.32333 74.08 8.15L71.7 5.46Z" fill="#009245"/>
<path d="M0 144.62L1.23 141.25L17.84 147.34L22.69 130.33L26.14 131.32L20.23 152.03L0 144.62Z" fill="#009245"/>
</g>
<defs>
<clipPath id="clip0_1_122">
<rect width="80.26" height="152.03" fill="white"/>
</clipPath>
</defs>
</svg>
