<?xml version="1.0" encoding="utf-8"?>
<!-- Generator: Adobe Illustrator 28.3.0, SVG Export Plug-In . SVG Version: 6.00 Build 0)  -->
<svg version="1.1" id="Warstwa_1" xmlns="http://www.w3.org/2000/svg" xmlns:xlink="http://www.w3.org/1999/xlink" x="0px" y="0px"
	 viewBox="0 0 490.9 490.5" style="enable-background:new 0 0 490.9 490.5;" xml:space="preserve">
<style type="text/css">
	.st0{fill:#008749;}
</style>
<g id="Warstwa_2_00000098912158182876368780000003466959375697581729_">
	<g id="Warstwa_1-2">
		<path class="st0" d="M0,476.1c3.7-9.1,5.2-18.9,7.6-28.4c7.5-29.6,14.8-59.4,22.2-89.1c0.7-2.9,2.3-5.6,4.5-7.7
			c88.7-88.7,177.4-177.4,266-266.1c2.4-2.4,3.5-2.3,5.8,0.1c33.1,33.3,66.3,66.6,99.6,99.7c2.2,2.1,2.3,3.2,0.1,5.5
			c-88.9,88.7-177.7,177.5-266.4,266.3c-2.3,2.2-5.2,3.8-8.3,4.4c-38.5,9.6-77,19.1-115.5,28.8c-0.7,0.2-1.4,0.6-2.1,0.9H7.7
			c-4-0.5-7.2-3.7-7.7-7.7V476.1z"/>
		<path class="st0" d="M0,482.8c1.7,3.3,4.4,5.9,7.7,7.7C0,490.5,0,490.5,0,482.8z"/>
		<path class="st0" d="M490.9,82.9c-0.3,14.4-5.3,27-15.5,37.4c-11.4,11.6-23.1,23-34.5,34.6c-2,2-3,1.8-4.8-0.1
			c-33.5-33.6-67-67.1-100.6-100.6c-1.7-1.7-1.9-2.6,0-4.5C347.3,38,358.8,26,370.9,14.6C391.7-5.1,424.3-5,445,14.8
			c10.4,9.9,20.5,20.2,30.5,30.5S490.6,68.3,490.9,82.9z"/>
	</g>
</g>
</svg>
