<svg width="65" height="65" viewBox="0 0 65 65" fill="none" xmlns="http://www.w3.org/2000/svg">
<path d="M50.934 27.0985L14.794 27.95L4.5955 28.197C2.8015 28.236 2.795 31.0245 4.5955 30.9855L40.742 30.1275L50.934 29.9C52.728 29.8415 52.7345 27.053 50.934 27.0985ZM61.061 26.962C54.678 23.959 48.4077 20.7328 42.25 17.2835C40.69 16.406 39.2795 18.85 40.846 19.695C46.423 22.8237 52.091 25.7617 57.85 28.509C52.0383 33.6918 46.8075 39.4914 42.25 45.8055C42.0666 46.1261 42.0163 46.5059 42.1098 46.8632C42.2034 47.2206 42.4335 47.5269 42.7505 47.7165C43.0713 47.8946 43.4484 47.9419 43.8032 47.8487C44.1581 47.7554 44.4632 47.5288 44.655 47.216C49.4859 40.5566 55.089 34.4932 61.347 29.1525C61.496 29.0006 61.6085 28.8168 61.676 28.615C61.7435 28.4132 61.7643 28.1987 61.7368 27.9877C61.7092 27.7767 61.6341 27.5747 61.517 27.397C61.3999 27.2193 61.244 27.0706 61.061 26.962Z" fill="#2DAB5A"/>
</svg>
